<?xml version="1.0" encoding="UTF-8"?>
<svg id="Layer_1" data-name="Layer 1" xmlns="http://www.w3.org/2000/svg" xmlns:xlink="http://www.w3.org/1999/xlink" viewBox="0 0 224.1 39.35">
  <defs>
    <style>
      .cls-1 {
        fill: none;
      }

      .cls-2 {
        fill: #424143;
      }

      .cls-3 {
        fill: #f26324;
      }

      .cls-4 {
        fill: #fff;
      }

      .cls-5 {
        clip-path: url(#clippath);
      }
    </style>
    <clipPath id="clippath">
      <rect class="cls-1" y="0" width="224.1" height="39.35"/>
    </clipPath>
  </defs>
  <g class="cls-5">
    <path class="cls-2" d="M155.69,22.6v15.8c0,.36.2.56.56.56h3.12c.36,0,.56-.2.56-.56v-6.14c0-.07.03-.12.07-.15.05-.03.1-.02.17.03,1.74,1.5,3.77,4.3,4.61,6.33.12.31.29.49.61.49h3.45c.39,0,.63-.24.48-.61-1.23-2.97-3.36-5.85-5.68-8.1-.15-.12-.19-.22-.1-.34l5.44-7.2c.15-.18.17-.35.11-.47-.06-.12-.22-.21-.45-.21h-3.57c-.29,0-.51.1-.68.37l-4.23,6.36c-.05.08-.11.11-.16.09-.05-.02-.08-.08-.08-.17v-6.09c0-.36-.19-.56-.56-.56h-3.12c-.36,0-.56.2-.56.56M137.57,22.6v9.35c0,3.89,2.3,7.39,7.88,7.39s7.83-3.5,7.83-7.39v-9.35c0-.36-.2-.56-.56-.56h-3.11c-.36,0-.56.2-.56.56v9.11c0,2.39-1.09,3.89-3.63,3.89s-3.62-1.5-3.62-3.89v-9.11c0-.36-.19-.56-.56-.56h-3.12c-.36,0-.56.2-.56.56ZM114.2,38.96h3.12c.36,0,.55-.19.55-.56v-5.9c0-.14.1-.24.24-.24h7.01c.14,0,.24.1.24.24v5.9c0,.36.19.56.55.56h3.12c.36,0,.56-.19.56-.56v-15.8c0-.36-.2-.56-.56-.56h-3.12c-.36,0-.55.2-.55.56v5.92c0,.14-.1.24-.24.24h-7.01c-.14,0-.24-.1-.24-.24v-5.92c0-.36-.19-.56-.55-.56h-3.12c-.36,0-.56.2-.56.56v15.8c0,.36.2.56.56.56ZM108.6,33.23c-.29-.15-.56-.07-.77.17-.89,1.11-2.1,1.88-3.75,1.88-2.75,0-4.25-1.98-4.25-4.78s1.5-4.79,4.25-4.79c1.64,0,2.85.77,3.75,1.89.22.24.48.31.77.17l2.66-1.38c.31-.17.43-.43.22-.75-1.57-2.42-3.99-3.99-7.32-3.99-5.61,0-8.63,3.89-8.63,8.84s3.02,8.84,8.63,8.84c3.33,0,5.75-1.57,7.32-3.99.21-.31.1-.58-.22-.75l-2.66-1.38ZM79.26,22.6v2.66c0,.36.2.56.56.56h.27c.24,0,.34.14.34.39v12.2c0,.36.2.56.56.56h3.11c.36,0,.56-.19.56-.56v-5.36c0-.17.1-.24.27-.2,1.84.48,2.83,1.76,4.66,5.65.15.32.32.46.63.46h3.46c.39,0,.63-.24.48-.61-.75-2.03-2.29-4.47-3.7-5.97-.12-.12-.1-.27.1-.31,2.95-.87,3.38-3.41,3.38-4.83,0-3.33-2.15-5.2-6.5-5.2h-7.61c-.36,0-.56.17-.56.56ZM84.65,29.73v-3.7c0-.17.1-.24.25-.24h1.88c1.86,0,2.97.54,2.97,2.08s-1.11,2.11-2.97,2.11h-1.88c-.14,0-.25-.1-.25-.25ZM61.62,38.96h2.95c.32,0,.53-.12.65-.41l1.16-2.66c.07-.19.22-.29.44-.29h5.82c.22,0,.34.1.44.29l1.21,2.63c.12.29.34.44.65.44h3.24c.41,0,.58-.27.41-.66l-6.84-15.85c-.12-.29-.34-.41-.65-.41h-3.17c-.41,0-.53.27-.41.65l.17.56c.05.17.07.36,0,.53l-6.48,14.52c-.17.39,0,.66.41.66ZM67.98,31.76l1.6-3.72c.06-.15.12-.22.19-.21.07,0,.14.08.22.24l1.64,3.7c.12.29,0,.46-.29.46h-3.04c-.29,0-.44-.17-.32-.46ZM46.18,22.6v2.63c0,.36.2.56.56.56h.27c.24,0,.39.14.39.38v12.23c0,.36.2.56.56.56h11.31c.36,0,.53-.2.56-.56l.24-2.63c.02-.36-.19-.56-.56-.56h-7.64c-.14,0-.24-.09-.24-.24v-2.08c0-.14.1-.24.24-.24h4.5c.36,0,.53-.19.56-.55l.24-2.73c.02-.36-.19-.56-.56-.56h-4.74c-.14,0-.24-.1-.24-.24v-2.39c0-.24.14-.38.38-.38h6.96c.36,0,.53-.19.56-.56l.24-2.63c.02-.36-.19-.56-.55-.56h-12.47c-.36,0-.56.17-.56.56ZM31.59,37.37c1.86,1.16,4.08,1.96,6.74,1.96,4.3,0,6.64-2.42,6.64-5.56s-2.05-4.4-4.64-4.98l-2.66-.6c-1.16-.27-1.62-.6-1.62-1.43,0-.97.89-1.38,2.27-1.38,1.55,0,2.83.51,3.75,1.14.29.19.56.22.77-.1l1.6-2.13c.22-.26.17-.55-.1-.77-1.4-1.06-3.41-1.84-5.85-1.84-4.47,0-6.69,2.32-6.69,5.39,0,2.76,2,4.23,4.4,4.81l2.66.65c1.3.32,1.86.77,1.86,1.64s-.63,1.55-2.3,1.55-3.41-.77-5-1.67c-.32-.19-.56-.12-.75.22l-1.28,2.34c-.17.29-.12.56.19.75ZM16.02,22.6v2.63c0,.36.2.56.56.56h.27c.24,0,.39.14.39.38v12.23c0,.36.2.56.56.56h11.31c.36,0,.53-.2.56-.56l.24-2.63c.02-.36-.19-.56-.56-.56h-7.64c-.14,0-.24-.09-.24-.24v-2.08c0-.14.1-.24.24-.24h4.49c.36,0,.53-.19.56-.55l.24-2.73c.02-.36-.19-.56-.56-.56h-4.74c-.14,0-.24-.1-.24-.24v-2.39c0-.24.14-.38.38-.38h6.96c.36,0,.53-.19.56-.56l.24-2.63c.02-.36-.2-.56-.56-.56h-12.47c-.36,0-.56.17-.56.56ZM0,22.6v2.66c0,.36.19.56.56.56h.27c.24,0,.34.14.34.39v12.2c0,.36.19.56.55.56h3.12c.36,0,.55-.19.55-.56v-5.36c0-.17.1-.24.27-.2,1.84.48,2.83,1.76,4.66,5.65.14.32.31.46.63.46h3.46c.39,0,.63-.24.48-.61-.75-2.03-2.3-4.47-3.7-5.97-.12-.12-.1-.27.1-.31,2.95-.87,3.38-3.41,3.38-4.83,0-3.33-2.15-5.2-6.5-5.2H.56c-.36,0-.56.17-.56.56ZM5.39,29.73v-3.7c0-.17.1-.24.24-.24h1.89c1.86,0,2.97.54,2.97,2.08s-1.11,2.11-2.97,2.11h-1.89c-.14,0-.24-.1-.24-.25Z"/>
    <rect class="cls-3" x="177.97" y="0" width="46.14" height="38.96"/>
  </g>
  <path class="cls-4" d="M216.32,4.65h-2.76c-.22,0-.39.15-.45.37l-2.68,12.29c-.06.22.07.38.3.38h1.83c.22,0,.41-.15.45-.38l.39-2.18c.02-.11.11-.19.22-.19h2.65c.11,0,.2.07.22.19l.39,2.18c.04.22.22.38.45.38h1.83c.22,0,.35-.15.3-.38l-2.68-12.29c-.06-.22-.22-.37-.45-.37M213.86,12.53l.91-4.97c.02-.11.09-.17.16-.17.08,0,.15.05.17.17l.91,4.97c.02.11-.07.19-.18.19h-1.83c-.11,0-.17-.08-.15-.19ZM202.02,4.65h-2.87c-.22,0-.38.15-.38.37v12.29c0,.22.15.38.38.38h1.77c.22,0,.38-.15.38-.38v-4.21c0-.13.07-.2.28-.15,1.12.28,1.71,1.54,2.27,4.38.04.2.19.36.48.36h1.88c.22,0,.3-.13.26-.34-.3-1.49-1.04-3.97-1.98-5.18-.04-.06-.05-.09-.03-.12l.11-.12c.9-.89,1.45-2.01,1.45-3.46,0-2.14-1.19-3.82-4.01-3.82ZM201.98,10.76h-.5c-.11,0-.19-.08-.19-.19v-3.5c0-.11.08-.19.19-.19h.5c.93,0,1.53.73,1.53,1.92s-.6,1.96-1.53,1.96ZM189.44,14.02c0,2.22,1.59,3.97,3.91,3.97s3.92-1.75,3.92-3.97v-5.89c0-2.22-1.59-3.78-3.92-3.78s-3.91,1.57-3.91,3.78v5.89ZM194.66,14.33c0,.77-.54,1.42-1.31,1.42s-1.31-.65-1.31-1.42v-6.33c0-.77.54-1.42,1.31-1.42s1.31.65,1.31,1.42v6.33ZM182.61,5.02v12.29c0,.22.15.38.38.38h1.77c.22,0,.38-.15.38-.38v-4.6c0-.11.07-.18.18-.18h2.05c.22,0,.36-.15.38-.37l.15-1.49c.02-.22-.15-.37-.37-.37h-2.2c-.11,0-.18-.07-.18-.19v-3.04c0-.11.07-.18.18-.18h2.94c.22,0,.35-.15.37-.38l.15-1.49c.02-.22-.15-.37-.37-.37h-5.42c-.22,0-.38.15-.38.37Z"/>
  <path class="cls-4" d="M219.03,31.85h-3.35c-.12,0-.2-.08-.2-.2v-2.99c0-.12.08-.2.2-.2h1.79c.24,0,.39-.16.41-.41l.16-1.62c.02-.24-.16-.41-.4-.41h-1.95c-.12,0-.2-.08-.2-.2v-3.11c0-.12.08-.2.2-.2h3.19c.24,0,.39-.16.41-.41l.16-1.62c.02-.24-.16-.41-.41-.41h-5.89c-.24,0-.41.16-.41.41v13.4c0,.24.17.41.41.41h5.73c.24,0,.39-.16.41-.41l.16-1.62c.02-.24-.16-.41-.41-.41M206.47,20.08h-3.13c-.24,0-.41.16-.41.41v13.4c0,.25.16.41.41.41h1.93c.24,0,.41-.16.41-.41v-4.59c0-.14.08-.22.3-.16,1.22.3,1.87,1.68,2.48,4.77.04.23.2.39.53.39h2.05c.24,0,.32-.14.28-.37-.32-1.62-1.14-4.32-2.15-5.64-.04-.06-.05-.09-.04-.13l.12-.14c.97-.98,1.59-2.19,1.59-3.78,0-2.33-1.3-4.16-4.36-4.16ZM206.43,26.74h-.55c-.12,0-.2-.08-.2-.21v-3.81c0-.12.08-.21.2-.21h.55c1.02,0,1.66.8,1.66,2.1s-.65,2.13-1.66,2.13ZM192.68,30.6c0,2.35,1.67,4.02,4.06,4.02s4.06-1.66,4.06-4.02v-10.11c0-.24-.16-.41-.41-.41h-1.93c-.24,0-.41.16-.41.41v10.29c0,.87-.49,1.4-1.32,1.4s-1.32-.53-1.32-1.4v-10.29c0-.24-.16-.41-.41-.41h-1.93c-.24,0-.41.16-.41.41v10.11ZM188.36,23.73v.45c0,.24.16.4.41.4h1.99c.24,0,.41-.16.41-.4v-.1c0-2.64-1.67-4.32-4.25-4.32s-4.29,1.7-4.29,4.32v6.21c0,2.6,1.67,4.32,4.29,4.32s4.25-1.64,4.25-4.32v-.1c0-.24-.17-.4-.41-.4h-1.99c-.24,0-.41.16-.41.4v.45c0,.95-.55,1.54-1.44,1.54s-1.44-.59-1.44-1.54v-6.9c0-.95.55-1.54,1.44-1.54s1.44.59,1.44,1.54Z"/>
  <path class="cls-2" d="M133.53.97v2.65c0,.36.2.56.56.56h.26c.24,0,.34.14.34.38v12.17c0,.36.19.55.56.55h3.11c.36,0,.56-.19.56-.55v-5.35c0-.17.09-.24.26-.19,1.83.48,2.82,1.76,4.65,5.64.14.31.31.46.63.46h3.44c.39,0,.63-.24.48-.6-.74-2.02-2.29-4.46-3.68-5.95-.12-.12-.1-.26.1-.31,2.94-.87,3.37-3.4,3.37-4.82,0-3.33-2.15-5.19-6.48-5.19h-7.59c-.36,0-.56.17-.56.56M138.91,8.07v-3.69c0-.17.1-.24.24-.24h1.88c1.85,0,2.96.53,2.96,2.07s-1.11,2.1-2.96,2.1h-1.88c-.15,0-.24-.1-.24-.24ZM118.26.97v2.62c0,.36.2.56.56.56h.27c.24,0,.39.14.39.39v12.19c0,.36.19.55.55.55h11.28c.36,0,.53-.19.55-.55l.24-2.63c.02-.36-.19-.56-.56-.56h-7.61c-.15,0-.24-.1-.24-.24v-2.07c0-.14.1-.24.24-.24h4.48c.36,0,.53-.19.56-.56l.24-2.72c.02-.36-.19-.56-.56-.56h-4.72c-.15,0-.24-.1-.24-.24v-2.38c0-.24.14-.39.39-.39h6.94c.36,0,.53-.19.56-.56l.24-2.62c.02-.36-.19-.56-.56-.56h-12.43c-.36,0-.56.17-.56.56ZM98.07,17.28h3.16c.34,0,.53-.2.56-.53l.41-10.34c0-.12.05-.18.11-.19.06,0,.13.05.18.16l3.11,7.3c.12.29.31.46.62.46h2.07c.31,0,.51-.17.63-.46l2.94-7.3c.05-.12.12-.17.18-.16.06,0,.11.07.11.19l.41,10.34c.02.33.22.53.55.53h3.18c.36,0,.55-.2.53-.58l-1.04-15.76c-.02-.34-.24-.53-.58-.53h-4.53c-.32,0-.5.14-.63.46l-2.58,7.35c-.04.12-.09.18-.14.17-.05,0-.11-.06-.15-.17l-2.67-7.35c-.12-.31-.31-.46-.63-.46h-4.72c-.34,0-.55.2-.58.53l-1.04,15.76c-.02.38.17.58.53.58ZM91.28.97v15.76c0,.36.2.55.56.55h3.11c.36,0,.56-.19.56-.55V.97c0-.36-.2-.56-.56-.56h-3.11c-.36,0-.56.2-.56.56ZM75.4.97v2.62c0,.36.2.56.56.56h.27c.24,0,.39.14.39.39v12.19c0,.36.19.55.55.55h11.28c.36,0,.53-.19.55-.55l.24-2.63c.03-.36-.19-.56-.55-.56h-7.62c-.15,0-.24-.1-.24-.24v-2.07c0-.14.1-.24.24-.24h4.48c.36,0,.53-.19.56-.56l.24-2.72c.02-.36-.19-.56-.56-.56h-4.72c-.15,0-.24-.1-.24-.24v-2.38c0-.24.14-.39.39-.39h6.94c.36,0,.53-.19.55-.56l.24-2.62c.03-.36-.19-.56-.55-.56h-12.43c-.36,0-.56.17-.56.56ZM58.01,17.28h3.11c.36,0,.55-.2.55-.56v-5.88c0-.14.1-.24.24-.24h6.99c.14,0,.24.1.24.24v5.88c0,.36.19.56.55.56h3.11c.36,0,.56-.2.56-.56V.97c0-.36-.19-.56-.56-.56h-3.11c-.36,0-.55.2-.55.56v5.9c0,.15-.1.24-.24.24h-6.99c-.14,0-.24-.09-.24-.24V.97c0-.36-.19-.56-.55-.56h-3.11c-.36,0-.56.2-.56.56v15.76c0,.36.2.56.56.56ZM43.36,17.28h11.25c.36,0,.53-.2.56-.56l.24-2.63c.05-.36-.19-.56-.55-.56h-6.41c-.1,0-.17-.03-.2-.09-.03-.05-.01-.13.05-.2l6.87-8.79c.17-.22.25-.44.25-.7V.97c0-.36-.2-.56-.56-.56h-11.25c-.36,0-.5.2-.55.56l-.24,2.62c-.02.36.19.56.55.56h6.41c.1,0,.16.04.19.09.03.05.02.12-.04.19l-6.87,8.79c-.17.22-.25.44-.25.7v2.8c0,.36.2.56.56.56ZM30.01,17.28h10.79c.36,0,.56-.2.56-.56v-2.63c0-.36-.2-.56-.56-.56h-6.89c-.14,0-.24-.1-.24-.24V.97c0-.36-.19-.56-.55-.56h-3.11c-.36,0-.56.2-.56.56v15.76c0,.36.2.56.56.56ZM10.79,17.28h2.94c.31,0,.53-.12.65-.41l1.16-2.65c.07-.19.22-.29.43-.29h5.8c.22,0,.34.1.43.29l1.2,2.63c.12.29.34.44.65.44h3.23c.41,0,.58-.27.41-.65L20.89.82c-.12-.29-.34-.41-.65-.41h-3.15c-.41,0-.53.27-.41.65l.17.56c.05.17.07.36,0,.53l-6.46,14.48c-.17.39,0,.65.41.65ZM17.13,10.1l1.59-3.71c.06-.14.12-.22.19-.21.07,0,.14.08.22.24l1.64,3.69c.12.29,0,.46-.29.46h-3.04c-.29,0-.43-.17-.31-.46Z"/>
  <path class="cls-2" d="M150.23,3.76c-.22,0-.36-.12-.36-.36V.36c0-.21.15-.36.36-.36h3.3c.22,0,.37.15.37.36v2c0,.96-.17,1.71-.51,2.43-.32.63-.77,1.21-1.4,1.88-.21.24-.41.22-.65.02l-.53-.46c-.29-.24-.24-.46,0-.75l.71-.92c.21-.29.35-.54.35-.67,0-.12-.07-.14-.19-.14"/>
  <path class="cls-2" d="M155.94,15.69c-.31-.19-.36-.46-.19-.74l1.28-2.34c.19-.33.43-.41.74-.21,1.59.89,3.25,1.66,4.99,1.66s2.29-.68,2.29-1.54-.55-1.33-1.85-1.64l-2.65-.65c-2.39-.58-4.39-2.05-4.39-4.79,0-3.06,2.21-5.38,6.67-5.38,2.43,0,4.43.77,5.83,1.83.27.22.32.5.1.77l-1.59,2.12c-.21.31-.48.29-.77.1-.92-.63-2.19-1.13-3.73-1.13-1.38,0-2.27.41-2.27,1.38,0,.82.46,1.16,1.61,1.42l2.65.6c2.58.58,4.63,1.98,4.63,4.96s-2.34,5.54-6.62,5.54c-2.65,0-4.87-.8-6.72-1.95"/>
</svg>