<?xml version="1.0" encoding="UTF-8"?>
<svg id="Layer_1" xmlns="http://www.w3.org/2000/svg" xmlns:rdf="http://www.w3.org/1999/02/22-rdf-syntax-ns#" xmlns:dc="http://purl.org/dc/elements/1.1/" xmlns:cc="http://creativecommons.org/ns#" version="1.1" viewBox="0 0 350 292.72">
  <!-- Generator: Adobe Illustrator 29.8.3, SVG Export Plug-In . SVG Version: 2.1.1 Build 3)  -->
  <defs>
    <style>
      .st0 {
        fill: #fff;
      }
    </style>
  </defs>
  <path class="st0" d="M0,292.69h6.85V0H0v292.68Z"/>
  <g>
    <path class="st0" d="M40.13,154.18h9.98c4.11,0,15.16-1.14,15.16-17.78,0-10.76-3.98-17.28-15.03-17.28h-10.11v35.07ZM34.13,114.05h15.48c13.9,0,21.67,6.96,21.67,21.52s-6.63,23.67-21.67,23.67h-15.48v-45.19Z"/>
    <path class="st0" d="M99.17,139.79c-.25-5.12-4.11-9.22-9.41-9.22-5.62,0-8.97,4.23-9.35,9.22h18.76ZM104.35,148.88c-1.45,7.2-6.63,11.12-13.96,11.12-10.42,0-15.35-7.2-15.67-17.18,0-9.79,6.44-16.99,15.35-16.99,11.56,0,15.1,10.8,14.78,18.7h-24.44c-.19,5.68,3.03,10.74,10.17,10.74,4.42,0,7.52-2.15,8.47-6.38h5.31Z"/>
    <path class="st0" d="M124.52,130.57c-7.2,0-9.98,6.19-9.98,12.32,0,6.44,2.9,12.38,10.3,12.38s9.79-6.25,9.79-12.63-3.16-12.07-10.11-12.07M109.36,126.59h5.37v4.42h.12c1.77-3.6,5.94-5.18,10.43-5.18,10.04,0,15.04,7.96,15.04,17.18s-4.93,17-14.91,17c-3.35,0-8.15-1.27-10.55-5.12h-.12v16.87h-5.37v-45.17Z"/>
    <path class="st0" d="M165.23,142.38c-2.08,1.52-6.13,1.58-9.73,2.21-3.54.63-6.57,1.9-6.57,5.87,0,3.54,3.03,4.8,6.32,4.8,7.08,0,9.98-4.42,9.98-7.39v-5.49ZM173.95,159.12c-.95.57-2.15.89-3.86.89-2.78,0-4.55-1.52-4.55-5.05-2.97,3.47-6.95,5.05-11.5,5.05-5.94,0-10.8-2.66-10.8-9.16,0-7.39,5.49-8.97,11.05-10.05,5.94-1.14,10.99-.76,10.99-4.8,0-4.67-3.85-5.43-7.26-5.43-4.55,0-7.89,1.39-8.15,6.19h-5.37c.31-8.09,6.57-10.93,13.83-10.93,5.87,0,12.25,1.33,12.25,8.97v16.8c0,2.53,0,3.66,1.71,3.66.44,0,.94-.06,1.64-.31v4.17Z"/>
    <path class="st0" d="M177.58,126.59h5.05v6.88h.13c2.59-5.24,6.19-7.83,12-7.64v5.68c-8.66,0-11.82,4.93-11.82,13.2v14.53h-5.37v-32.66Z"/>
    <path class="st0" d="M207.03,126.59h6.51v4.74h-6.51v20.28c0,2.46.69,2.9,4.04,2.9h2.46v4.74h-4.11c-5.56,0-7.77-1.14-7.77-7.14v-20.78h-5.56v-4.74h5.56v-9.79h5.37v9.79Z"/>
    <path class="st0" d="M217.54,126.59h5.05v4.8h.13c2.4-3.66,6.06-5.56,10.55-5.56,3.98,0,7.64,1.58,8.97,5.56,2.21-3.47,6.06-5.56,10.23-5.56,6.51,0,10.86,2.71,10.86,9.47v23.94h-5.37v-21.42c0-4.04-1.07-7.26-6.32-7.26s-8.53,3.28-8.53,8.34v20.34h-5.37v-21.42c0-4.23-1.33-7.26-6.13-7.26-6.38,0-8.72,5.87-8.72,8.34v20.34h-5.37v-32.66Z"/>
    <path class="st0" d="M292.57,139.79c-.25-5.12-4.11-9.22-9.41-9.22-5.62,0-8.97,4.23-9.35,9.22h18.76ZM297.75,148.88c-1.45,7.2-6.63,11.12-13.96,11.12-10.42,0-15.35-7.2-15.67-17.18,0-9.79,6.45-16.99,15.35-16.99,11.56,0,15.1,10.8,14.78,18.7h-24.45c-.19,5.68,3.03,10.74,10.17,10.74,4.42,0,7.52-2.15,8.47-6.38h5.31Z"/>
    <path class="st0" d="M302.67,126.59h5.05v5.18h.13c2.27-4.04,5.94-5.94,10.61-5.94,8.59,0,11.24,4.93,11.24,11.94v21.48h-5.37v-22.11c0-3.98-2.52-6.57-6.63-6.57-6.51,0-9.67,4.36-9.67,10.23v18.45h-5.37v-32.66Z"/>
    <path class="st0" d="M343.49,126.59h6.51v4.74h-6.51v20.28c0,2.46.69,2.9,4.04,2.9h2.46v4.74h-4.11c-5.56,0-7.77-1.14-7.77-7.14v-20.78h-5.56v-4.74h5.56v-9.79h5.37v9.79Z"/>
  </g>
  <g>
    <g>
      <path class="st0" d="M68.88,197.68h-5.5v-4.74h5.5v-4.86c0-5.31,3.16-8.09,9.03-8.09,1.01,0,2.46.19,3.47.5v4.68c-.95-.32-2.08-.44-3.03-.44-2.59,0-4.11.82-4.11,3.66v4.55h6.32v4.74h-6.32v27.92h-5.37v-27.92Z"/>
      <path class="st0" d="M46.84,221.62c5.62,0,10.17-4.42,10.17-12.32s-4.55-12.38-10.17-12.38-10.17,4.42-10.17,12.38,4.55,12.32,10.17,12.32M46.84,192.18c10.36,0,15.86,7.52,15.86,17.12s-5.5,17.06-15.86,17.06-15.86-7.52-15.86-17.06,5.49-17.12,15.86-17.12"/>
      <path class="st0" d="M139.02,259.14h5.37v32.7h-5.37v-32.7ZM144.39,253.25h-5.37v-6.58h5.37v6.58Z"/>
      <path class="st0" d="M168.13,206.15c-.25-5.12-4.11-9.22-9.41-9.22-5.62,0-8.97,4.23-9.35,9.22h18.76ZM173.31,215.24c-1.45,7.2-6.63,11.12-13.96,11.12-10.42,0-15.35-7.2-15.67-17.18,0-9.79,6.44-16.99,15.35-16.99,11.56,0,15.1,10.8,14.78,18.7h-24.44c-.19,5.68,3.03,10.74,10.17,10.74,4.42,0,7.52-2.15,8.47-6.38h5.31Z"/>
      <path class="st0" d="M233.84,192.91h6.5v4.74h-6.5v20.28c0,2.46.69,2.9,4.04,2.9h2.46v4.74h-4.1c-5.56,0-7.77-1.14-7.77-7.14v-20.78h-5.56v-4.74h5.56v-9.79h5.37v9.79Z"/>
      <path class="st0" d="M87.08,287.98c5.62,0,10.17-4.42,10.17-12.32s-4.55-12.38-10.17-12.38-10.17,4.42-10.17,12.38,4.55,12.32,10.17,12.32M87.08,258.54c10.36,0,15.86,7.52,15.86,17.12s-5.5,17.06-15.86,17.06-15.86-7.52-15.86-17.06,5.5-17.12,15.86-17.12"/>
      <path class="st0" d="M315.18,190.08c0-2.59-1.96-4.8-5.18-4.8-2.53,0-5.18,1.52-5.18,4.8,0,2.72,2.4,5.37,4.36,7.83,2.59-1.64,6-4.04,6-7.83M307.41,203.85c-4.23,2.4-7.83,4.8-7.83,10.17,0,4.55,4.23,7.64,8.59,7.64,4.11,0,7.39-2.08,9.6-5.37l-10.36-12.44ZM320.74,220.02c-2.71,4.23-7.83,6.38-12.76,6.38-12.19,0-14.09-8.66-14.09-12.32,0-7.08,4.8-10.61,10.55-13.64-2.52-3.6-4.99-6-4.99-10.61,0-4.93,3.66-9.29,10.17-9.29,5.62,0,10.93,3.1,10.93,9.22,0,5.37-4.11,9.22-8.46,11.68l8.15,9.92c.82-2.21,1.32-4.61,1.45-7.01h5.12c-.44,5.31-1.14,7.14-3.04,11.12l8.78,10.17h-7.01l-4.8-5.62Z"/>
      <path class="st0" d="M295.72,259.26h5.05v6.88h.13c2.59-5.24,6.19-7.83,12-7.64v5.69c-8.65,0-11.81,4.93-11.81,13.2v14.53h-5.37v-32.66Z"/>
      <path class="st0" d="M172.83,275.02c-2.08,1.52-6.13,1.58-9.73,2.21-3.54.63-6.57,1.9-6.57,5.87,0,3.54,3.03,4.8,6.32,4.8,7.08,0,9.98-4.42,9.98-7.39v-5.49ZM181.55,291.76c-.95.57-2.15.89-3.85.89-2.78,0-4.55-1.52-4.55-5.05-2.97,3.47-6.95,5.05-11.5,5.05-5.94,0-10.8-2.66-10.8-9.16,0-7.39,5.5-8.97,11.05-10.05,5.94-1.14,10.99-.76,10.99-4.8,0-4.67-3.86-5.43-7.27-5.43-4.55,0-7.89,1.39-8.15,6.19h-5.37c.31-8.09,6.57-10.93,13.83-10.93,5.87,0,12.25,1.33,12.25,8.97v16.8c0,2.53,0,3.66,1.71,3.66.44,0,.95-.06,1.64-.31v4.17Z"/>
      <path class="st0" d="M214.2,225.65h5.37v-45.1h-5.37v45.1Z"/>
      <path class="st0" d="M282.08,275.05c-2.08,1.52-6.13,1.58-9.73,2.21-3.54.63-6.57,1.9-6.57,5.87,0,3.54,3.03,4.8,6.32,4.8,7.08,0,9.98-4.42,9.98-7.39v-5.49ZM290.8,291.79c-.95.57-2.15.89-3.85.89-2.78,0-4.55-1.52-4.55-5.05-2.97,3.47-6.95,5.05-11.5,5.05-5.94,0-10.8-2.66-10.8-9.16,0-7.39,5.49-8.97,11.05-10.05,5.94-1.14,10.99-.76,10.99-4.8,0-4.67-3.85-5.43-7.27-5.43-4.55,0-7.89,1.39-8.15,6.19h-5.37c.31-8.09,6.57-10.93,13.83-10.93,5.87,0,12.25,1.33,12.25,8.97v16.8c0,2.53,0,3.66,1.71,3.66.44,0,.95-.06,1.64-.31v4.17Z"/>
      <path class="st0" d="M254.93,260.91c-1.35-9.35-8.93-14.27-18.09-14.27-13.55,0-20.81,10.4-20.81,23.13s6.65,22.91,20.31,22.91c11.08,0,17.91-6.65,19.02-17.61h-5.85c-.56,7.26-4.99,12.67-12.68,12.67-10.53,0-14.96-8.37-14.96-18.4,0-9.17,4.44-17.78,14.89-17.78,6.1,0,11.08,3.14,12.31,9.35h5.85Z"/>
      <path class="st0" d="M60.1,260.64c-.67-6.26-4.79-8.96-10.74-8.96-4.86,0-9.71,1.79-9.71,7.49,0,5.4,6.91,6.2,13.9,7.79,6.91,1.59,13.83,4.04,13.83,12.64,0,9.33-9.04,13.07-16.93,13.07-9.71,0-17.9-4.79-17.9-15.47h5.47c0,7.36,6.06,10.55,12.62,10.55,5.22,0,10.98-1.66,10.98-7.98s-6.92-7.06-13.83-8.59c-6.92-1.53-13.9-3.56-13.9-11.6,0-8.89,7.83-12.82,15.71-12.82,8.86,0,15.6,4.23,15.96,13.87h-5.46Z"/>
    </g>
    <path class="st0" d="M101.95,180.35h6.02v19.46h23.83v-19.46h6.02v45.25h-6.02v-20.73h-23.83v20.73h-6.02v-45.25Z"/>
    <g>
      <path class="st0" d="M200.34,208.74c-2.08,1.52-6.13,1.58-9.73,2.21-3.54.63-6.57,1.9-6.57,5.87,0,3.54,3.03,4.8,6.32,4.8,7.08,0,9.98-4.42,9.98-7.39v-5.49ZM209.06,225.48c-.95.57-2.15.89-3.85.89-2.78,0-4.55-1.52-4.55-5.05-2.97,3.47-6.95,5.05-11.5,5.05-5.94,0-10.8-2.66-10.8-9.16,0-7.39,5.5-8.97,11.05-10.05,5.94-1.14,10.99-.76,10.99-4.8,0-4.67-3.86-5.43-7.27-5.43-4.55,0-7.89,1.39-8.15,6.19h-5.37c.31-8.09,6.57-10.93,13.83-10.93,5.87,0,12.25,1.33,12.25,8.97v16.8c0,2.53,0,3.66,1.71,3.66.44,0,.95-.06,1.64-.31v4.17Z"/>
      <path class="st0" d="M244.21,225.65h5.37v-18.46c0-5.88,3.17-10.25,9.67-10.25,4.12,0,6.64,2.59,6.64,6.59v22.12h5.37v-21.5c0-7.01-2.64-11.95-11.25-11.95-3.91,0-8.54,1.64-10.3,5.56h-.13v-17.26h-5.37v45.14Z"/>
      <path class="st0" d="M186.69,291.88h5.37v-45.1h-5.37v45.1Z"/>
      <path class="st0" d="M338.44,272.46c-.25-5.12-4.11-9.22-9.41-9.22-5.62,0-8.97,4.23-9.35,9.22h18.76ZM343.62,281.55c-1.45,7.2-6.63,11.12-13.96,11.12-10.42,0-15.35-7.2-15.67-17.18,0-9.79,6.44-16.99,15.35-16.99,11.56,0,15.1,10.8,14.78,18.7h-24.44c-.19,5.68,3.03,10.74,10.17,10.74,4.42,0,7.52-2.15,8.47-6.38h5.31Z"/>
      <path class="st0" d="M129.13,269.72c-.82-4.1-3.66-6.5-8.09-6.5-7.77,0-10.17,6.13-10.17,12.76,0,6.01,2.72,11.94,9.54,11.94,5.18,0,8.27-3.03,8.97-7.96h5.5c-1.2,7.96-6.19,12.7-14.41,12.7-9.98,0-15.29-6.95-15.29-16.68s5.06-17.49,15.42-17.49c7.39,0,13.32,3.47,14.08,11.24h-5.56Z"/>
    </g>
  </g>
  <g>
    <path class="st0" d="M27.79,42.59s-.01-.01,0-.01c0,0,0,0,0,.01"/>
    <path class="st0" d="M87.53,39.2c1.76,2.24,2.84,5.05,3.06,7.9h-9.53v-12.1c2.42.47,4.71,1.96,6.47,4.2M90.81,46.2c-.32-2.3-1.17-4.53-2.47-6.43.18-.12.32-.32.37-.6-.28-.03-.51.05-.67.18-.08-.12-.17-.24-.26-.35-1.61-2.05-3.65-3.48-5.83-4.12-.03-.34-.34-.51-.52-.44-.1.03-.19.12-.23.26-.03-.01-.07-.02-.11-.02-.12-.11-.29-.19-.51-.22-.02.25.05.44.16.59v.04c-.16,0-.26.08-.32.17-.1.17,0,.49.32.59v4.72c-.19.01-.38.09-.57.26.18.17.38.25.57.26v5.1c-.3.08-.42.39-.34.55.06.11.16.2.34.21v.11c-.08.13-.13.29-.14.48.18,0,.33-.05.46-.12h.13c.01.17.1.27.2.32.16.09.46-.03.55-.32h3.38c0,.2.08.4.26.59.18-.19.25-.39.26-.59h3.85c.08.34.4.46.57.37.11-.06.2-.17.2-.37h.08c.13.09.31.15.51.15-.01-.19-.06-.34-.14-.46,0-.05,0-.09-.01-.14.18-.01.28-.1.33-.21.08-.18-.07-.51-.41-.56"/>
    <path class="st0" d="M87,39.35c-.07.09-.1.21-.07.3.04.13.15.25.39.26-.15.12-.26.3-.3.56.25.03.46-.03.61-.14-.05.23.03.37.15.45.07.05.16.06.26.03.99,1.62,1.65,3.47,1.93,5.36-.11-.07-.26-.1-.43-.1,0,.21.08.37.18.51h-3.22c-.01-.17-.11-.31-.22-.35-.14-.05-.29-.02-.44.16,0-.19-.08-.4-.26-.58-.18.19-.25.39-.26.58-.15-.18-.31-.21-.44-.16-.11.04-.21.17-.22.35h-2.75c.08-.14.15-.29.15-.5-.21,0-.38.07-.5.16v-4.5c.18,0,.34-.1.39-.22.04-.14.02-.29-.16-.44.18,0,.39-.08.57-.26-.18-.18-.39-.25-.57-.26.18-.15.2-.32.16-.45-.05-.12-.21-.22-.39-.22v-3.81c.11.08.25.13.42.15.02-.2-.02-.36-.09-.49,1.9.6,3.69,1.86,5.12,3.61M90.36,46.73c-.28-2.69-1.34-5.32-2.98-7.41-.81-1.04-1.73-1.9-2.75-2.59-1.01-.68-2.08-1.17-3.19-1.45l-.2-.05v11.67h9.14l-.02-.17Z"/>
    <path class="st0" d="M88.55,44.89h0c.18-.1.32-.23.38-.37-.2.07-.34-.02-.39-.05.14-.08.31,0,.15-.25-.16-.26-.27-.27-.44-.09-.16.17-1.26-.05-1.26-.88,0,0,0,.01.01.02.08.14.21.24.35.3.53.32,1.05.12,1.09-.32.04-.46-.39-.67-.86-1.07-.2-.17-.36-.32-.48-.44-.15-.32,0-.61-.43-1.2-.02-.15-.06-.31-.13-.52-.22.39-.31,1.14.26,1.76.46.5,1.43.99,1.4,1.42-.01.11-.11.22-.28.23-.22-.01-.44-.14-.65-.33-.03-.03-.07-.06-.1-.09h0c-.41-.39-.77-.95-1.01-1.26-.46-.59-.25-1.15-.18-1.64.32-.45-.2-1.36-.5-1.58,0,0,.07-.21-.02-.48-.07.06-.2.05-.28.04-.08-.17-.12-.2-.23-.22-.2-.03-.19-.15-.21-.22-.12.1-.16.2-.27.21-.16,0-.23,0-.29.05-.11.09-.17.13-.34.12-.18,0-.18.1-.16.24.01.09.02.22.13.27.02,0,.03.01.05.02l.15.17.1-.19s0,0,0,0c.08-.07.32-.09.36.08.03.12.05.15-.1.17-.16.02-.25.02-.39.03-.1,0-.1.14-.1.23,0,.11.13.16.34.11.21-.06.6-.1.6.09,0,.5-.59.46-.7,1.05-.13-.09-.26-.19-.32-.31-.08-.15-.22-.34-.42-.53-.11-.12-.27-.25-.41-.34-.2-.11-.2-.21-.2-.41,0-.17.08-.34.07-.49,0-.02-.02-.11-.05-.15-.03-.11-.18-.19-.26-.17.04.03.1.07.1.17-.03.03-.07.08-.07.09-.04.05-.06.12,0,.17.01.02.02.02.02.03,0,.02,0,.05-.02.09,0,.03-.02.02-.02,0-.04-.12-.1-.3-.21-.31-.02,0-.06-.01-.08,0,0,0,0-.02,0-.02,0-.13-.14-.23-.29-.08.03,0,.09.02.11.05-.01.04-.03.12-.03.13-.01.13.08.18.22.18.03,0,.04,0,.04.03,0,.02.01.03.02.05,0,.03,0,.03-.02.02-.23-.1-.32,0-.33.1,0,0,0,.07,0,.1-.08.05-.1.17.05.27,0-.04-.01-.13.05-.14.01,0,.02,0,.03-.02.02.03.05.06.06.06.02,0,.05,0,.13-.04.02-.02.03-.02.05,0,.02.01.04.03.07.05.02,0,.02.02,0,.04-.15.15-.12.29.07.33-.08.16-.36.09-.34-.15-.19.31.13.54.39.43.01.12,0,.32.05.32,0-.02.02-.06.06-.06.02,0,.02.02.02.03,0,.08.03.17.14.18-.02-.05-.01-.1.02-.11.05.08.1.16.14.24.12.22.38.82.97,1.07-.3.18-.51.44-.69.67-.16.16-.4.33-.55.24-.07-.04-.08-.1-.17-.17-.07-.05-.14-.06-.18-.05,0,0-.06.02-.1.04-.1-.05-.26.02-.3.1.05-.02.12-.03.21.03,0,.04,0,.1,0,.11,0,.07.05.15.35.13.02,0,.05,0,.03.03-.03.03-.08.07-.16.05-.13-.04-.2-.15-.29-.02,0,0-.04.05-.07.08-.02,0-.02,0-.03,0-.12.04-.23.27-.1.37,0-.04.02-.13.09-.19.02.03.05.07.06.07.09.14.19.21.39-.1.02-.03.03,0,.03.01-.02.14-.15.34.03.37,0,0,.05.02.08.02,0,.02,0,.02,0,.03.04.17.26.21.34.16-.05-.02-.15-.08-.19-.2.04,0,.08,0,.09-.02.11-.1-.02-.24.03-.32.02-.03.03-.02.05,0,.04.06.13.2.29.11.08-.05.13-.13.13-.2.2-.08.38-.15.53-.09-.03-.1.1-.26.31-.32.22-.06.31,0,.38.08.02-.1.11-.25.22-.38-.02.87,1.13.85,1.41,1.36-.35-.14-.74-.22-.95-.17-.28.05-.78.31-.84.65-.05.26.22.74.5.93-.34.06-.45-.05-.76.03-.01,0-.02,0-.03,0-.26.03-.31-.44-.62-.32-.02.01-.07.05-.09.07-.12,0-.29.14-.26.27.03-.03.1-.1.2-.11v.07s.02.1.12.1c.06,0,.08-.03.12-.03.02,0,.03.02.03.04,0,.12-.39-.07-.32.26,0,0,.04.07.07.1-.02.1.07.2.24.15-.03-.02-.1-.07-.08-.12.03,0,.07,0,.08,0,.02,0,.03-.01.05-.05,0,0,0-.01.02-.01.02,0,.03.02.03.03,0,.02-.02.03-.02.07,0,0,.02.09.03.11-.02.12.16.24.33.12-.05,0-.16-.03-.17-.09.03-.02.08-.03.08-.03.03-.02.04-.07.04-.12,0-.03.02-.03.03-.03.02,0,.05,0,.08,0,.04,0,.05.02.05.03.04.07.13.14.25.1.07-.02.09-.06.11-.09.05.03.09.06.13.09-.04-.13.06-.22.33-.04l.19-.15s.26.1.36,0c.16-.15.08-.16.08-.29-.12-.26-.18-.24-.23-.49-.09-.43.51-.68.85-.61.07.28.46,1.01,1.09,1.22.4.14.56-.3.69-.24.03,0,.05.05.07.1-.03.21.02.39-.03.49-.04.1-.26.02-.4,0-.08,0-.15.05-.15.06-.12.03-.26.14-.26.27.05-.03.12-.1.22-.11,0,.03,0,.05,0,.06.02.17.21.22.32.11.01-.02.07,0,.03.02-.1.07-.27.24-.12.3,0,0,.05.03.09.05,0,.1.07.21.16.22-.03-.05-.04-.08,0-.2h.09c.11,0,.06-.21.18-.28.01,0,.03,0,.02.01-.04.12-.06.27.05.31,0,0,.05.01.09.02.03.09.15.16.3.08-.04-.02-.12-.05-.13-.1.03-.04.07-.1.08-.12.08-.26-.15-.26-.15-.37,0-.12.26-.04.26-.3,0-.01,0-.02,0-.04.12-.07.25-.15.25-.25-.14.01-.28-.03-.33-.05"/>
    <path class="st0" d="M84.1,38.58s0,0,0,0"/>
    <path class="st0" d="M76.57,51.5l-.18-.02c-.22-.02-.49.09-.51.37-.02.29.18.45.44.46h.13s-.31,2.08-.31,2.08l-2.03-2.94c.95-.38,1.72-.79,2.12-.79.33,0,.4.15.33.83M72.6,51.97c.35-.08.7-.19,1.02-.31l2.41,3.48c-.08.48-.15.98-.23,1.46l-3.2-4.64ZM75.46,58.69l-4.54-6.58c.15,0,.29,0,.41,0,.23,0,.47-.02.7-.05l3.64,5.27c-.08.51-.16.98-.22,1.35M70.33,52.16l4.98,7.22c-2.66-.98-5.31-3.46-4.98-7.23M77.75,51.59l-.23-.02v-.22c.04-.8-.44-1.4-1.3-1.4-.77,0-2.24,1-4.32,1-.88,0-1.93-.43-2.59-.82l-.26.62s0-.04,0-.06c0-.29-.23-.52-.51-.52s-.51.23-.51.52.23.52.51.52c.16,0,.31-.08.4-.2l-.26.63c.08.03.17.08.27.11-.3,3.16,1.95,7.17,6.04,8.41.6-.17,1.3-.06,1.3.61,0,.41-.21.59-.57.59-.24,0-.4-.14-.4-.31,0-.28.48-.11.53-.3.06-.26-.1-.37-.39-.37s-.71.19-.71.67c0,.57.44.9.93.9.46,0,1.42-.25,1.28-1.38.22,0,.47-.02.52-.24l.05-.65-.21-.03.16-7.25.16.02c.26.02.49-.1.51-.39.02-.29-.21-.43-.43-.45"/>
    <path class="st0" d="M76.1,36.14s0,0,0,0"/>
    <path class="st0" d="M74.92,37.1c-.1,0-.14-.13-.12-.22.04.03.23.1.34.13-.16.03-.12.09-.22.09M74.77,37.3s-.02-.09-.07-.09c-.04-.01-.04.03-.02.1-.07-.02-.13-.06-.16,0-.03.05-.02.09.02.14.02.02,0,.08-.02.14-.02.06-.1.15-.2.1-.1-.05-.08-.15-.05-.21.03-.06.05-.11.08-.11.06,0,.09,0,.11-.07.02-.07-.04-.1-.1-.14.06-.02.09-.05.06-.07-.03-.04-.1.02-.11,0-.01-.03.03-.05.05-.07.03-.03.05-.02.08,0l.27.13s.06.03.06.07c0,.03,0,.08-.02.09M74.6,36.78c-.04.07-.13.14-.21.07-.07-.07,0-.09-.08-.23.08.06.24.16.29.17M77.16,38.2c1,0,1.5-.33,1.5-.65,0-1.13-2.77-.44-2.77-1.12,0-.11.08-.21.2-.31,0,0,0,0,0,0,1.4-.1,1.45-1.11,2.45-1.3-1.21-.17-1.37.78-1.89.83.28-.13.38-.46.36-.59-.25.34-.79.36-1.08.75-.05.06-.07.14-.05.2-.18.12-.29.25-.29.41,0,1.07,2.81.34,2.81,1.11,0,.27-.49.45-1.26.45-.58,0-1-.42-2.08-.14,0-.18.36-.53.23-.69.1-.05.17-.13.18-.22-.06-.06-.13-.08-.21-.09.03-.05-.01-.11-.05-.15,0-.02-.03-.13-.06-.15-.03-.03-.12-.1-.25-.17-.13-.06-.21-.06-.25-.07-.03-.01-.15.03-.16.02-.06,0-.13,0-.14.07-.05-.05-.13-.08-.2-.09-.04.1-.06.17-.02.31-.1.01-.21.27-.3.24.03.07.07.1.09.1-.08.15-.11.34-.21.34.02.05.05.07.07.09-.09.22-.13.51-.15.64h0c-.06-.06-.13-.13-.22-.18-.16-.09-.15-.17-.13-.34.02-.14.12-.27.13-.4,0-.01-.02-.09-.03-.12-.02-.09-.13-.16-.21-.15.04.03.08.06.07.15-.03.03-.08.06-.08.07-.03.04-.06.09-.02.14.01,0,.01.02,0,.03,0,.02-.01.04-.02.07-.01.02-.02.01-.02,0-.02-.1-.05-.25-.15-.26h-.07s0-.02,0-.02c.02-.1-.1-.19-.25-.07.03,0,.08.01.1.05-.02.03-.05.1-.05.1-.02.1.06.15.18.15.03,0,.04,0,.04.02,0,.01,0,.03,0,.04,0,.02,0,.02-.02.01-.19-.08-.29,0-.31.08,0,0-.01.05-.01.08-.08.04-.11.14.01.22,0-.03,0-.1.07-.12,0,0,.02,0,.03-.01.01.02.05.04.05.05.02.01.05,0,.12-.03.02-.01.03-.02.05,0,.01,0,.03.02.05.03.01.02,0,.02,0,.03-.16.12-.16.24.02.27.02,0,.02.02.02.03-.05.23-.38.18-.33-.05-.22.26.08.46.34.33.02-.01.02,0,.03,0,.01.04.03.08.07.08,0,0,.02-.05.06-.04.02,0,.02.01.02.02,0,.07,0,.14.1.15,0-.05.02-.09.05-.09.04,0,.11.19.26.35-.22.1-.6.19-.62.19-.05,0-.38-.04-.49.02-.16.09-.55.23-.67.07-.03-.05-.02-.11-.07-.2-.04-.06-.09-.1-.13-.1,0,0-.05,0-.09,0-.06-.07-.21-.08-.26-.03.05.01.1.02.15.1-.02.03-.03.07-.04.08-.03.05-.01.13.23.22.01,0,.03.03.01.04-.03.01-.09.02-.13-.02-.1-.07-.11-.18-.23-.12,0,0-.04.02-.08.04,0,0-.02,0-.03,0-.11,0-.28.12-.2.25.02-.03.05-.1.13-.11.01.03.02.07.02.08.03.13.08.22.34.05.02-.02.02,0,.02.02-.06.11-.23.22-.1.3,0,0,.03.03.06.05,0,0-.01.02-.01.02-.03.15.13.26.22.25-.04-.03-.1-.11-.08-.22.03.01.07.02.07.02.13-.05.07-.2.14-.25.02-.02.03,0,.03.02,0,.06.04.2.19.19.14-.02.2-.13.19-.21,0,0,0,0,.01,0,.05.03.09.09.07.16.03-.02.09-.06.11-.11.03.07.03.17-.06.26.06-.02.21-.09.24-.25.02.02.05.05.05.08,0,0,0,0,.01,0,.05.02.15.03.29-.01.02,0,.02,0,.02.02-.01.06-.01.12.02.15,0-.02.04-.08.06-.08.04,0,0,.15.08.24.03-.38.24-.23.47-.38.02-.02.03,0,.02.01-.02.04-.05.09-.1.12.09,0,.29-.09.29-.22,0-.03.07-.08.15-.13.08.02.21-.03.26-.12.02.03.05.15,0,.18.25.02.51-.27.6-.29.53-.11-.33-.49.75-.43.08.01.25-.05.31-.11-.08.16-.09.49.08.52.07.01.22.06.28.12.02.02,0,.03-.01.03-.1.01-.2.04-.23.06-.26.17-.26-.39-.53-.28-.01,0-.05.04-.07.05-.11,0-.25.12-.23.24.03-.03.09-.09.18-.1,0,.03,0,.05,0,.06,0,.04,0,.09.1.09.05,0,.07-.03.11-.03.02,0,.03.02.03.03,0,.1-.33-.06-.27.22,0,.01.03.07.05.09,0,.09.06.17.21.12-.03-.02-.08-.06-.07-.1.02,0,.06,0,.07,0,.02,0,.03-.01.04-.05,0-.01,0-.01.02-.01.02,0,.03.01.03.03,0,.01-.02.03-.02.05,0,0,.02.08.03.09-.02.11.13.21.28.11-.03,0-.13-.02-.14-.08.03-.01.07-.03.07-.03.03-.02.03-.05.03-.1,0-.02.02-.02.03-.02.02,0,.05,0,.07,0,.03,0,.04,0,.05.02.03.06.11.12.21.09.18-.07.03-.22.17-.26.03,0,.07-.01.11,0,.14.03.35.03.39-.04.03-.06.02-.32-.14-.41-.09-.04.01-.15-.08-.28.16.07.32.13.53.13.39,0,.02-.06.19-.16.19-.13.41-.06.47-.05.05,0,.09.03.08.1-.05.2.02.22-.02.31-.04.08-.21.02-.32,0-.06,0-.11.04-.12.05-.1.02-.21.11-.2.22.03-.02.09-.09.17-.09,0,.01,0,.03,0,.04.02.13.16.19.25.09,0-.02.05,0,.03.02-.08.06-.22.2-.1.24,0,0,.03.02.07.04,0,.09.05.17.12.19-.02-.04-.03-.08.01-.17.02,0,.06,0,.07,0,.08,0,.04-.17.14-.22.01-.01.02,0,.02,0-.03.1-.05.22.04.25,0,0,.04,0,.07.02.02.08.12.13.24.07-.03-.01-.09-.05-.1-.09.02-.02.06-.08.06-.09.06-.21-.12-.21-.12-.3,0-.1.21-.03.21-.25,0-.03-.02-.1-.09-.12-.01,0-.01-.01,0-.02h0c.05,0,.11.02.15-.07-.15.01-.11-.12-.13-.2,0-.01,0-.02,0-.03.05-.04.09-.1.07-.22-.05.07-.21.15-.24,0,0,0-.01-.1-.16-.08-.25.02-.38-.11-.87-.15-.03,0-.05-.03,0-.03"/>
    <path class="st0" d="M72.76,43.02s0,0,0-.01t0,.01M71.99,41.37c.03-.07.06-.12.1-.12.06,0,.1-.02.12-.07.03-.07-.04-.1-.1-.15.07-.02.1-.05.07-.08-.04-.04-.11.02-.12-.01-.02-.03.04-.05.06-.07.03-.03.05-.02.1,0l.29.14s.06.04.06.08c0,.03.01.09-.02.1-.03,0-.03-.09-.08-.1-.05,0-.05.04-.02.1-.07-.02-.14-.05-.17.01-.03.05-.02.1.02.15.02.03,0,.09-.02.15-.02.07-.11.16-.21.11-.11-.06-.1-.17-.06-.24M72.34,40.6c-.05.09-.15.15-.23.07-.08-.08.01-.1-.09-.26.09.07.27.17.32.18M72.57,40.72s.26.12.37.14c-.17.03-.13.1-.24.1-.1,0-.15-.15-.13-.24M71.09,41.58c-.1-.09-.23-.24-.41-.36-.18-.1-.18-.2-.17-.39,0-.16.09-.32.09-.47,0-.01-.03-.1-.04-.14-.02-.1-.16-.19-.24-.17.04.03.09.07.09.17-.04.04-.07.08-.08.09-.03.05-.06.11,0,.16.01.02.02.02.01.03,0,.02,0,.04-.02.08,0,.03-.02.02-.02,0-.03-.12-.08-.28-.18-.29-.01,0-.06-.01-.08,0,0,0,0-.02,0-.02,0-.12-.12-.22-.27-.07.03,0,.09.01.11.05-.02.04-.04.12-.04.12-.01.13.07.17.2.17.03,0,.04.01.04.03,0,.02,0,.03.01.05,0,.03,0,.02-.02.02-.21-.09-.31,0-.32.1,0,.01,0,.06,0,.09-.08.05-.1.17.03.26,0-.04,0-.12.05-.14.01,0,.02,0,.03-.01.02.02.05.05.06.05.02.01.05,0,.12-.04.02-.01.03-.02.05,0,.02.02.04.03.06.04.02.01.01.02,0,.04-.15.14-.13.28.05.31.03,0,.03.02.03.04-.03.26-.38.22-.34-.05-.21.31.12.53.39.39.02-.02.02,0,.03,0,.01.05.03.09.08.1,0-.02.02-.06.06-.06.02,0,.02.01.02.03,0,.07.02.16.12.17-.01-.05,0-.1.04-.1.05,0,.16.2.37.33.18.08.3.27.41.15-.02.18.15.39.11.39-.05,0-.54-.03-.66.03-.17.1-.61.25-.73.07-.05-.06-.03-.12-.09-.21-.04-.07-.1-.12-.14-.12,0,0-.06,0-.1,0-.07-.07-.23-.09-.3-.03.05.01.12.02.17.11-.02.03-.04.08-.05.09-.03.06-.02.15.26.25.01,0,.04.03.01.04-.04.02-.1.02-.15-.02-.11-.08-.12-.2-.25-.12,0,0-.05.02-.08.04-.01,0-.02,0-.03,0-.12-.01-.31.14-.22.28.02-.03.06-.11.15-.13,0,.03.02.08.02.09.03.14.09.25.38.06.03-.02.03,0,.02.02-.07.12-.26.24-.11.33,0,0,.03.03.07.06-.01,0-.01,0-.02.02-.03.16.15.28.24.27-.04-.04-.11-.12-.09-.25.03.02.07.03.08.02.14-.05.08-.22.15-.27.02-.02.04,0,.04.02.01.07.04.23.21.21.15-.02.23-.15.21-.24,0-.01,0-.02.02-.01.05.03.1.09.08.18.03-.02.09-.06.12-.12.03.07.04.18-.07.29.06-.02.23-.1.26-.28.02.02.05.06.06.09,0,0,.01,0,.02-.02.06.02.16.04.33,0,.02,0,.02,0,.02.02-.02.07-.02.13.02.17,0-.02.04-.09.07-.09.05,0,0,.17.1.27.03-.42.26-.25.52-.42.03-.02.03,0,.02.02-.02.05-.05.11-.11.14.29.06.74-.37.8-.56.12-.02.22-.03.28-.02.82.07.25-.75,1.57-.52.08.02.25-.08.32-.15-.1.18-.1.54.08.58.08.01.25.07.31.13.02.02,0,.03,0,.03-.11.02-.22.04-.26.06-.28.19-.29-.42-.59-.31-.02,0-.07.04-.08.06-.12,0-.28.14-.25.26.04-.03.1-.1.2-.11,0,.03,0,.06,0,.07,0,.04.01.1.11.1.06,0,.07-.03.11-.03.02,0,.04.01.04.03,0,.11-.37-.07-.31.24,0,.01.04.08.06.1-.01.09.07.19.23.13-.03-.02-.09-.06-.08-.1.02,0,.07,0,.07,0,.02,0,.03-.01.05-.05,0-.01,0-.02.02-.02.02,0,.03.02.03.03,0,.02-.02.04-.02.07,0,0,.02.09.03.1-.02.12.15.24.31.12-.05,0-.15-.03-.16-.08.04-.02.08-.03.08-.03.02-.02.04-.07.04-.12,0-.02.02-.03.03-.03.02,0,.05,0,.08,0,.04,0,.05.01.06.02.03.07.12.14.23.1.2-.06.03-.24.19-.28.03,0,.08-.01.12,0,.16.04.39.03.43-.04.05-.08.03-.36-.15-.47-.1-.05,0-.17-.09-.31.18.07.36.14.59.14.43,0,.54-.06.73-.18.21-.13.45-.07.52-.05.06,0,.1.03.08.1-.05.22.02.25-.03.35-.04.09-.23.01-.35,0-.07,0-.13.04-.13.06-.11.02-.23.12-.23.24.04-.03.11-.09.2-.1,0,.02,0,.05,0,.05.02.15.18.2.28.1.01-.02.05,0,.03.02-.08.07-.25.22-.11.27,0,0,.05.03.08.04,0,.09.06.19.14.2-.03-.05-.03-.08.01-.19h.07c.09.01.05-.19.16-.24.02-.01.02,0,.02,0-.03.11-.05.24.04.27.01,0,.05.01.08.02.03.08.13.14.26.08-.03-.02-.1-.05-.12-.1.03-.03.07-.09.07-.1.07-.23-.13-.24-.13-.34,0-.12.22-.03.22-.27,0-.03-.02-.1-.1-.14,0,0,0-.01,0-.01h0c.07,0,.13.02.16-.08-.16.02-.11-.13-.14-.22,0-.02,0-.03,0-.04.05-.04.1-.11.08-.25-.05.07-.25.17-.26,0,0,0-.01-.12-.18-.09-.28.03-.48-.03-1.02-.08.62,0,1.52-.16,1.52-.51,0-.3-.32-.48-1.26-.48s-3.06.35-3.06-.18c0-.27.41-.24.91-.22.03.05.1.09.2.11,1.21.36,2.63-.29,3.37-.08-.86-.66-1.58.02-2.5-.18.54,0,.72-.16.75-.3-.42.27-1.21-.14-1.7.17-.03.02-.06.04-.08.07-.67-.02-1.21-.02-1.21.43,0,.95,2.52.39,3.3.39s.96.08.96.23c0,.22-.78.28-1.23.28-.69,0-2.74-.36-3.99-.1.1-.21.32-.47.2-.62.11-.05.19-.14.2-.24-.07-.07-.16-.09-.23-.11.03-.05-.01-.12-.06-.17-.01,0-.04-.14-.07-.16-.05-.04-.14-.12-.28-.19-.13-.07-.23-.07-.28-.09-.03,0-.16.03-.17.03-.07,0-.15,0-.16.07-.06-.05-.14-.08-.22-.09-.05.11-.07.2-.03.34-.11,0-.23.3-.33.26.04.08.07.11.1.12-.09.17-.13.37-.24.37.07.09.11.14.15.14-.02.13-.02.26-.02.37l-.2-.07-.17-.06h0Z"/>
    <path class="st0" d="M71.55,44.93c-.11,0-.15-.15-.13-.24.04.03.26.12.36.15-.16.03-.13.1-.23.1M71.38,45.14s-.02-.09-.08-.1c-.05,0-.05.04-.02.11-.07-.02-.14-.06-.18,0-.03.06-.02.1.02.15.02.02,0,.08-.02.15-.03.07-.11.17-.21.11-.11-.06-.1-.18-.07-.24.03-.06.06-.11.09-.11.07,0,.1-.01.12-.07.03-.08-.04-.11-.11-.15.07-.02.11-.05.07-.09-.04-.04-.11.03-.13,0-.01-.03.04-.05.06-.08.03-.03.06-.02.1,0l.29.14s.06.03.06.08c0,.03.01.09-.02.1M71.19,44.57c-.05.08-.15.15-.23.07-.08-.08,0-.1-.09-.25.1.06.27.18.32.19M71.7,47.08s.1-.02.15-.03c0,0-.01.05-.02.05.28.02.24-.25.35-.23,1.54.2.65-.67,2.47-.49.08,0,.12-.04.2-.11-.09.18-.1.47.08.51.08.02.25.07.31.14.02.02,0,.03-.01.03-.1.02-.22.04-.25.07-.28.19-.29-.42-.59-.31-.02,0-.06.04-.08.05-.12,0-.28.15-.25.27.03-.04.1-.1.19-.1,0,.02,0,.05,0,.06,0,.05.01.1.11.1.06,0,.08-.03.12-.03.02,0,.03.02.03.03,0,.12-.37-.07-.3.26,0,0,.04.07.06.09-.01.1.06.19.23.14-.03-.02-.09-.06-.08-.12.02,0,.07,0,.07,0,.02,0,.03-.01.04-.05,0,0,0-.02.02-.02.02,0,.03.02.03.03s-.02.03-.02.07c0,.01.02.09.03.1-.02.12.15.23.32.12-.04,0-.15-.03-.16-.09.03-.02.07-.03.07-.03.03-.02.04-.06.04-.12,0-.03.02-.03.03-.03.02,0,.05,0,.08,0,.03,0,.04,0,.05.02.03.07.12.14.23.1.2-.07.03-.25.19-.28.03,0,.08-.02.12,0,.16.04.39.03.43-.04.04-.08.02-.36-.15-.46-.09-.05,0-.17-.09-.32.18.07.36.15.59.15.43,0,.54-.06.73-.19.21-.13.46-.07.52-.05.06,0,.1.04.08.11-.05.23.02.25-.02.35-.04.09-.23.02-.36,0-.08,0-.13.05-.13.06-.11.03-.23.12-.23.25.04-.03.11-.1.19-.1,0,.02,0,.04.01.05.01.15.18.2.28.1.02-.01.06,0,.03.02-.08.07-.24.22-.11.27,0,0,.04.02.08.04,0,.09.07.19.14.2-.02-.05-.03-.09,0-.19.03,0,.07,0,.08,0,.09,0,.05-.19.15-.26.02,0,.02,0,.02,0-.03.11-.06.25.04.28,0,0,.05.02.08.02.03.08.13.15.26.08-.03-.02-.1-.05-.11-.09.03-.03.06-.09.07-.1.07-.23-.13-.24-.13-.33,0-.11.23-.04.23-.27,0-.04-.02-.12-.1-.14,0,0,0-.01,0-.02h0c.07,0,.13.02.16-.07-.17.01-.11-.14-.14-.23,0-.01,0-.02,0-.04.05-.04.1-.11.07-.25-.05.08-.24.17-.26.01,0-.01-.02-.12-.18-.09-.28.03-.48-.03-1.02-.08.54-.04,1.52-.15,1.52-.51,0-.29-.32-.47-1.26-.47s-3.83.35-3.83-.19c0-.34.98-.2,1.69-.18.03.05.1.1.21.14,1.21.34,2.48-.47,3.35-.18-.69-.62-1.58.07-2.49-.12.53,0,1.1-.11,1.13-.26-.42.27-1.6-.19-2.09.13-.03.02-.06.04-.08.07-.88-.01-1.98-.12-1.98.42,0,.95,3.29.39,4.08.39s.96.08.96.23c0,.23-.78.28-1.23.28-.73,0-3.81-.41-5.03-.03.07-.21.37-.53.23-.68.11-.05.2-.14.2-.24-.07-.07-.15-.1-.23-.11.03-.05-.01-.12-.06-.17-.01,0-.03-.14-.07-.16-.05-.03-.14-.12-.28-.19-.14-.07-.23-.07-.28-.08-.03-.01-.16.03-.17.03-.07-.01-.15-.01-.16.07-.05-.06-.13-.09-.21-.09-.05.1-.07.19-.03.34-.11,0-.23.29-.33.26.04.08.07.12.1.12-.09.17-.13.37-.24.37.04.06.07.09.1.12-.02.09-.03.19-.03.29l-.1-.04c-.06,0-.13,0-.15,0-.04-.01-.09-.02-.15-.03-.15,0-.26-.25-.51-.41-.18-.1-.19-.2-.19-.39,0-.17.08-.31.07-.47,0-.02-.03-.1-.05-.14-.03-.11-.17-.19-.25-.17.05.03.09.08.1.17-.03.03-.07.08-.07.09-.03.04-.05.11,0,.16.02.01.02.02.02.03,0,.02,0,.04-.02.07,0,.03-.02.02-.02,0-.04-.12-.1-.29-.2-.29-.01,0-.06,0-.07,0v-.02c0-.12-.13-.22-.28-.07.03,0,.09.02.11.05-.01.04-.03.12-.03.12,0,.12.08.17.22.17.02,0,.03.01.04.02,0,.02.01.03.02.05,0,.02,0,.02-.02.02-.21-.1-.31,0-.31.1,0,0,0,.06,0,.09-.08.06-.1.17.05.26,0-.03,0-.12.05-.13.01,0,.02,0,.03-.02.02.03.05.05.06.06.02,0,.05,0,.12-.04.02-.02.03-.02.05,0,.02.01.04.02.07.04.02.01.01.02,0,.03-.15.14-.12.28.07.31.02,0,.03.02.03.04-.02.27-.36.22-.35-.05-.19.31.15.53.41.39.02-.02.02,0,.03,0,.01.05.04.09.09.1,0-.02.02-.05.06-.05.02,0,.02,0,.02.03,0,.07.03.16.13.17-.02-.06,0-.11.03-.11.05,0,.25.37.62.58.07-.02.18-.02.21-.11,0,.03.04.07.08.09.02.18.13.4.09.4-.05,0-.65-.03-.78.04-.18.09-.6.25-.74.07-.04-.07-.03-.12-.08-.22-.05-.07-.1-.11-.14-.11,0,0-.06,0-.1,0-.08-.09-.24-.09-.3-.04.05.01.11.03.17.11-.02.03-.04.08-.05.09-.03.06-.02.15.26.25.02,0,.04.03.02.04-.04.02-.1.03-.16-.01-.1-.09-.12-.21-.25-.14,0,0-.05.03-.08.04-.01,0-.02,0-.03,0-.12-.01-.3.14-.22.28.02-.04.07-.11.15-.13,0,.04.02.07.03.08.02.15.08.26.38.06.03-.02.03.01.02.02-.06.11-.26.24-.11.33,0,0,.03.03.07.05,0,.01,0,.02-.01.03-.03.16.14.29.24.28-.04-.05-.11-.13-.08-.25.03.02.07.03.08.03.14-.05.08-.22.15-.28.02-.01.04,0,.04.02,0,.07.04.22.21.2.15-.01.23-.14.21-.23,0,0,0-.02.02,0,.05.03.1.09.08.17.02-.01.09-.05.12-.12.03.08.04.19-.07.29.07-.02.23-.1.27-.28.03.03.05.07.06.09,0,0,.01,0,.02,0,.05.02.16.03.33,0,.02,0,.02,0,.02.02-.01.06-.01.14.02.17,0-.02.04-.08.07-.08.05,0,0,.16.09.26.04-.42.53-.2.79-.37.03-.02.03-.02.02.01-.02.04-.05.1-.11.14.08,0,.2-.04.29-.1.17-.07.48-.2.46-.31"/>
    <path class="st0" d="M82.98,51.03c.03-.07.06-.12.1-.12.06,0,.1-.02.12-.08.03-.07-.04-.1-.1-.14.07-.02.1-.05.07-.09-.04-.04-.11.03-.13,0,0-.03.04-.06.07-.08.03-.03.05-.02.09,0l.3.14s.06.04.06.08c0,.03.01.08-.02.1-.03.01-.03-.09-.08-.1-.05,0-.05.04-.01.11-.08-.02-.14-.05-.18.01-.02.06-.02.1.03.15.02.03,0,.08-.02.15-.03.07-.11.16-.21.1-.11-.06-.09-.17-.06-.24M83.33,50.27c-.05.09-.15.15-.23.07-.08-.08,0-.1-.09-.26.09.07.27.18.32.19M83.56,50.39s.26.12.37.14c-.17.03-.13.1-.24.1-.11-.01-.15-.15-.13-.24M90.34,52.15s0-.03.01-.04c.06-.03.1-.11.1-.25-.06.08-.26.17-.26.01,0,0,0-.12-.18-.09-.28.02-.56-.03-1.09-.09-.03,0-.06-.02,0-.03.65-.04,1.52-.12,1.52-.48,0-.3-.32-.48-1.26-.48s-3.82.34-3.82-.19c0-.34.97-.2,1.69-.18.03.05.1.1.21.13,1.21.35,2.59-.56,3.32-.35-.95-.34-1.55.25-2.47.05.54,0,1.1-.11,1.13-.25-.42.27-1.59-.19-2.09.12-.03.02-.06.05-.08.08-.9-.02-1.98-.13-1.98.41,0,.95,3.29.39,4.09.39s.95.09.95.24c0,.22-.78.28-1.23.28-.74,0-3.81-.41-5.03-.04.07-.21.37-.53.23-.69.11-.05.19-.14.2-.24-.07-.07-.15-.09-.23-.1.04-.06,0-.12-.05-.17-.02-.02-.04-.14-.07-.16-.05-.04-.14-.12-.28-.19-.13-.07-.23-.07-.28-.08-.04,0-.16.03-.17.03-.07,0-.15,0-.16.07-.06-.06-.14-.09-.22-.1-.05.11-.07.2-.03.34-.11,0-.23.29-.33.26.04.08.07.11.1.12-.09.17-.13.37-.23.37.07.09.11.14.15.14-.01.09-.02.19-.02.28l-.16-.05c-.06,0-.13,0-.15,0-.04-.02-.09-.02-.15-.03-.15-.01-.26-.25-.51-.4-.18-.11-.19-.2-.19-.4,0-.16.08-.31.07-.46,0-.02-.03-.11-.05-.15-.03-.1-.17-.18-.25-.16.04.03.09.07.1.17-.04.03-.07.08-.07.09-.03.05-.05.11,0,.16.02.02.02.02.02.03,0,.02,0,.05-.02.08,0,.03-.01.02-.02,0-.04-.12-.1-.29-.2-.29-.02,0-.06,0-.08,0,0,0,0-.02,0-.02,0-.12-.13-.22-.28-.07.03,0,.09,0,.11.05-.01.04-.03.12-.03.12,0,.12.08.17.21.17.02,0,.04.01.04.03,0,.02.01.03.02.05,0,.02,0,.02-.02.02-.21-.1-.31,0-.31.1v.09c-.07.05-.09.17.05.25,0-.03,0-.12.05-.14.01,0,.02,0,.03-.01.02.02.05.05.06.05.02.01.05,0,.13-.05.02,0,.03,0,.05,0,.02.02.04.03.07.04.02.02.01.03,0,.04-.15.14-.12.28.07.31.03,0,.03.02.03.04-.02.27-.37.22-.35-.05-.2.31.15.54.4.38.02-.01.03,0,.03.01.01.05.04.09.09.1,0-.02.02-.05.05-.05.02,0,.02.01.02.03,0,.07.03.16.13.17-.02-.05,0-.1.03-.1.05,0,.22.39.6.61-.01-.04.15-.1.23-.14.02.07.05.14.13.17l.07-.03c-.03.18.19.36.15.36-.06,0-.42-.05-.54.02-.18.1-.6.26-.74.07-.04-.07-.03-.12-.09-.22-.04-.07-.1-.12-.14-.12h-.1c-.08-.07-.24-.09-.3-.03.06,0,.12.02.17.11-.02.03-.04.08-.05.09-.04.06-.02.15.26.25.02,0,.04.03.02.04-.04.02-.1.03-.15-.02-.11-.08-.12-.2-.25-.12,0,0-.05.02-.08.03-.01,0-.02,0-.03,0-.12,0-.3.14-.22.28.02-.03.06-.11.15-.12.01.03.03.08.03.09.03.15.09.25.37.06.03-.02.03,0,.02.02-.07.12-.26.24-.11.33,0,0,.03.03.06.05,0,.01-.01.02-.01.03-.02.16.15.28.24.28-.04-.05-.1-.13-.09-.25.03.02.07.03.08.02.14-.05.07-.22.15-.28.02-.02.03,0,.03.02.02.07.04.23.21.21.16-.02.23-.14.21-.23,0-.02,0-.02.02-.02.06.04.1.1.08.18.03-.02.09-.06.12-.12.03.08.04.19-.07.29.07-.02.23-.1.27-.28.02.03.05.07.06.09,0,0,0,0,.01-.02.05.02.16.03.33,0,.02,0,.02,0,.02.02-.02.06-.02.14.02.17,0-.02.04-.09.07-.09.05,0,0,.17.09.27.04-.42.26-.25.52-.43.03-.02.03,0,.03.02-.02.05-.05.1-.11.14.1.08.48-.17.48-.32,0-.04.15-.05.27-.08.27.02.23-.2.34-.19,1.54.2.65-.67,2.46-.49.09,0,.13-.1.2-.17-.1.17-.1.54.08.57.08.01.25.07.31.13.01.02,0,.03-.02.03-.11.01-.22.04-.25.07-.28.19-.29-.43-.59-.32-.02,0-.07.05-.08.07-.12,0-.28.14-.25.26.03-.03.1-.09.19-.1v.06s.02.1.11.1c.06,0,.07-.03.11-.03.02,0,.03.02.03.03,0,.12-.37-.06-.3.25,0,.01.04.07.06.1-.02.09.07.19.23.14-.03-.03-.09-.07-.08-.12.03,0,.07,0,.08,0,.01,0,.03-.01.04-.05,0,0,0-.01.02-.01.02,0,.03.02.03.03,0,.02-.03.03-.02.07,0,0,.02.09.03.1-.02.11.15.24.32.12-.05,0-.15-.03-.17-.09.03-.02.08-.03.08-.03.03-.02.04-.06.04-.11,0-.03.02-.03.03-.03.02,0,.05,0,.08,0,.04,0,.05.02.05.02.04.07.12.14.24.1.2-.07.02-.24.19-.28.03,0,.08,0,.12,0,.16.04.39.04.43-.04.05-.08.02-.36-.15-.46-.1-.05,0-.17-.08-.32.17.07.35.14.59.14.43,0,.56-.06.77-.18.22-.14.46-.07.52-.05.05,0,.09.03.07.11-.07.22,0,.25-.05.35-.05.09-.23.01-.36,0-.07,0-.13.04-.13.06-.11.02-.24.12-.25.24.03-.03.11-.09.2-.1v.05c0,.15.17.2.27.1.02-.02.06,0,.03.03-.1.06-.26.21-.14.27,0,0,.04.02.07.04-.02.09.05.19.12.2-.02-.05-.02-.08.03-.18h.08c.1,0,.07-.19.18-.25.02,0,.03,0,.02.01-.05.1-.08.24.02.27,0,0,.05.01.08.02.02.08.12.15.26.08-.03-.01-.1-.05-.11-.09.03-.03.07-.09.08-.1.08-.24-.11-.24-.1-.34,0-.11.23-.03.25-.27,0-.03,0-.1-.08-.14t0-.01c.07,0,.13.02.17-.08-.17.01-.1-.13-.12-.22"/>
    <path class="st0" d="M82.93,54.79c.03-.06.06-.11.09-.11.06,0,.09,0,.11-.07.03-.07-.04-.1-.1-.15.07-.02.1-.05.07-.08-.04-.04-.1.03-.11,0-.02-.03.03-.05.05-.07.03-.03.05-.02.09,0l.29.14s.05.03.05.08c0,.02.02.09-.02.09-.03.01-.02-.09-.07-.09-.05-.01-.05.04-.02.1-.07-.02-.13-.06-.16,0-.03.05-.02.1.03.14.02.03,0,.08-.02.14-.02.07-.1.15-.2.11-.1-.06-.09-.17-.06-.23M83.26,54.06c-.05.08-.15.15-.22.07-.07-.08,0-.1-.08-.24.09.06.26.16.31.17M83.47,54.17s.25.11.35.14c-.16.03-.12.1-.22.09-.1,0-.15-.14-.13-.24M86.18,54.12c.02.06.09.11.21.15,1.16.34,2.47-.54,3.17-.33-.91-.32-1.48.23-2.35.05.51,0,1.05-.1,1.08-.24-.4.26-1.52-.18-1.99.12-.03.02-.05.04-.07.06-.48-.01-1.16-.02-1.16.41,0,.9,2.4.37,3.15.37.57,0,.67.08.67.22,0,.22-.86.27-1.28.27-.65,0-2.61-.34-3.8-.1.1-.2.31-.45.19-.59.11-.05.18-.14.19-.23-.07-.06-.15-.09-.22-.1.03-.05-.01-.12-.05-.16-.02-.01-.04-.14-.07-.15-.04-.03-.13-.11-.26-.17-.13-.07-.21-.07-.26-.08-.03,0-.15.03-.16.02-.07,0-.14,0-.15.07-.05-.05-.13-.08-.21-.09-.05.1-.07.18-.03.32-.11.01-.22.28-.32.25.04.07.07.11.1.11-.09.17-.12.36-.23.36.03.05.07.08.09.1-.03.11-.05.23-.06.34l-.1-.03s-.03,0-.05,0c-.14,0-.23,0-.47-.14-.18-.1-.18-.19-.18-.37,0-.16.07-.3.06-.44,0-.02-.02-.1-.04-.14-.03-.1-.16-.18-.24-.16.04.03.09.07.1.16-.03.03-.07.07-.07.08-.03.05-.05.11,0,.16.02,0,.02.02.02.03,0,.02,0,.04-.02.08,0,.03-.01.01-.02,0-.03-.12-.09-.28-.19-.29,0,0-.05,0-.07,0,0,0,0-.01,0-.03,0-.11-.13-.2-.26-.06.03,0,.08.01.1.04-.01.03-.03.1-.03.12,0,.12.08.16.21.17.02,0,.03,0,.04.02,0,.02,0,.03.02.05,0,.02-.01.02-.02.01-.2-.09-.29,0-.29.09,0,0,0,.06,0,.09-.07.05-.09.15.04.24,0-.04,0-.11.05-.13,0,0,.02,0,.03,0,.02.02.05.04.05.05.02.01.05,0,.12-.04.02,0,.03,0,.05,0,.02.02.04.03.06.04.02.01.02.02,0,.03-.14.14-.11.27.07.3.02,0,.03.02.03.05-.02.25-.35.2-.33-.05-.18.29.14.51.39.36.02-.01.02,0,.02,0,.02.05.04.09.08.1,0-.02.02-.06.05-.06.02,0,.02.02.02.03,0,.06.02.15.12.16-.01-.05,0-.1.03-.1.04,0,.04-.11.34.06.02.05.06.1.11.12l.23-.04c-.03.17.02.44-.02.44-.05,0-.4-.05-.51.02-.17.09-.58.24-.7.07-.05-.06-.03-.12-.09-.21-.03-.06-.09-.1-.13-.11h-.1c-.07-.07-.22-.09-.28-.03.05,0,.11.02.16.1-.02.03-.04.08-.05.09-.03.06-.02.14.25.24.01,0,.03.03.01.04-.03.02-.09.02-.14-.02-.1-.08-.12-.19-.24-.13,0,0-.05.02-.08.04,0,0-.02-.01-.03-.01-.11,0-.29.14-.21.27.02-.03.07-.11.15-.12,0,.03.02.07.03.08.02.14.08.24.35.06.03-.02.03,0,.02.02-.06.11-.24.23-.11.32,0,0,.03.03.07.05,0,0,0,.02-.01.03-.02.15.14.27.23.26-.04-.04-.1-.12-.09-.23.03,0,.07.03.08.02.12-.05.07-.22.14-.26.02-.01.03,0,.04.02,0,.07.03.21.2.2.15-.02.22-.14.2-.22,0,0,0-.02.02,0,.05.03.09.09.08.17.03-.02.09-.05.11-.12.03.07.04.18-.06.28.06-.02.22-.1.25-.27.03.02.05.06.06.08t.02-.02c.05.02.15.04.31,0,.02,0,.02,0,.02.02-.02.07-.02.13.02.17,0-.02.04-.08.06-.08.05,0,0,.16.09.25.03-.39.35-.3.6-.46.03-.02.03-.02.02.01-.01.05-.05.1-.1.13.27.17.54-.2.62-.41.03-.02.06-.05.07-.08.02.04.02.08-.04.11.26.02.23-.18.33-.18.78.08.18-.65,1.44-.44.08.02.24-.07.31-.14-.09.17-.1.51.08.54.08.01.24.07.3.12.02.02,0,.03-.02.03-.1.01-.21.04-.24.06-.26.18-.27-.4-.56-.29-.01,0-.06.04-.08.06-.11,0-.27.14-.24.25.03-.03.09-.09.18-.11,0,.03,0,.06,0,.07,0,.04.01.09.11.09.06,0,.07-.03.11-.03.02,0,.03.01.03.03,0,.11-.35-.06-.29.24,0,.01.04.07.06.09-.01.09.06.18.22.13-.03-.02-.08-.06-.07-.11.02,0,.06,0,.07,0,.02,0,.03-.01.04-.05,0-.01,0-.02.02-.02.01,0,.03.02.03.03,0,.02-.02.03-.02.07,0,0,.02.08.03.09-.02.11.15.22.3.12-.05,0-.15-.03-.16-.08.03-.02.07-.03.08-.03.02-.02.03-.06.03-.1,0-.03.02-.03.03-.03.02,0,.05,0,.07,0,.03,0,.05,0,.05.02.03.07.11.13.22.09.19-.06.03-.24.18-.26.03-.01.08-.02.12,0,.15.04.37.03.41-.03.04-.08.02-.35-.15-.44-.09-.05.01-.16-.08-.3.17.07.34.14.56.14.41,0,.6-.06.81-.17.23-.13.44-.07.51-.05.05,0,.08.03.05.1-.1.21-.03.24-.1.34-.07.08-.23.02-.34,0-.07,0-.13.04-.14.06-.11.02-.25.11-.28.23.05-.03.13-.09.21-.1,0,.02,0,.04,0,.04-.02.15.13.2.24.1.01-.02.05,0,.02.02-.1.07-.28.2-.18.26.01,0,.04.02.07.03-.03.09.01.19.08.2-.02-.05-.02-.08.05-.18.03,0,.07,0,.07,0,.08,0,.1-.18.21-.24.02,0,.03,0,.02.01-.06.1-.11.23-.03.26,0,0,.04,0,.07,0,0,.09.09.15.23.08-.02-.01-.08-.05-.09-.09.04-.03.09-.08.09-.1.12-.22-.06-.22-.03-.32.02-.1.22-.03.28-.26,0-.04,0-.11-.06-.15,0,0,0,0,0,0h0c.06,0,.12.02.17-.07-.16.02-.08-.13-.08-.21,0-.02,0-.03.02-.04.06-.03.11-.11.13-.24-.07.07-.27.16-.25,0,0,0,.02-.11-.15-.08-.28.02-.67-.03-1.18-.08-.03,0-.06-.03,0-.03.51-.04,1.57-.09,1.57-.5,0-.19-.13-.46-.96-.41-.9.04-2.91.34-2.91-.17,0-.26.55-.22.86-.2"/>
    <path class="st0" d="M83.24,58.2c-.1,0-.14-.14-.11-.22.03.03.23.1.33.13-.15.03-.11.1-.21.09M83.09,58.39s-.02-.08-.07-.09c-.04,0-.04.03-.02.1-.07-.02-.13-.05-.16,0-.03.06-.02.09.02.14.02.03,0,.08-.02.14-.02.06-.1.15-.2.1-.09-.06-.08-.16-.06-.22.03-.05.06-.1.09-.1.06,0,.09-.01.11-.07.02-.07-.04-.09-.1-.13.07-.02.1-.04.06-.08-.03-.04-.1.03-.1,0-.02-.03.03-.05.05-.07.03-.03.05-.02.09,0l.26.12s.06.04.06.07c0,.03,0,.08-.02.09M82.92,57.87c-.04.07-.13.14-.21.06-.07-.07,0-.09-.08-.23.08.06.24.16.29.17M85.28,57.87c.03.06.09.12.22.15,1.14.33,2.46-.54,3.16-.34-.91-.31-1.48.24-2.35.05.51,0,1.05-.11,1.08-.25-.39.26-1.52-.17-1.99.12-.04.02-.07.05-.09.09-.36.08-.66.27-.66.53,0,.34.43.44,1.25.41.8-.03,1.7-.13,1.7.02,0,.2-.57.4-1.35.4-.59,0-1.61-.4-2.88-.07v-.02c.09-.22.36-.55.25-.69.1-.04.17-.13.17-.22-.06-.06-.14-.09-.21-.09.04-.05,0-.11-.05-.15,0,0-.03-.13-.06-.15-.04-.03-.12-.11-.25-.17-.13-.06-.21-.05-.26-.07-.03,0-.14.03-.15.03-.06,0-.13,0-.15.07-.05-.05-.11-.08-.19-.09-.04.1-.06.18-.03.31-.1,0-.21.27-.3.24.03.07.06.1.09.1-.08.15-.11.34-.21.34.04.06.08.09.11.11-.06.23-.08.52-.05.72-.18-.19-.45-.62-.63-.73-.16-.09-.17-.18-.17-.35,0-.15.07-.29.06-.43,0-.01-.02-.09-.04-.13-.03-.09-.15-.17-.22-.15.03.03.08.07.09.15-.03.03-.07.07-.07.08-.03.04-.04.1,0,.15,0,.01,0,.02,0,.03,0,.01,0,.04,0,.07,0,.03-.02.01-.02,0-.04-.11-.09-.26-.18-.27,0,0-.05,0-.07,0,0,0,0-.02,0-.02,0-.1-.12-.19-.25-.06.03,0,.08.02.1.04-.01.03-.03.11-.03.11-.01.11.07.16.19.16.02,0,.03,0,.04.02,0,.02,0,.03.01.05,0,.02,0,.02-.02,0-.2-.08-.28.01-.28.09,0,0,0,.06,0,.08-.07.05-.08.15.05.23,0-.04,0-.11.04-.12,0,0,.02-.01.03-.02.02.02.05.05.05.05.02.01.05,0,.12-.04.01,0,.02,0,.04,0,.02.01.03.02.06.04.01,0,0,.02,0,.03-.13.13-.11.25.07.29.02,0,.03.02.03.04-.02.24-.34.19-.32-.05-.17.27.14.49.37.34.02,0,.02,0,.02.01.02.05.04.08.08.09,0-.02.01-.05.05-.05.02,0,.02.01.02.02,0,.07.03.15.11.16-.02-.05,0-.1.03-.1.05,0,0,.37.34.57.06.21.23.32.41.3.06.14.14.28.12.28-.05,0-.46-.04-.57.01-.05.04-.16.08-.31.12,0,0-.07.02-.07.02-.12.02-.23.02-.28-.07-.03-.05-.03-.11-.08-.19-.04-.07-.09-.1-.13-.11,0,0-.06,0-.1,0-.06-.06-.21-.07-.26-.02.05,0,.1.02.15.1-.01.03-.03.07-.04.08-.03.05,0,.14.24.23.01,0,.03.02.01.03-.04.02-.09.02-.14-.02-.09-.08-.11-.19-.22-.12,0,0-.05.02-.08.04,0,0-.02-.01-.03-.01-.11,0-.28.13-.2.26.02-.04.05-.1.14-.12,0,.03.02.07.02.08.03.14.08.23.34.06.03-.02.03,0,.02.02-.06.11-.24.22-.1.3,0,0,.03.03.06.05,0,0,0,.02,0,.03-.03.15.13.25.21.25-.03-.04-.1-.12-.08-.22.03.01.07.02.08.02.12-.05.06-.2.13-.25.02-.01.03,0,.04.02,0,.06.03.2.19.19.13-.01.2-.13.2-.21,0,0,0-.02,0,0,.05.03.09.08.08.16.02-.01.08-.05.11-.11.03.07.03.17-.07.26.06-.02.21-.09.24-.25.03.02.05.05.05.08,0,0,0,0,.02-.01.05.02.15.03.29,0,.02,0,.02,0,.02.02-.01.06-.01.12.02.15,0-.02.04-.08.07-.08.04,0,0,.14.08.24.03-.37.24-.22.47-.38.03-.02.03-.01.03.01-.02.04-.04.09-.1.12.09,0,.35-.12.35-.26,0-.05.17-.2.22-.65.03,0,.06,0,.1,0,.31-.03.46-.26.77-.27-.07.09-.11.31-.1.45.01.18.23.37.29.42.01.02,0,.02-.01.03-.1.01-.2.04-.23.06-.25.17-.26-.37-.52-.27-.02,0-.06.03-.07.05-.11,0-.26.13-.23.24.03-.04.09-.09.17-.1,0,.02,0,.05,0,.06,0,.04.01.09.1.09.05,0,.07-.03.1-.03.02,0,.03.02.03.03,0,.1-.34-.06-.27.22,0,0,.03.06.05.08-.01.09.06.17.21.13-.03-.02-.08-.06-.07-.11.03,0,.06,0,.07,0,.01,0,.03,0,.04-.04,0,0,0-.02.02-.02.02,0,.03.02.03.03,0,.02-.02.03-.02.07,0,0,.02.08.03.09-.02.1.13.21.28.1-.04,0-.14-.02-.15-.07.03-.02.07-.03.07-.03.02-.02.03-.06.03-.1,0-.03.02-.03.02-.03.02,0,.05,0,.07,0,.03,0,.04.01.05.02.03.07.11.12.21.09.18-.06.03-.22.17-.25.03-.01.07-.02.11,0,.14.03.26.05.29-.02.04-.07.02-.33-.14-.41-.09-.05.13-.62-.3-.88.21.05.86.14.97-.02.2.04.42.18.44.22.03.03.04.08-.02.12-.18.11-.15.17-.24.2h-.01c-.06-.05-.12-.14-.18-.17-.06-.03-.13,0-.13,0-.1-.02-.24.01-.28.12.04-.01.12-.03.2-.01-.01.02-.01.04-.02.05,0,.03,0,.06.04.09h0,0s0,0,0,0c.01,0,.01.02,0,.02-.1-.02-.29-.03-.25.1,0,0,.01.04.02.07-.07.06-.09.16-.05.22.02-.05.03-.07.13-.11.01.02.03.04.05.05.05.07.15-.08.26-.05,0,0,.02.02,0,.02-.1.04-.19.11-.15.2,0,0,.02.03.04.06-.04.07-.02.18.11.22,0-.03-.03-.09-.02-.14.04,0,.1,0,.11-.02.19-.1.07-.23.13-.3.07-.06.16.13.31-.01.03-.02.07-.09.03-.15,0-.01,0-.02,0-.02h0s.07.1.15.06c-.11-.1.02-.15.06-.23,0-.02.02-.02.03-.02.06,0,.13,0,.21-.11-.08.02-.3-.12-.16-.17.2-.08.23-.18.15-.29-.15-.2-.48-.21-.49-.44.14,0,.26,0,.29,0,1,.01,1.63-.28,1.62-.59-.01-.26-.28-.36-1-.31-.88.06-2.02.17-2.02-.13,0-.15.2-.27.42-.35"/>
    <path class="st0" d="M53.45,16.6c-.9.71-2.09.06-2.63-.87,1.23-.51,2.66-1.09,3.63-1.7-.89,1.38-.28,2-1,2.57M53.25,26.04c-1.16.51-2.06-.52-2.28-1.22-.22-.71-.41-1.28-.14-1.55.5-.49.66-.88.36-1.51-.35-.72-1.1-.37-1.91-.18.38-.69.41-1.17-.11-1.11-.61.07-.62,1.07-.96.95-.34-.12-.15-.7-.15-1,0-.43.28-.58.7-.77l3.35-1.28c.43-.16.73-.24,1.03.06.21.22.75.5.59.83-.16.33-.86-.39-1.36,0-.41.32-.05.65.69.87-.72.42-1.5.71-1.25,1.47.21.65.58.82,1.29.83.38,0,.65.55.96,1.21.33.66.42,1.86-.82,2.4M46.87,19.21c-.9.08-.88-.79-2.47-1.18,1.12-.23,2.55-.8,3.79-1.27.23,1.05-.19,2.35-1.33,2.45M64.21,46.8c-.15-1-.03-1.95-1.16-3.28-1.11-1.3-4.79-5.4-5.95-6.73.29-.03.64.03,1.36.71.44.42,1.55,1.51,2.34,2.29.98-2.59,2.41-4.98,4.22-7.04.33-.36.65-.71.99-1.05-.8.2-1.63.54-2.35,1.03-.05-1.14-.31-2.22-1.08-2.94.29-1.6.04-3.53-3.51-5.9,1.81.44,2.89,2.1,4.27.83-1.24-.04-1.27-2.79-5.77-5.06,1.72-.04,3.06,2.76,5.05,1.17-1.88-.23-2.5-3.59-5.87-4.62,1.17.14,2.38.71,3.38-.66-1.17.28-1.86-.82-3.12-.91.47-1.47.36-2.38-.14-3.48-.88.06-1.78.34-2.43.87-.1-.81-.94-.86-1.69-.8.04.35.2.86-.18.93-.6.12-2.61.66-4.16,1.27-1.55.61-3.32,1.72-3.84,2.08-.31.22-.58-.29-.77-.53-.55.47-1.08,1.08-.68,1.69-.86.08-1.81.3-2.62.95,0,1.01.83,1.99,2.07,2.54-2.08,2.09-.2,4.03-2.03,5.85,2.58.1,2.13-3.53,3.43-4.03-.13,2.55-1.54,3-1.54,5.75,0,1.47.87,3.06.09,4.03,2.16-.6,1.59-5.42,2.94-6.87.23.83.1,1.63-.18,2.46-.75,2.25.08,5.32-1.1,6.32,1.93-.19,2.37-2.95,3.67-4.52-1.37,3.65-2.87,9.94-4.87,12.9-3.75,5.11-5.96,11.35-9.41,11.35-1.52,0-2.66-.93-2.66-2.87,0-5.82,9.88-9.82,9.88-16.01,0-2.75-2.22-3.81-3.62-3.81-.94,0-2.08.47-3.03,1.26-.41-.17-.82-.26-1.17-.26-3.49,0-2.56,6.33-5.61,6.27,1.21.68,3.29-.64,4.51-2.42-.51,4.11-6.37,3.02-5.92,7.95.82-3.86,10.16-3.3,10.16-9.16,0-.66-.33-1.21-.8-1.65.7-.45,1.36-.62,1.97-.62,1.12,0,2.14.84,2.14,2.5,0,5.19-9.82,9.57-9.82,15.94,0,1.07.31,1.97.81,2.68-.69.29-1.4.15-1.99-.54-.05,1.64,2.27,2.67,3.73,1.85.33.11.67.18,1.02.2-.44,1.22-1.95,1.59-2.73,1.53,2.41,1.92,6.6-.6,6.37-2.77,1.91-1.55,3.12-4.22,4.51-5.97-.08.41-.16.81-.22,1.21-1.41,2.58-2.73,4.9-3.09,8.31-.31,2.85-1.74,5.42-3.72,5.42-.43,0-1.15-.57-1.49-.29-.62.53-.03,1.1-.03,1.63,0,.81-1.55,1.62-1.55,4.12,0,1.13.65,2.48.4,3.22.63-.33,1.48-1.39,1.82-2.77.68,3.3-1.4,3.16.1,6.09.19-.97,1.15-1.38,1.73-.97.59.41.31.69-.12,1.12-.44.44-.84,2.63,1.15,2.5-.37-.25-.4-.83.59-1.04,1.37-.28,1.77.36,3.22.36.9,0,1.14-1.19,1.86-1.19s.71.56.47.97c1.14-.31,1.36-.94,1.36-1.59s-.52-1.06-.12-1.31c.4-.25,1.73.03,1.21,1.12.69-.12,1.05-.62,1.05-1.47s-.96-1.34-1.86-1.19c-.15-.53-.93-.82-1.64-.82-1.61,0-1.36,1.28-2.47,1.28-1.77,0-3.48-2.32-3.48-6.23,0-2.09,2.24-2.63,3.81-3.31,1.58-.69,4.35-2.4,6.01-5.21,1.3-2.2,1.34-4.61,1.17-7.47,2.23,1.29,2.49,3.14,2.49,4.49,0,1.75-.9,2.46-1.6,2.78-.6.28-.8.16-.87.52-.08.45.22.7.48.84.8.42.64,1.2.87,2.03.23.84.96,2.17,2.21,3.14.13-.52.1-1.36.02-2.44,1.71.85.34,4.32,3.66,4.32-.61-.35-.45-1.27-.1-1.39.35-.13.8.23,1.44,1.13.64.9.47.83,2.04.83s.86-.55,1.69-.55.77.97.33,1.68c1.41-.43,1.83-1.5,1.36-2.61,1.23-.67,1.89.28,2.07.96,1.22-1.23,0-2.72-.95-2.81.03-.46-.39-.94-.9-.97-.51-.03-1.01-.06-1.57-.03-.58.03-.9.88-1.57.88-2.08,0-6.21-3.81-6.21-5.46s3.94-2.65,3.94-5.21c0-3.34-3.25-4.48-5.99-6.63.98-1.1,3.83-1.36,5.44-.56.18-.93.78-.7.99-2.31.58,1.41-.19,2.57.4,3.17.46-.68,1.64-.58,1.57-2.33.36,1.1-.46,2.77.36,3.5.15-.9.67-1.07,1.01-1.07s.63.24.63.77c0,1.34-1.59.97-1.59,2.48,0,.63.8.85.8,1.26s-.65,1.04-1.44.51c.26.58.78,1.09,1.47,1.09.72,0,1.49-.59,1.8-1.33.38.95.09,2.02-.59,2.16.72.37,2.43.02,2.23-2.19.96.17,1.47.83.9,2,.79-.2,1.52-.59,1.52-1.44,0-.66-.64-1.1-.53-2.01.09-.74-.91-1.44-1.06-2.43"/>
    <path class="st0" d="M42.21,11.27c0-.36-.29-.65-.65-.65s-.64.29-.64.65.28.65.64.65.65-.29.65-.65"/>
    <path class="st0" d="M41.99,9.54c0-.36-.29-.65-.65-.65s-.64.3-.64.65.28.65.64.65.65-.29.65-.65"/>
    <path class="st0" d="M42.35,8.77c.36,0,.65-.29.65-.65s-.29-.65-.65-.65-.64.3-.64.65.29.65.64.65"/>
    <path class="st0" d="M44.06,8.66c.36,0,.64-.29.64-.65s-.29-.65-.64-.65-.64.29-.64.65.29.65.64.65"/>
    <path class="st0" d="M51.38,7.46c.25.25.66.25.91,0,.24-.25.24-.66,0-.92-.26-.26-.66-.26-.91,0-.25.25-.25.66,0,.92"/>
    <path class="st0" d="M51.23,6.07c.26-.25.26-.66,0-.92-.25-.25-.66-.26-.91,0-.25.25-.25.66,0,.92.25.25.66.25.91,0"/>
    <path class="st0" d="M49.53,5.79c.25-.25.25-.66,0-.92-.25-.26-.66-.26-.92,0-.25.26-.25.66,0,.92.25.25.66.25.91,0"/>
    <path class="st0" d="M48.07,6.88c.25-.25.25-.66,0-.91-.25-.26-.66-.26-.92,0-.25.25-.25.66,0,.92.25.25.66.25.91,0"/>
    <path class="st0" d="M43.97,5.99l.51,1.13.65-.78s.05.02.08.02c.06.38.08,1.05.08,1.41,0,.46.36.83.82.83s.82-.37.82-.83c0-.31-.17-.59-.43-.73-.32-.25-.67-.58-.91-.85.02-.03.03-.07.04-.1l1.09.1-.43-1.17-.81.7s-.03-.02-.04-.02l-.06-1.21-1.13.44.75.9s-.03.06-.04.09l-.99.08Z"/>
    <path class="st0" d="M51.42,8.01c.25.39.34.58.36.9-.19-.08-.42-.28-.67-.62l.13,1.51c.18-.27.32-.45.54-.54-.05.99-.44,1.39-.78,1.46-.4.08-.72-.19-.77-.51-.08-.44.29-.71.68-.32.07-.91-.65-.9-.97-.51.38-.88.23-1.46-.55-1.93-.48.82-.28,1.36.33,1.98-.6-.31-1.13.21-.6.87.11-.58.61-.45.73.02.1.4-.28.91-.92,1.11-.92.28-1.22-.32-1.45-.82.2-.13.67-.09,1.2.26l-.44-1.48c-.21.53-.52.74-.88.9-.03-.43.28-1.3.28-1.3l-1.77.73s.82.4,1.1.73c-.37.14-.74.2-1.26-.03l.71,1.38c.14-.61.45-.98.69-1.03.18.52.38,1.16-.47,1.61-.6.31-1.22.21-1.42-.15-.24-.41.03-.86.51-.52-.08-.85-.82-.85-1.03-.2,0-.88-.22-1.41-1.14-1.66-.23.88.07,1.41.95,1.77-.49-.06-1.02.44-.34,1.05,0-.55.46-.62.71-.25.18.26.15.67-.21.9-.28.19-.85.17-1.56-.5.21-.08.45-.05.76.02l-.95-1.18c.05.42.03.72-.06.91-.2-.23-.27-.44-.36-.89l-.72.65c.69.42,1.47,1.08,2.43,2.41,1.01-.63,2.81-1.51,3.93-1.97,1.12-.46,3.02-1.1,4.18-1.36-.24-1.63-.13-2.65.07-3.44l-.97.04Z"/>
    <path class="st0" d="M128.9,65.14c0-1.15.93-2.08,2.07-2.08s2.06.93,2.06,2.08-.93,2.09-2.06,2.09-2.07-.93-2.07-2.09M128.19,65.14c0,1.55,1.25,2.81,2.78,2.81s2.78-1.26,2.78-2.81-1.24-2.8-2.78-2.8-2.78,1.26-2.78,2.8"/>
    <path class="st0" d="M119.08,70.22c-.79-.15-1.35-.74-1.25-1.33.05-.29.25-.47.4-.58.33-.23.77-.31,1.23-.23.72.13,1.26.66,1.26,1.19,0,.05,0,.09-.01.14-.1.59-.83.95-1.62.81M117.83,67.73c-.37.25-.62.63-.69,1.04-.09.49.07.99.43,1.4.34.39.84.66,1.39.76.56.1,1.11.02,1.57-.22.48-.26.8-.67.88-1.16.18-.97-.64-1.94-1.82-2.16-.64-.12-1.28.01-1.76.35"/>
    <path class="st0" d="M102.38,30.05c0-.36.21-.78.58-1.07.32-.26.72-.37,1.06-.33.15.02.37.08.52.28.15.2.16.42.14.58-.05.34-.26.69-.58.95-.54.43-1.26.45-1.57.05-.1-.13-.15-.29-.15-.46M102.53,28.41c-.86.68-1.12,1.82-.56,2.54.56.71,1.71.75,2.57.08.47-.37.78-.89.85-1.43.05-.41-.05-.81-.28-1.11-.23-.3-.59-.5-.99-.55-.54-.07-1.11.1-1.59.47"/>
    <path class="st0" d="M115.64,66.25c-.28,0-.5-.16-.62-.3-.27-.28-.42-.73-.42-1.2,0-.47.18-.89.46-1.17.13-.13.35-.28.64-.27.59.01,1.05.68,1.04,1.49,0,.47-.18.91-.46,1.17-.13.13-.35.28-.64.27M114.57,63.07c-.42.41-.67,1.02-.68,1.67v.06c0,.64.22,1.24.61,1.65.31.32.71.51,1.13.51.41.01.82-.16,1.14-.47.43-.41.67-1.02.68-1.68.01-.57-.15-1.11-.46-1.52-.33-.44-.78-.69-1.27-.7-.41-.01-.82.16-1.14.47"/>
    <path class="st0" d="M101.54,43.17c-.72-.35-1.11-1.07-.85-1.61.12-.26.35-.39.53-.45.37-.13.83-.09,1.25.12.42.2.74.54.87.91.07.18.11.44-.01.7-.13.26-.36.39-.52.44-.38.14-.83.09-1.26-.11M100.99,40.43c-.42.15-.75.44-.93.82-.43.9.1,2.05,1.18,2.57.59.29,1.25.34,1.8.14.42-.15.75-.44.93-.81.18-.37.2-.82.05-1.24-.2-.56-.64-1.04-1.23-1.33-.59-.29-1.24-.34-1.79-.14"/>
    <path class="st0" d="M121.1,53.19c-.46.65-1.23.87-1.74.51-.51-.36-.54-1.18-.09-1.82.46-.65,1.23-.88,1.74-.51.51.36.54,1.18.09,1.82M117.83,58.4c-.46.65-1.23.88-1.74.52-.51-.36-.55-1.17-.09-1.82.45-.65,1.22-.88,1.73-.52.51.36.55,1.17.1,1.82M106.5,29.86l.02-.06c.39-1.2,1.11-3.6,1.12-3.62l.03-.09,1.55.6-.2.08c-.29.12-.67.38-1.08.76.28.07.67.05.93-.12l.23-.15-.67,1.7-.09-.16c-.1-.17-.39-.56-.69-.68-.03.12-.04.24-.04.34,0,.63.43.91.86,1.13.74.38,1.19.43,1.38.14.03-.06.05-.13.05-.19,0-.12-.05-.24-.13-.33-.14-.15-.39-.27-.72-.13l-.1.04v-.11c-.06-.45.09-.71.21-.86.15-.17.36-.26.6-.26.25,0,.49.16.64.42.09-.95.61-1.63,1.48-1.9l.08-.02.03.07c.11.31.16.59.16.85,0,.54-.22,1.03-.68,1.54.37-.07.7.03.87.27.13.2.17.43.11.65-.05.19-.19.46-.58.66l-.1.06-.02-.11c-.05-.29-.24-.48-.5-.52-.22-.03-.42.07-.51.24-.19.37.08.76.8,1.16.86.49,1.41.07,1.74-.41-.25-.05-.63.02-1,.26l-.27.17,1.1-2.08.04.24c.02.12.11.48.41.79.05-.17.13-.45.13-.75,0-.19-.03-.4-.12-.6l-.11-.24,2.27,1.33-.26.02c-.4.04-.77.27-1.14.69.42.11.77,0,.88-.04l.23-.09-1.23,2.01v-.32s0-.07,0-.07c0-.41-.12-.74-.28-.93-.1.2-.16.43-.16.66,0,.37.17.75.69,1.06.7.43,1.17.46,1.39.11.1-.16.08-.38-.05-.56-.15-.2-.42-.27-.69-.18l-.11.03v-.11c-.02-.44.14-.7.28-.83.16-.16.38-.24.62-.23.32.02.55.3.66.63.31-.98.84-1.47,1.78-1.65l.08-.02.02.08c.03.17.05.34.05.51,0,.69-.33,1.29-.94,1.73.3,0,.55.13.68.36.08.13.11.27.11.41,0,.08-.01.16-.04.24-.06.19-.21.44-.62.63l-.11.05v-.11c-.05-.36-.28-.52-.48-.57-.21-.04-.4.03-.49.19-.16.3.1.67.8,1.13.47.3,1.02.57,1.67-.01-.24-.2-.72-.27-.93-.27h-.17l1.12-1.43-.02.27s0,.03,0,.05c0,.31.17.63.37.83.09-.39.13-.73.13-1.02,0-.11,0-.21-.02-.3l-.03-.22,1.29,1.05-.06.07s-1.71,1.85-2.55,2.79l-.05.05-11.63-6.77h0ZM120.21,45.43c0-.18.05-.44.26-.63h0c.21-.2.47-.24.65-.23.39,0,.81.21,1.13.55.31.34.49.78.48,1.17,0,.19-.05.44-.26.64h0c-.21.2-.47.24-.65.23-.39,0-.82-.22-1.13-.56-.32-.34-.5-.78-.48-1.17M125.18,68.51c.08-.39.36-.77.74-1.03.39-.26.83-.36,1.22-.28.18.04.42.14.58.38h0c.15.24.15.5.11.68-.08.39-.36.77-.74,1.03-.67.44-1.49.4-1.81-.09-.16-.24-.15-.51-.11-.69M101.51,33.74c-.02.39-.18.76-.43.99-.11.1-.29.22-.53.2-.46-.03-.83-.57-.83-1.2v-.1c.02-.4.18-.76.42-.98.11-.1.3-.22.54-.21.24.01.41.15.51.27.22.25.34.63.32,1.02M108.83,18.56c.39-.75,0-1.89,1.36-1.89.67,0,1.26.67,2.07.93-1.31.11-2.48.41-3.42.95M130.16,37.55c.9,2.5,2.7,3.4,4.07,2.76-3.06-.36-.58-5.65-4.52-5.65-.22,0-.44.02-.64.07-.67-.71-1.43-1.01-2.57-1.01-1.67,0-4.54,1.63-4.54,4.98,0,7.23,8.32,7.87,8.32,14.26,0,1.87-1.39,3.02-2.96,3.02-1.4,0-2.53-1.59-3.7-4.06-.56-1.18-1.76-2.8-3.05-4.49.38.27.81.43,1.23.44.45.01.86-.14,1.16-.42.3-.29.47-.69.49-1.14,0-.02,0-.05,0-.07,0-.57-.24-1.16-.67-1.63-.46-.48-1.05-.76-1.63-.78-.44,0-.86.14-1.16.43-.3.28-.47.69-.49,1.14,0,.02,0,.04,0,.06,0,.25.05.49.13.74-1.79-2.36-3.45-4.68-3.45-5.95,0-1.12.77-2.1,1.71-3.29.04.03.32.19.32.19l.25-.28c.34-.37,1.03-1.14,2.47-2.69l.08-.1h0s.35-.36.35-.36l-.89-.73c.23-.54.44-1.13.6-1.78.28,1.16.87,1.9,1.68,1.67-.54-1.2.55-2.81-.16-5.75.68,1.14,1.66,1.74,2.36,1.53-1.84-1.66.55-3.96-1.85-7.52.79.27,1.31.12,1.65-.28-2.19-.31-1.19-3.13-5.03-4.14.96-.17,1.51-.74,1.37-1.25-1.01.74-1.91-1.38-5.23-1.32-.21-1.26-1.36-2.58-2.67-3.22.25.97.02,1.85-.23,2.58l-10.85-10.75c-.31-.3-.49-.37-.58-.26-.09.11-.08.31.12.53l9.32,11.79c-.7.24-1.39.54-2.12.81-.46.16-.81.63-.8,1.22-1.73.87-3.25,1.94-4,2.63-.57.53-1.03.65-.52,1.84.19.44-.41,1.56.95.75.88-.54,2.89-1.65,3.19-.95.16.37-.83.85-1.52,1.11-.68.27-1.41.79-1.31,1.06.11.26.64-.02.68.26.03.32.26.59.52.59s.62-.58.84-.39c.21.19-.11,1.48-.33,1.8,1.06-.13,1.73-1.15,1.76-1.94.02-.8.25-.98.41-1.1.16-.11.36.85.13,1.42.56-.12,1.14-.86,1.06-2.23.29-.22.57-.39.78-.39.35,0,1.06.98,2.06.98,1.84,0,2.86-1.51,2.97-2.21.09-.57.05-1.13-.26-1.55.66.53.87,1.38.87,2,0,2.63-4.62,3.87-6.52,5.7-.07.07-.14.13-.21.2l-2.16-.85-.15.48s-.03.11-.13.41c-.23.75-.7,2.31-1,3.21,0,0-.11.37-.11.37l.2.11c-1.28,1.73-2.32,3.66-2.56,5.64-.52-.54-1.01-.99-1.57-1.45.06-.19.1-.39.11-.61.03-.59-.14-1.15-.49-1.54-.27-.31-.62-.49-1-.51-.38-.02-.75.12-1.05.39-.07.06-.13.13-.2.2-.08-.06-.16-.12-.23-.18-.71-.56-1.6-1.22-2.14-1.81-.23-.26-.46-.39-.95-.39-.18,0-.64-.02-.96-.02s-.51.25-.87.58c-.21.18-.89.72-1.59,1.25.33.32.65.66.96,1.02.09.1.18.2.26.3.31-.24.54-.42.71-.56.23-.19.52-.23.8-.23s.66.21.94.63c.2.3,1.96,2.62,3.41,4.24-.16.05-.32.11-.46.17-.62.27-2.03.21-2.65.16-.62-.05-.74-.21-1.17.46-.16.26-.37.56-.57.81-.21.26-.37.55.07,1.3.64,1.09,2.23,3.97,2.76,5.27.52,1.3,1.14,1.51,2.16,1.93,1.02.42,2.74,1.41,2.95,1.65l.07-1c-.3-.3-1.26-.67-1.63-.8-.36-.14-.46-.29-.02-.29s1.65.44,2.5.78c-.26-.97-1.18-2.04-1.73-2.64-.74-.21-1.47-.21-1.77.02.04.2-.12.46-.41.46-.28,0-.47-.24-.39-.51.09-.29.53-.39.43-.95-.09-.55-.78-.65-1.22-.7-.62-.9-1.33-2.23-1.65-2.76-.33-.53-.13-.83.09-1.02.53-.44,1.63.23,3.83.37.77.05,1.75.09,2.73.14.29,2.58,1.32,5.04,4.89,5.94,1.74.44,3.53,1.72,4.15,3.42-7.12-.13-8.24,2.67-8.24,5.31,0,3.01,2.51,2.84,2.51,5.09,0,1.97-5.99,2.78-7.8,3.05-1.54.23-2.41.57-3.15,1.31-.73.75-1.48,1.46-2.82,2.81,0,0,.57.13,1.14.1l1.01-1.32c.3-.44.5-.81.7-.78.2.03.07.37-.17.85l-.83,1.41c3.51.24,3.74-1.07,3.74-1.62s-.86-.91-.36-1.25c.5-.34.93-.1,1.34.37.4.48.53.88,1.5.51,0,0,7.66-3.21,8.63-3.65.87-.39.62-.78.1-1.21-.57-.47-.67-1.25-.67-2.06,0-2.34,1.39-3.06,3.89-3.01-.05.4-.08.78-.08,1.12,0,3.65,5.47,7.22,6.95,7.22.66,0,1.55-.49,1.6,1.7.04,1.62.36,2.76.07,4.63-.29,1.87-.82,2.16-1.93,2.94-1.11.79-2.16,3.26-2.63,3.78.49.33,1.03.37,1.44-.83.34-.99.74-1.7,1.16-1.94-.44,1.1-.75,2.71-.96,3.19,1.39.25,3.66-1.04,3.66-2.03s-.78-.92-.78-1.58c0-.29.36-.62.78-.62.56,0,.98.45,1.03.66.62-.33,1.01-.95.99-2.41,0-.56-.03-1.16-.06-1.77.03.08.08.16.12.24.27.41.72.67,1.26.71.51.04,1.06-.1,1.52-.41.55-.37.93-.91,1.05-1.49.02-.12.04-.24.04-.36,0-.32-.09-.61-.25-.87-.23-.35-.59-.59-1.03-.68-.57-.12-1.22.02-1.77.38-.51.34-.87.83-1.01,1.36-.11-1.98-.26-3.86-.2-4.61.08-1.12.13-1.61-.24-1.78-.37-.17-.78.46-1.31.46s-2.14-1.5-2.14-3.07,1.69-3.62,1.61-5.78c-.03-.67.39-1.02.65-.41.33.74.81,1.74,1.53,2.55-.44,2.72,2.52,5.36,4.95,3.39-1.2.19-2.03-.9-2.56-1.97.21.03.42.05.65.05.12,0,.25,0,.36-.01.85,1.07,3.58.98,4.27-1.67-.47.56-1.46.98-2.16.88,1.02-.8,1.55-2.11,1.55-3.52,0-6.89-8.28-7.69-8.28-13.96,0-2.32,2.02-3.82,3.42-3.82.53,0,.95.17,1.28.41-.53.55-.82,1.38-.78,2.4.22,4.95,8.23,4.7,8.34,7.09.9-3.59-5.07-2.48-5.29-7.32"/>
    <path class="st0" d="M83.38,78.47c-.2-.38-.5-.6-.75-.6-1.15,0-.7,3.06-2.08,3.06-.6,0-.92-.39-.92-.82s.29-.56.29-.9-.26-.47-.56-.47-.57.13-.57.47.3.47.3.9-.32.82-.92.82c-1.37,0-.92-3.06-2.07-3.06-.26,0-.56.22-.75.6-.23-.43-.36-.87-.36-1.2,0-.56.43-1.34,1.32-1.34,1.54,0,1.18,2.11,1.91,2.11.33,0,.57-.19.57-.52,0-.6-1.07-1.17-1.07-2.03s.78-1.59,1.64-2.28c.85.69,1.63,1.42,1.63,2.28s-1.07,1.43-1.07,2.03c0,.32.24.52.57.52.74,0,.38-2.11,1.91-2.11.9,0,1.32.78,1.32,1.34,0,.33-.13.77-.36,1.2M79.37,82.76c-.41,0-.75-.34-.75-.76s.34-.76.75-.76.75.34.75.76-.34.76-.75.76M82.42,75.34c-.2,0-.39.03-.57.08v-3.3c-1.47-.05-3.2-.34-4.93-.8v4.11c-.18-.06-.38-.09-.6-.09-1.18,0-1.91,1-1.91,1.93,0,.88.51,1.69.95,2.19.22-.53.42-.96.72-.96.59,0,.32,2.95,2.03,3.03-.05.15-.08.31-.08.47,0,.75.6,1.36,1.34,1.36s1.34-.61,1.34-1.36c0-.17-.03-.32-.09-.47,1.72-.08,1.43-3.03,2.02-3.03.29,0,.48.41.74.96.45-.5.95-1.31.95-2.19,0-.93-.73-1.93-1.91-1.93"/>
    <path class="st0" d="M72.73,15.07c-.51,1-.96,1.58-.89,2.35.07.77.87,1.31,1.25,2.09.34-.9.92-1.58.85-2.28-.07-.7-1.03-1.63-1.2-2.15"/>
    <path class="st0" d="M85.97,15.07c.52,1,.96,1.58.89,2.35-.07.77-.87,1.31-1.25,2.09-.34-.9-.92-1.58-.85-2.28.07-.7,1.03-1.63,1.21-2.15"/>
    <path class="st0" d="M65.11,14.49c.49,0,.89-.4.89-.9s-.4-.91-.89-.91-.9.41-.9.91.4.9.9.9"/>
    <path class="st0" d="M65.71,15.79c0-.5-.4-.9-.89-.9s-.9.4-.9.9.4.9.9.9.89-.41.89-.9"/>
    <path class="st0" d="M66.15,17.98c0-.5-.4-.9-.9-.9s-.89.4-.89.9.4.9.89.9.9-.4.9-.9"/>
    <path class="st0" d="M70.07,10.19c.5,0,.9-.4.9-.9s-.4-.9-.9-.9-.9.41-.9.9.4.9.9.9"/>
    <path class="st0" d="M67.84,10.88c.49,0,.9-.4.9-.9s-.4-.9-.9-.9-.9.4-.9.9.4.9.9.9"/>
    <path class="st0" d="M66.09,12.43c.49,0,.9-.41.9-.9s-.4-.9-.9-.9-.9.41-.9.9.4.9.9.9"/>
    <path class="st0" d="M72.4,10.41c.49,0,.9-.41.9-.9s-.4-.9-.9-.9-.9.41-.9.9.41.9.9.9"/>
    <path class="st0" d="M74.62,11.06c.49,0,.89-.41.89-.91s-.4-.9-.89-.9-.9.41-.9.9.4.91.9.91"/>
    <path class="st0" d="M76.71,12.05c.49,0,.9-.41.9-.9s-.4-.91-.9-.91-.89.41-.89.91.4.9.89.9"/>
    <path class="st0" d="M92.67,13.59c0,.5.41.9.9.9s.89-.4.89-.9-.4-.9-.89-.9-.9.4-.9.9"/>
    <path class="st0" d="M93.86,14.88c-.49,0-.9.4-.9.9s.4.9.9.9.9-.4.9-.9-.4-.9-.9-.9"/>
    <path class="st0" d="M93.43,17.07c-.5,0-.9.41-.9.9s.4.9.9.9.9-.4.9-.9-.4-.9-.9-.9"/>
    <path class="st0" d="M88.61,10.19c.5,0,.9-.4.9-.9s-.4-.9-.9-.9-.89.41-.89.9.4.9.89.9"/>
    <path class="st0" d="M90.84,10.88c.49,0,.9-.4.9-.9s-.41-.9-.9-.9-.9.4-.9.9.4.9.9.9"/>
    <path class="st0" d="M92.58,12.43c.5,0,.9-.41.9-.9s-.4-.9-.9-.9-.89.41-.89.9.4.9.89.9"/>
    <path class="st0" d="M86.28,10.41c.5,0,.9-.41.9-.9s-.4-.9-.9-.9-.9.41-.9.9.41.9.9.9"/>
    <path class="st0" d="M84.06,11.06c.5,0,.9-.41.9-.91s-.4-.9-.9-.9-.9.41-.9.9.41.91.9.91"/>
    <path class="st0" d="M81.08,11.14c0,.5.4.9.9.9s.89-.41.89-.9-.4-.91-.89-.91-.9.41-.9.91"/>
    <path class="st0" d="M77.81,16.02h1v-3.87c-.36-.05-.69-.16-1-.31v4.18Z"/>
    <path class="st0" d="M80.87,11.85c-.31.15-.65.26-1,.31v3.87h1v-4.18Z"/>
    <path class="st0" d="M78.76,7.58v-2.29c-1.12.23-1.99,1.14-2.2,2.29h2.2Z"/>
    <path class="st0" d="M79.92,7.58h2.19c-.2-1.14-1.07-2.05-2.19-2.29v2.29Z"/>
    <path class="st0" d="M76.6,8.69c.28,1.27,1.4,2.22,2.75,2.22s2.47-.95,2.75-2.22h-5.49Z"/>
    <path class="st0" d="M80.88,4.92c-.64-.51-1.13-1.24-1.22-2,.73.13,1.55.66,2.04,1.31V1.12c-.49.65-1.31,1.18-2.04,1.3.08-.75.54-1.44,1.17-2.23h-2.98c.62.79,1.08,1.48,1.17,2.23-.73-.12-1.55-.66-2.04-1.3v3.11c.49-.64,1.31-1.17,2.03-1.31-.09.76-.58,1.5-1.22,2h3.08Z"/>
    <path class="st0" d="M80.96,69.72c-.6,0-1.1-.5-1.1-1.11s.49-1.11,1.1-1.11,1.1.5,1.1,1.11-.49,1.11-1.1,1.11M75.68,68.08c-.66,0-1.2-.54-1.2-1.22s.54-1.21,1.2-1.21,1.21.54,1.21,1.21-.54,1.22-1.21,1.22M73.86,62.67l-.29-.23c-.55-.42-1.01-.41-1.5.02-.23.2-.44.45-.65.69l-.31.36.21.17c.58.46.67.97.5,1.28-.07.12-.16.19-.29.23-.29.08-.69-.02-1.11-.27l-.22-.14-.13.22c-.03.06-.07.11-.1.16-.05.07-.1.15-.15.24-.25.44-.36.77-.36,1.04,0,.08.01.15.03.22.09.32.34.46.57.59l.14.08c.26.17.62.38.89.54-.51.29-1.02.31-1.53.06-.77-.37-1.27-1.26-1.27-1.71,0-.67.3-1.52.85-2.4l.08-.14-.08-.14c-.16-.28-.29-.53-.4-.78.29.04.58.09.87.16l.15.03.1-.11c.34-.37,1.53-1.58,2.62-1.58.5,0,1.01.26,1.39.7.28.32.46.71.51,1.09-.15-.11-.33-.24-.5-.38M66.26,62.85l-.7-1s1.08-.77,1.21-.86c-.08-.11-.6-.86-.68-.97-.12.08-1.21.86-1.21.86l-.7-1,3.37-2.39.69.99s-1.08.78-1.21.87c.08.11.6.86.68.97.13-.09,1.21-.86,1.21-.86l.69,1-3.36,2.38ZM62.88,56.9c-.23-.59-.23-1.19,0-1.72.22-.51.63-.9,1.16-1.11.53-.21,1.1-.2,1.6.03.53.24.93.68,1.16,1.27.11.29.16.57.16.85,0,.3-.06.59-.17.85-.23.51-.64.9-1.16,1.11-.52.21-1.09.2-1.59-.02-.52-.23-.94-.68-1.16-1.26M84.18,66.94c-2.82-.71-6.17-1.93-9.3-3.36v-.04c.09-.64-.15-1.35-.63-1.92-.49-.56-1.13-.88-1.78-.88-.29,0-.58.07-.85.17-.45-.4-.88-.85-1.29-1.34-1.18-1.4-2.11-3.03-2.76-4.84-.37-1.04-.64-2.11-.81-3.22-.15.92-1.24,1.99-3,2.02.03-.19-.02-.47-.18-.52-.47.52-1.08,1.04-2.66.47.24,1.26.59,2.49,1.03,3.69.95,2.57,2.32,4.87,4.05,6.85.57.65,1.18,1.26,1.8,1.82-.02.12-.02.25-.02.37,0,.67.64,1.72,1.55,2.17.75.37,1.57.27,2.3-.26,1.37.74,3.12,1.43,4.99,1.95,2.11.59,4.15.92,5.74.92,1.37,0,3.19-.65,4.98-1.79.72-.46,1.39-.97,1.88-1.43.07-.06.14-.13.2-.19-1.39.2-3.49-.19-5.21-.63"/>
    <path class="st0" d="M65.79,56.2h0c0-.13-.03-.28-.08-.41-.2-.52-.72-.76-1.22-.56-.51.2-.73.71-.52,1.25.1.26.28.46.51.56.22.1.47.1.71,0,.37-.14.59-.45.6-.83"/>
    <path class="st0" d="M66.38,38.1c-.46-.24-.95-.07-1.2.4-.13.23-.15.48-.08.71.07.22.22.39.44.51.21.12.45.14.66.07.23-.07.42-.24.54-.46.07-.15.1-.31.1-.45,0-.35-.2-.65-.46-.79"/>
    <path class="st0" d="M91.01,35.88l-.44.13.23.3.22-.43Z"/>
    <path class="st0" d="M96.33,44.29l-.38-.76h0c-.07.09-.15.21-.23.32-.04.06-.08.12-.12.18.07.03.16.05.25.09.16.05.33.12.49.17"/>
    <path class="st0" d="M95.98,49.62c.08,0,.15,0,.16-.2,0,0,0-.15,0-.24-.09,0-.24,0-.34,0v.2c0,.1.02.17.05.2.02.02.05.04.12.04"/>
    <path class="st0" d="M75.21,30.09c-.22-.1-.48-.11-.72-.02-.29.11-.49.27-.59.49-.12.26-.09.56-.02.74.08.2.39.86,1.26.53.24-.09.43-.26.53-.49.06-.12.08-.25.08-.39,0-.1-.02-.21-.06-.32-.09-.25-.26-.44-.49-.55"/>
    <path class="st0" d="M97.3,49.43c-.01.46-.15.82-.41,1.07-.24.24-.58.36-.95.36-.36-.01-.67-.14-.9-.38-.25-.26-.38-.65-.38-1.11v-.21c-.15,0-1.47-.02-1.47-.02l.02-1.22,4.12.08-.03,1.44h0ZM96.66,54.41l-1.14-.21.26-1.42-.3-.06-.25,1.38-1.14-.21.25-1.38-.33-.07-.26,1.47-1.14-.21.48-2.67,4.05.75-.48,2.63ZM96.02,56.4l-2.55.9,1.89.77-.44,1.1-3.82-1.56.36-.88,2.52-.88-1.87-.76.44-1.1,3.82,1.55-.34.85ZM93.57,61.38c-.19.29-.65.59-.96.71h0s-1.15-.79-1.15-.79c1.2-.38,1.28-.73,1.22-.78-.05-.05-.24.06-.48.17-.43.22-1.08.54-1.76.09-.29-.2-.48-.49-.54-.82-.07-.34,0-.7.21-1,.23-.34.68-.66,1.14-.82l1.15.78-.19.04c-.56.14-1,.46-1.11.61-.05.06-.08.13-.07.17,0,0,0,.02.02.03.1.07.4-.07.64-.18.46-.21,1.03-.47,1.61-.09.29.2.47.47.53.79.01.08.02.15.02.23,0,.29-.1.58-.29.85M90.23,65.16l-.82-.82,1.01-1.04-.21-.22-.97,1-.83-.82.98-1-.25-.24-1.06,1.03-.82-.82,1.91-1.89,2.93,2.91-1.85,1.9ZM79.89,48.43v-14.88c1.54.07,3.04.47,4.46,1.17,1.53.76,2.9,1.86,4.08,3.26,1.19,1.4,2.11,3.03,2.76,4.85.64,1.78.98,3.66,1.01,5.6h-12.31ZM79.38,32.65c-.88.02-1.78-.49-1.81-1.67v-2.48s1.2-.03,1.2-.03v2.39c.01.34.06.39.11.44.13.12.28.18.48.17.24,0,.43-.07.54-.18.06-.06.11-.15.1-.5v-2.35s1.2.02,1.2.02v2.45c0,.48-.15.9-.44,1.21-.31.34-.78.52-1.39.53M66.55,48.43c.03-1.94.37-3.83,1.01-5.6.65-1.82,1.58-3.45,2.76-4.85,1.18-1.39,2.55-2.49,4.08-3.26,1.51-.75,3.11-1.15,4.76-1.18v14.89h-12.61ZM66.51,40.93c-.5.16-1.04.1-1.52-.15-.48-.26-.83-.68-.98-1.18-.16-.53-.1-1.11.18-1.63.27-.53.71-.91,1.23-1.08.5-.15,1.04-.1,1.52.16.49.26.83.68.99,1.18.06.19.09.39.09.59,0,.35-.09.7-.28,1.05-.27.52-.7.9-1.23,1.06M66.57,34.42l3.1,2.45-.72.93-3.1-2.46.72-.93ZM69.6,31.47l.76.83-.82.76c.11.12,1.91,2.09,1.91,2.09l-.86.8-1.91-2.09-.82.76-.76-.83,2.5-2.34ZM77.55,32.03l-.52,1.13c-.88.21-1.86-.02-2.07-.08-.98.12-1.9-.43-2.22-1.36-.2-.55-.19-1.11.04-1.6.24-.53.71-.94,1.33-1.17,1.15-.42,2.32.12,2.74,1.26.08.22.13.47.13.7,0,.41-.12.81-.35,1.15.2,0,.56.07.93-.04M83.61,28.83l-.81,4.19-1.18-.24.82-4.18,1.18.24ZM69.2,27.89c0-2.41,6.75-2.62,10.17-2.62h0c3.42,0,10.17.21,10.17,2.62,0,.68-.42,1.24-1.4,1.82-1.68-1.13-4.57-2.38-8.77-2.38-4.2,0-7.09,1.25-8.77,2.38-.98-.58-1.4-1.15-1.4-1.82M89.5,31.59l.72.57-2.48,3.39-1-.7,1.27-1.67-1.22.32-.2-1.31-1.17,1.7-1.06-.58,2.39-3.48.81.43.27,1.75,1.67-.41ZM92.33,34.29l.5.64-2.17,4.26-.79-1.09.4-.75-.79-1.03-.7.23-.97-.92,4.53-1.33ZM98.25,47.2c-.39-.29-.86-.74-1.18-1.39-.45-.15-1.65-.59-2.17-.77,0,0-.24-.09-.28-.1l-1.69.46-.31-1.17,1.69-.46s.09-.11.15-.2c.25-.33.71-.93.92-1.17-.42-.78-.83-1.5-1.1-1.96-.26-.43-.38-.85-.38-1.19l-1.55.82c.07.13.68,1.39.68,1.39l-1.04.52-1.2-2.49,3.69-1.82.16.31c.1-.13.2-.27.28-.41.12-.19.23-.34.35-.47-.72-1.24-1.55-2.4-2.49-3.46-1.15-1.3-2.43-2.42-3.82-3.34.75-.49,1.51-1.2,1.51-2.38,0-.69-.28-1.25-.78-1.69.79-2.55,2.2-5.63,3.41-6.97l-2.53-1.08c.66,1.01.7,2.19.56,2.88-.67-.46-1.23-1.1-1.42-1.93-.13.77-.54,2.03-.93,2.78.73-.35,1.32-.51,2.06-.19-.43.58-1.52,1.48-3.19,1.07-.9-.22-1.8-.7-1.76-1.41.03-.42.33-.93.89-.87.55.06.58.9.41,1.28.72-.41,1.47-2.56.34-2.87-.89-.25-1.71.98-2,1.93-.17-1.14-.64-2.24-1.54-2.18-1.16.09-.79,2.26-.38,2.81.07-.76.48-1.17.83-1.14.31.02.72.25.65.94-.08.69-1.05,1.12-2.17,1.12s-2.95-.34-3.13-2.42c.69.12,1.78.65,2.25,1.36-.15-1.26-.15-2.16,0-3.47-.57.82-1.55,1.25-2.22,1.36.2-.89.95-1.84,1.84-2.4h-4.6c.88.56,1.65,1.5,1.84,2.39-.67-.12-1.62-.54-2.18-1.35.15,1.31.15,2.21,0,3.47.46-.69,1.52-1.22,2.22-1.36-.18,2.08-2.06,2.41-3.13,2.41-1.13,0-2.1-.43-2.17-1.12-.07-.69.34-.92.65-.94.34-.03.75.38.82,1.14.41-.55.79-2.72-.38-2.81-.9-.07-1.37,1.03-1.54,2.18-.3-.95-1.11-2.18-2.01-1.93-1.13.32-.38,2.46.34,2.87-.17-.38-.14-1.22.41-1.28.56-.06.87.45.89.87.04.71-.86,1.19-1.76,1.41-1.65.39-2.74-.48-3.18-1.07.75-.32,1.35-.17,2.09.19-.39-.75-.8-2.01-.93-2.78-.19.85-.77,1.49-1.44,1.95-.15-.69-.11-1.88.55-2.9l-2.53,1.08c1.21,1.35,2.63,4.43,3.42,6.99-.48.45-.76.99-.76,1.67,0,1.18.76,1.9,1.5,2.38-1.39.92-2.67,2.04-3.82,3.34-1.73,1.96-3.09,4.26-4.05,6.8-.05.12-.09.25-.13.37.28.3.56.6.84.9,0-.04.02-.08.04-.12.13-.32.51-.71.78-.9l1.27.51c-.53.38-1.16.9-1.03,1.03.05.05.33-.17.46-.27.38-.3.94-.76,1.7-.46.33.13.58.37.71.68.14.31.14.68,0,1.02-.15.39-.52.8-.94,1.05l-1.16-.46c.47-.28.93-.82,1-.97.04-.1.04-.19,0-.2-.1-.06-.34.13-.58.31-.25.19-.54.41-.87.48.54.78.9,1.51.92,2.1.04,1.16.28,1.61.89,2.39.92,1.17-.02,1.08.77,2.53-.03-.41-.05-.82-.06-1.24h12.61v13.88c-.51,0-1.08.07-1.51.6,1.46.6,2.93,1.13,4.32,1.57.13-.91.37-1.36.82-1.92,0,0-1.9-.19-2.89-.24v-13.89h12.31c-.04,1.92-.38,3.78-1.01,5.54-.65,1.82-1.58,3.45-2.76,4.84-1.18,1.4-2.56,2.47-4.08,3.25-.36.19-.62.77-.86,1.29-.18.41-.31.81-.39,1.38.58.17.7.29,1.24.43,4.32,1.09,5.46.88,5.7.68.97-.76,1.88-1.61,2.72-2.58,1.74-1.98,3.1-4.28,4.05-6.85.98-2.65,1.48-5.47,1.48-8.38,0-.53-.01-1.05-.05-1.58"/>
    <path class="st0" d="M46.72,78.33s-.13.07-.24.14c.09.15.92,1.55,1.04,1.75.07-.04.26-.15.26-.15.91-.49.8-1.12.56-1.49-.47-.75-1.06-.53-1.62-.25"/>
    <path class="st0" d="M102.92,72.95c.07-.02.12-.06.15-.12.02-.05.04-.09.04-.13,0-.09-.06-.17-.18-.26-.02-.01-.34-.2-.34-.2,0,0-.19.32-.28.48.12.07.3.18.3.18.1.07.22.09.31.06"/>
    <path class="st0" d="M97.51,72.34c.81.21,1.33.07,1.64-.71.23-.59.05-1.05-.89-1.31,0,0-.05-.01-.31-.07-.08.21-.69,1.96-.72,2.03.12.03.28.07.28.07"/>
    <path class="st0" d="M105.69,76.9c.28.17.57.21.87.14.3-.07.53-.24.69-.52.16-.26.2-.51.12-.8-.08-.29-.25-.49-.52-.66-.3-.17-.59-.22-.89-.15-.29.07-.52.24-.69.52-.16.26-.2.53-.13.81.07.28.25.49.54.66"/>
    <path class="st0" d="M85.3,86.36c-.23-.21-.5-.31-.84-.29-.36.02-.65.12-.88.35-.22.22-.33.49-.33.83s.1.57.33.78c.23.2.51.3.85.29.35-.01.64-.12.87-.35.23-.23.34-.5.34-.83s-.1-.56-.33-.77"/>
    <path class="st0" d="M97.35,78.26c0,1.1-.99,2.17-2.73,3.08.49-2.33-5.02-3.05-5.02-4.76,0-1.48,2.2-2.26,3.85-2.54,1.09,1.4,3.9,2.43,3.9,4.23M91.69,88.08l-.98.35s-1.59-1.61-1.94-1.98c-.03.5-.15,2.54-.15,2.54l-1.29.25.29-4.86.93-.17,1.98,2.02c.02-.49.14-2.48.14-2.48l1.29-.36-.28,4.69ZM86.25,88.87c-.49.46-1.1.7-1.84.73-.71.02-1.31-.2-1.78-.63-.48-.44-.73-1.02-.73-1.7s.25-1.3.73-1.77c.48-.47,1.08-.73,1.8-.75.72-.02,1.33.19,1.83.63.49.45.74,1.03.74,1.72s-.25,1.29-.75,1.77M81.51,89.71l-1.31.02v-2.52c-.32.38-1.1,1.31-1.1,1.31,0,0-.78-.93-1.09-1.31v2.52l-1.3-.04v-4.73l1.09.03s1.13,1.38,1.31,1.61c.18-.23,1.27-1.6,1.27-1.6l1.12-.03v4.73ZM74.18,86.04c-.38-.05-1-.12-1.35-.17v3.54l-1.31-.19v-3.54c-.37-.05-.93-.15-1.32-.21v-1.26c1.15.2,2.71.42,3.98.57v1.26ZM66.98,88.04l-.24-4.67c.72.21,2.26.62,3.06.76l.03,1.27c-.4-.07-1.16-.24-1.72-.39,0,.06.02.29.02.41.18.05,1.59.4,1.59.4l.04,1.29s-1.29-.32-1.57-.39c0,.03.02.37.03.49.44.15,1.11.32,1.68.44l.06,1.29c-1.11-.22-2.26-.59-2.99-.91M64.12,81.34c-1.75-.91-2.73-1.98-2.73-3.08,0-1.8,2.8-2.82,3.89-4.22,1.65.29,3.85,1.06,3.85,2.54,0,1.72-5.5,2.44-5.02,4.76M59.53,74.43c-1.34.59-2.16,0-2.6-.96l-1.08-2.45,1.15-.61s1.08,2.47,1.09,2.47c.24.52.49.68.97.44.57-.27.56-.52.35-.99l-1.12-2.58,1.27-.44,1.05,2.52c.41,1.01.32,1.97-1.09,2.59M54.37,77.38l-2.39-3.87,2.51-1.65.64,1.04-1.44.97c.07.12.15.25.22.36l1.39-.94.64,1.04-1.39.95c.08.12.18.28.25.39l1.49-1,.65,1.04-2.57,1.68ZM51.85,79.06l-2.4-3.85,1.06-.71,2.4,3.87-1.05.69ZM48.37,81.15l-1.32.73-2.29-3.87,1.4-.77c.49-.27.92-.41,1.31-.41.39,0,.78.09,1.14.3.35.21.67.48.86.85.51.97.57,2.28-1.1,3.17M97.12,68.76l1.75.43c1.1.29,2.11,1.3,1.52,2.8-.69,1.72-1.99,1.82-3.26,1.52l-1.53-.38,1.53-4.38ZM103.58,71.45c.21.13.5.36.69.68.23.4.22.85-.04,1.29-.17.31-.41.49-.7.58-.11.03-.23.03-.35.03.04.19.07.41.08.66.06.96.19,2.01.19,2.03-.2-.14-1.29-.83-1.39-.89l-.11-1.34c-.04-.48-.07-.67-.21-.77-.11.2-.83,1.43-.83,1.43l-1.13-.6,2.27-3.99c.35.2,1.19.68,1.53.9M105.65,73.69c.62-.15,1.24-.05,1.82.29.59.34.98.83,1.15,1.44.05.19.08.4.08.6,0,.4-.12.8-.35,1.17-.34.56-.84.92-1.48,1.06-.62.13-1.24.02-1.84-.32-.58-.33-.96-.81-1.12-1.41-.17-.6-.08-1.19.26-1.75.36-.57.85-.93,1.47-1.07M111.19,76.39l-2.38,3.94-1.11-.69,2.39-3.92,1.11.67ZM115.28,78.65l-.59,1.06c-.33-.14-.93-.42-1.38-.65-.38.62-1.49,2.38-1.7,2.72l-1.17-.52s1.32-2.09,1.75-2.79c-.37-.21-.9-.52-1.18-.69l.59-1.07c.95.59,2.86,1.57,3.67,1.94M114.28,83.02c2.35,0,4.45-3,7.38-4.32-7.43,2.18-17.68-10.52-24.66-10.52-1.96,0-4.23.75-5.34,3.47-1.18,2.89-2.49,3.84-2.49,5.12,0,1.12,1.01,1.98,2.7,2.89,1.1.59,2.24.9,2.17,1.95-3.19,1.47-8.44,2.48-14.68,2.48s-11.48-1.01-14.67-2.48c-.06-1.05,1.08-1.36,2.17-1.95,1.7-.91,2.7-1.76,2.7-2.89,0-1.28-1.31-2.23-2.48-5.12-1.11-2.72-3.38-3.47-5.35-3.47-6.97,0-17.23,12.7-24.65,10.52,2.94,1.32,5.03,4.32,7.38,4.32,6.02,0,12.99-9.12,19.52-9.12.09,0,.18,0,.29,0-1.52,1.9-3.65,2.3-3.65,4.23,0,1.35,1.16,2.16,1.96,3.97.5,1.13.59,1.93,1.01,3.52.38,1.41,1.35,5,15.77,5s15.4-3.59,15.77-5c.43-1.6.52-2.4,1.02-3.52.8-1.81,1.95-2.62,1.95-3.97,0-1.93-2.13-2.32-3.65-4.23.1,0,.2-.01.28-.01,6.54,0,13.51,9.12,19.53,9.12"/>
  </g>
</svg>