<?xml version="1.0" encoding="UTF-8"?>
<svg width="464px" height="294px" viewBox="0 0 464 294" version="1.1" xmlns="http://www.w3.org/2000/svg" xmlns:xlink="http://www.w3.org/1999/xlink">
    <title>Health and Care Research Wales full colour logo CMYK</title>
    <defs>
        <polygon id="path-1" points="0 0 463.94 0 463.94 293.44 0 293.44"></polygon>
    </defs>
    <g id="Footer" stroke="none" stroke-width="1" fill="none" fill-rule="evenodd">
        <g id="Health-and-Care-Research-Wales-full-colour-logo-CMYK">
            <g id="Group-3">
                <mask id="mask-2" fill="white">
                    <use xlink:href="#path-1"></use>
                </mask>
                <g id="Clip-2"></g>
                <polygon id="Fill-1" fill="#FFFFFE" mask="url(#mask-2)" points="-2.2759572e-15 293.44 463.94 293.44 463.94 0 -2.2759572e-15 0"></polygon>
            </g>
            <path d="M167.209,91.212 L160.993,78.782 C161.229,78.746 161.483,78.719 161.756,78.7 C162.029,78.682 162.301,78.673 162.574,78.673 C162.81,78.673 163.069,78.682 163.351,78.7 C163.632,78.719 163.882,78.746 164.101,78.782 L168.68,88.514 L173.206,78.782 C173.441,78.746 173.678,78.719 173.914,78.7 C174.15,78.682 174.396,78.673 174.65,78.673 C174.905,78.673 175.159,78.682 175.414,78.7 C175.668,78.719 175.913,78.746 176.149,78.782 L170.016,91.212 L170.016,98.382 C169.78,98.418 169.544,98.446 169.307,98.464 C169.071,98.481 168.835,98.491 168.599,98.491 C168.362,98.491 168.121,98.481 167.876,98.464 C167.631,98.446 167.408,98.418 167.209,98.382 L167.209,91.212" id="Fill-4" fill="#414241"></path>
            <path d="M177.349,84.397 C177.549,84.361 177.744,84.334 177.935,84.316 C178.126,84.298 178.321,84.289 178.521,84.289 C178.72,84.289 178.906,84.298 179.08,84.316 C179.252,84.334 179.438,84.361 179.638,84.397 C179.693,84.67 179.748,85.03 179.802,85.474 C179.857,85.92 179.883,86.297 179.883,86.605 C180.047,86.278 180.252,85.965 180.497,85.665 C180.743,85.366 181.033,85.098 181.369,84.861 C181.706,84.625 182.092,84.434 182.528,84.289 C182.964,84.144 183.445,84.071 183.973,84.071 C185.063,84.071 185.904,84.293 186.494,84.738 C187.085,85.184 187.534,85.806 187.844,86.605 C188.025,86.297 188.248,85.988 188.512,85.679 C188.775,85.37 189.07,85.098 189.398,84.861 C189.724,84.625 190.097,84.434 190.515,84.289 C190.933,84.144 191.405,84.071 191.933,84.071 C193.55,84.071 194.727,84.525 195.462,85.434 C196.199,86.342 196.567,87.687 196.567,89.468 L196.567,98.382 C196.367,98.418 196.14,98.446 195.885,98.464 C195.631,98.481 195.404,98.491 195.204,98.491 C195.003,98.491 194.781,98.481 194.536,98.464 C194.291,98.446 194.068,98.418 193.868,98.382 L193.868,90.259 C193.868,89.004 193.677,88.063 193.296,87.438 C192.914,86.81 192.287,86.497 191.415,86.497 C190.488,86.497 189.739,86.833 189.166,87.505 C188.594,88.178 188.307,89.168 188.307,90.477 L188.307,98.382 C188.107,98.418 187.885,98.446 187.639,98.464 C187.394,98.481 187.171,98.491 186.971,98.491 C186.772,98.491 186.549,98.481 186.303,98.464 C186.058,98.446 185.836,98.418 185.636,98.382 L185.636,90.067 C185.636,88.85 185.454,87.937 185.091,87.328 C184.727,86.719 184.145,86.415 183.346,86.415 C182.892,86.415 182.464,86.515 182.065,86.714 C181.665,86.915 181.315,87.214 181.015,87.614 C180.715,88.014 180.479,88.519 180.306,89.127 C180.133,89.736 180.047,90.44 180.047,91.24 L180.047,98.382 C179.848,98.418 179.625,98.446 179.379,98.464 C179.134,98.481 178.911,98.491 178.712,98.491 C178.511,98.491 178.284,98.481 178.03,98.464 C177.776,98.446 177.549,98.418 177.349,98.382 L177.349,84.397" id="Fill-5" fill="#414241"></path>
            <path d="M209.679,95.956 C209.824,96.21 209.951,96.528 210.06,96.91 C210.169,97.291 210.233,97.682 210.251,98.082 C209.179,98.5 207.952,98.709 206.571,98.709 C204.245,98.709 202.491,98.05 201.31,96.733 C200.128,95.415 199.538,93.639 199.538,91.403 C199.538,90.368 199.683,89.404 199.974,88.514 C200.265,87.623 200.697,86.851 201.269,86.197 C201.841,85.542 202.554,85.024 203.409,84.643 C204.263,84.261 205.253,84.071 206.38,84.071 C207.143,84.071 207.816,84.116 208.398,84.206 C208.979,84.298 209.533,84.443 210.06,84.643 C210.06,84.953 210.02,85.311 209.938,85.72 C209.856,86.128 209.742,86.488 209.597,86.796 C208.706,86.488 207.689,86.333 206.544,86.333 C205.144,86.333 204.099,86.796 203.409,87.723 C202.718,88.65 202.373,89.877 202.373,91.403 C202.373,93.148 202.763,94.425 203.545,95.233 C204.326,96.042 205.399,96.447 206.762,96.447 C207.307,96.447 207.812,96.41 208.274,96.337 C208.739,96.265 209.206,96.138 209.679,95.956" id="Fill-6" fill="#414241"></path>
            <path d="M213.086,78.4 C213.285,78.364 213.508,78.337 213.753,78.318 C213.999,78.301 214.221,78.291 214.422,78.291 C214.621,78.291 214.848,78.301 215.103,78.318 C215.357,78.337 215.584,78.364 215.784,78.4 L215.784,86.524 C215.948,86.27 216.152,85.997 216.398,85.706 C216.644,85.415 216.943,85.147 217.297,84.901 C217.652,84.656 218.061,84.456 218.523,84.302 C218.987,84.148 219.501,84.071 220.065,84.071 C221.664,84.071 222.849,84.529 223.622,85.447 C224.394,86.365 224.779,87.723 224.779,89.522 L224.779,98.382 C224.58,98.418 224.358,98.446 224.112,98.464 C223.867,98.481 223.644,98.491 223.444,98.491 C223.245,98.491 223.022,98.481 222.777,98.464 C222.531,98.446 222.309,98.418 222.109,98.382 L222.109,90.259 C222.109,88.968 221.895,88.019 221.468,87.41 C221.041,86.801 220.391,86.497 219.52,86.497 C219.028,86.497 218.555,86.583 218.102,86.755 C217.647,86.928 217.247,87.201 216.902,87.573 C216.556,87.946 216.284,88.432 216.084,89.032 C215.884,89.631 215.784,90.358 215.784,91.212 L215.784,98.382 C215.584,98.418 215.357,98.446 215.103,98.464 C214.848,98.481 214.621,98.491 214.422,98.491 C214.239,98.491 214.022,98.481 213.767,98.464 C213.512,98.446 213.285,98.418 213.086,98.382 L213.086,78.4" id="Fill-7" fill="#414241"></path>
            <path d="M226.879,84.397 C227.134,84.361 227.389,84.334 227.643,84.316 C227.897,84.298 228.124,84.289 228.324,84.289 C228.578,84.289 228.837,84.298 229.102,84.316 C229.364,84.334 229.596,84.361 229.797,84.397 L232.522,95.819 L235.602,84.397 C235.803,84.361 236.021,84.334 236.257,84.316 C236.493,84.298 236.739,84.289 236.993,84.289 C237.284,84.307 237.534,84.32 237.743,84.33 C237.952,84.338 238.155,84.361 238.356,84.397 L241.409,95.628 L244.134,84.397 C244.335,84.361 244.535,84.334 244.735,84.316 C244.934,84.298 245.153,84.289 245.389,84.289 C245.588,84.289 245.811,84.298 246.057,84.316 C246.303,84.334 246.552,84.361 246.807,84.397 L242.637,98.382 C242.399,98.418 242.159,98.446 241.913,98.464 C241.668,98.481 241.445,98.491 241.247,98.491 C241.045,98.491 240.829,98.481 240.59,98.464 C240.356,98.446 240.118,98.418 239.883,98.382 L236.883,87.805 L233.75,98.382 C233.495,98.418 233.245,98.446 233,98.464 C232.753,98.481 232.531,98.491 232.332,98.491 C232.131,98.491 231.909,98.481 231.665,98.464 C231.419,98.446 231.196,98.418 230.997,98.382 L226.879,84.397" id="Fill-8" fill="#414241"></path>
            <path d="M249.532,81.317 C249.496,81.099 249.473,80.863 249.463,80.609 C249.456,80.354 249.45,80.127 249.45,79.927 C249.45,79.727 249.456,79.5 249.463,79.245 C249.473,78.991 249.496,78.764 249.532,78.564 C249.768,78.528 250.023,78.5 250.295,78.482 C250.567,78.464 250.803,78.455 251.004,78.455 C251.204,78.455 251.44,78.464 251.713,78.482 C251.987,78.5 252.231,78.528 252.449,78.564 C252.485,78.764 252.507,78.991 252.517,79.245 C252.527,79.5 252.531,79.727 252.531,79.927 C252.531,80.127 252.527,80.354 252.517,80.609 C252.507,80.863 252.485,81.099 252.449,81.317 C252.231,81.354 251.99,81.381 251.727,81.399 C251.462,81.417 251.231,81.426 251.032,81.426 C250.814,81.426 250.567,81.417 250.295,81.399 C250.023,81.381 249.768,81.354 249.532,81.317 Z M250.131,86.524 L248.36,86.524 C248.323,86.379 248.295,86.21 248.278,86.02 C248.26,85.829 248.251,85.643 248.251,85.461 C248.251,85.279 248.26,85.092 248.278,84.901 C248.295,84.711 248.323,84.543 248.36,84.397 L252.777,84.397 L252.777,98.382 C252.577,98.418 252.353,98.446 252.108,98.464 C251.864,98.481 251.641,98.491 251.44,98.491 C251.258,98.491 251.045,98.481 250.799,98.464 C250.554,98.446 250.332,98.418 250.131,98.382 L250.131,86.524 L250.131,86.524 Z" id="Fill-9" fill="#414241"></path>
            <path d="M256.836,78.4 C257.038,78.364 257.26,78.337 257.504,78.318 C257.75,78.301 257.973,78.291 258.173,78.291 C258.374,78.291 258.596,78.301 258.842,78.318 C259.086,78.337 259.309,78.364 259.51,78.4 L259.51,94.157 C259.51,94.665 259.553,95.065 259.645,95.356 C259.736,95.646 259.86,95.87 260.014,96.023 C260.169,96.179 260.349,96.279 260.558,96.324 C260.768,96.37 260.991,96.392 261.227,96.392 C261.389,96.392 261.575,96.383 261.786,96.365 C261.994,96.347 262.171,96.319 262.317,96.283 C262.481,96.919 262.562,97.61 262.562,98.354 C262.307,98.446 261.999,98.504 261.635,98.532 C261.272,98.559 260.935,98.573 260.628,98.573 C260.1,98.573 259.609,98.508 259.155,98.382 C258.7,98.255 258.3,98.046 257.956,97.755 C257.61,97.464 257.337,97.074 257.138,96.583 C256.938,96.092 256.836,95.483 256.836,94.756 L256.836,78.4" id="Fill-10" fill="#414241"></path>
            <path d="M271.15,78.782 C271.368,78.746 271.594,78.719 271.831,78.7 C272.067,78.682 272.303,78.673 272.541,78.673 C272.775,78.673 273.012,78.682 273.248,78.7 C273.485,78.719 273.711,78.746 273.93,78.782 L273.93,98.382 C273.711,98.418 273.489,98.446 273.262,98.464 C273.035,98.481 272.794,98.491 272.541,98.491 C272.303,98.491 272.063,98.481 271.817,98.464 C271.571,98.446 271.348,98.418 271.15,98.382 L271.15,78.782" id="Fill-11" fill="#414241"></path>
            <path d="M287.177,90.04 C287.177,89.532 287.11,89.045 286.973,88.582 C286.836,88.118 286.637,87.714 286.374,87.369 C286.11,87.023 285.774,86.747 285.366,86.537 C284.957,86.329 284.469,86.224 283.907,86.224 C282.797,86.224 281.948,86.56 281.358,87.233 C280.766,87.905 280.408,88.841 280.281,90.04 L287.177,90.04 Z M280.254,92.058 C280.29,93.584 280.686,94.702 281.44,95.411 C282.194,96.119 283.307,96.474 284.778,96.474 C286.069,96.474 287.296,96.247 288.46,95.792 C288.604,96.065 288.721,96.396 288.814,96.787 C288.905,97.179 288.958,97.564 288.977,97.945 C288.377,98.2 287.717,98.391 287.001,98.519 C286.284,98.645 285.488,98.709 284.616,98.709 C283.343,98.709 282.253,98.532 281.344,98.178 C280.434,97.823 279.684,97.323 279.094,96.678 C278.504,96.034 278.073,95.27 277.799,94.388 C277.528,93.507 277.391,92.539 277.391,91.485 C277.391,90.45 277.524,89.481 277.787,88.582 C278.049,87.683 278.455,86.901 278.999,86.237 C279.545,85.575 280.231,85.047 281.057,84.656 C281.885,84.266 282.862,84.071 283.987,84.071 C284.952,84.071 285.795,84.234 286.523,84.561 C287.251,84.888 287.86,85.338 288.35,85.911 C288.84,86.483 289.213,87.164 289.467,87.955 C289.721,88.746 289.849,89.604 289.849,90.531 C289.849,90.786 289.839,91.053 289.823,91.335 C289.803,91.617 289.786,91.858 289.767,92.058 L280.254,92.058 L280.254,92.058 Z" id="Fill-12" fill="#414241"></path>
            <path d="M302.444,95.956 C302.588,96.21 302.715,96.528 302.825,96.91 C302.933,97.291 302.997,97.682 303.016,98.082 C301.942,98.5 300.716,98.709 299.336,98.709 C297.009,98.709 295.255,98.05 294.074,96.733 C292.893,95.415 292.303,93.639 292.303,91.403 C292.303,90.368 292.448,89.404 292.739,88.514 C293.028,87.623 293.461,86.851 294.035,86.197 C294.606,85.542 295.319,85.024 296.173,84.643 C297.028,84.261 298.018,84.071 299.145,84.071 C299.909,84.071 300.581,84.116 301.162,84.206 C301.745,84.298 302.297,84.443 302.825,84.643 C302.825,84.953 302.784,85.311 302.702,85.72 C302.62,86.128 302.506,86.488 302.361,86.796 C301.469,86.488 300.453,86.333 299.309,86.333 C297.909,86.333 296.864,86.796 296.173,87.723 C295.483,88.65 295.138,89.877 295.138,91.403 C295.138,93.148 295.527,94.425 296.311,95.233 C297.091,96.042 298.163,96.447 299.526,96.447 C300.073,96.447 300.577,96.41 301.04,96.337 C301.503,96.265 301.97,96.138 302.444,95.956" id="Fill-13" fill="#414241"></path>
            <path d="M305.851,78.4 C306.049,78.364 306.272,78.337 306.518,78.318 C306.764,78.301 306.986,78.291 307.186,78.291 C307.385,78.291 307.613,78.301 307.868,78.318 C308.123,78.337 308.348,78.364 308.547,78.4 L308.547,86.524 C308.712,86.27 308.918,85.997 309.163,85.706 C309.407,85.415 309.709,85.147 310.062,84.901 C310.416,84.656 310.824,84.456 311.29,84.302 C311.752,84.148 312.266,84.071 312.829,84.071 C314.427,84.071 315.614,84.529 316.386,85.447 C317.159,86.365 317.544,87.723 317.544,89.522 L317.544,98.382 C317.344,98.418 317.122,98.446 316.877,98.464 C316.632,98.481 316.41,98.491 316.209,98.491 C316.008,98.491 315.787,98.481 315.541,98.464 C315.295,98.446 315.073,98.418 314.873,98.382 L314.873,90.259 C314.873,88.968 314.66,88.019 314.233,87.41 C313.805,86.801 313.156,86.497 312.283,86.497 C311.794,86.497 311.32,86.583 310.866,86.755 C310.411,86.928 310.012,87.201 309.667,87.573 C309.322,87.946 309.048,88.432 308.849,89.032 C308.648,89.631 308.547,90.358 308.547,91.212 L308.547,98.382 C308.348,98.418 308.123,98.446 307.868,98.464 C307.613,98.481 307.385,98.491 307.186,98.491 C307.003,98.491 306.786,98.481 306.532,98.464 C306.277,98.446 306.049,98.418 305.851,98.382 L305.851,78.4" id="Fill-14" fill="#414241"></path>
            <path d="M326.13,98.41 C325.987,98.41 325.835,98.414 325.68,98.423 C325.527,98.432 325.378,98.436 325.232,98.436 C325.049,98.436 324.858,98.432 324.66,98.423 C324.46,98.414 324.295,98.399 324.168,98.382 L319.535,84.397 C319.77,84.361 320.016,84.338 320.27,84.33 C320.525,84.32 320.761,84.316 320.979,84.316 C321.215,84.316 321.478,84.32 321.769,84.33 C322.061,84.338 322.305,84.361 322.506,84.397 L326.378,97.4 L330.385,84.397 C330.765,84.343 331.211,84.316 331.72,84.316 C331.919,84.316 332.147,84.32 332.402,84.33 C332.656,84.338 332.911,84.361 333.166,84.397 L327.739,101.216 C327.484,101.962 327.222,102.589 326.949,103.098 C326.676,103.606 326.367,104.016 326.022,104.325 C325.676,104.633 325.291,104.851 324.863,104.979 C324.437,105.106 323.941,105.169 323.378,105.169 C322.96,105.169 322.546,105.138 322.138,105.074 C321.729,105.01 321.371,104.933 321.061,104.843 C321.061,104.424 321.096,104.052 321.17,103.725 C321.244,103.397 321.351,103.071 321.498,102.743 C321.661,102.798 321.883,102.856 322.165,102.921 C322.448,102.984 322.751,103.016 323.079,103.016 C323.314,103.016 323.537,102.993 323.746,102.948 C323.956,102.902 324.151,102.812 324.333,102.675 C324.513,102.539 324.682,102.344 324.836,102.089 C324.991,101.835 325.14,101.49 325.287,101.053 L326.13,98.41" id="Fill-15" fill="#414241"></path>
            <path d="M344.068,86.769 C343.705,86.624 343.314,86.515 342.897,86.442 C342.478,86.37 342.022,86.333 341.533,86.333 C340.787,86.333 340.143,86.469 339.597,86.742 C339.051,87.014 338.602,87.387 338.249,87.859 C337.894,88.332 337.629,88.891 337.459,89.536 C337.284,90.182 337.199,90.885 337.199,91.649 C337.216,93.375 337.625,94.611 338.424,95.356 C339.225,96.102 340.314,96.474 341.698,96.474 C342.169,96.474 342.605,96.451 343.004,96.406 C343.405,96.36 343.758,96.292 344.068,96.201 L344.068,86.769 Z M344.068,78.4 C344.267,78.364 344.495,78.337 344.75,78.318 C345.003,78.301 345.221,78.291 345.403,78.291 C345.603,78.291 345.826,78.301 346.071,78.318 C346.317,78.337 346.539,78.364 346.739,78.4 L346.739,98 C346.048,98.2 345.276,98.369 344.422,98.504 C343.567,98.641 342.614,98.709 341.56,98.709 C340.579,98.709 339.647,98.586 338.765,98.341 C337.884,98.095 337.117,97.691 336.461,97.128 C335.808,96.564 335.29,95.837 334.908,94.948 C334.527,94.057 334.336,92.957 334.336,91.649 C334.336,90.522 334.504,89.495 334.84,88.569 C335.177,87.642 335.654,86.847 336.271,86.183 C336.889,85.52 337.629,85.007 338.494,84.643 C339.356,84.279 340.314,84.098 341.37,84.098 C341.841,84.098 342.319,84.134 342.801,84.206 C343.281,84.279 343.705,84.371 344.068,84.479 L344.068,78.4 L344.068,78.4 Z" id="Fill-16" fill="#414241"></path>
            <path d="M170.071,121.887 C169.798,121.851 169.452,121.815 169.035,121.778 C168.616,121.742 168.262,121.723 167.971,121.723 C166.845,121.723 165.986,121.933 165.396,122.351 C164.805,122.768 164.51,123.404 164.51,124.259 C164.51,124.803 164.609,125.23 164.809,125.54 C165.009,125.848 165.259,126.084 165.559,126.249 C165.858,126.413 166.19,126.512 166.554,126.549 C166.918,126.585 167.263,126.604 167.59,126.604 C168.008,126.604 168.439,126.581 168.885,126.535 C169.33,126.49 169.725,126.421 170.071,126.331 L170.071,121.887 Z M170.071,119.243 C170.071,118.171 169.798,117.426 169.253,117.007 C168.708,116.59 167.917,116.381 166.881,116.381 C166.245,116.381 165.65,116.431 165.096,116.531 C164.542,116.63 164.001,116.762 163.474,116.926 C163.128,116.327 162.956,115.608 162.956,114.772 C163.573,114.573 164.255,114.418 165,114.309 C165.745,114.2 166.462,114.146 167.154,114.146 C168.971,114.146 170.352,114.559 171.297,115.386 C172.242,116.213 172.715,117.535 172.715,119.352 L172.715,128.103 C172.079,128.249 171.306,128.397 170.398,128.552 C169.489,128.706 168.562,128.784 167.617,128.784 C166.727,128.784 165.922,128.702 165.205,128.539 C164.486,128.374 163.878,128.111 163.378,127.748 C162.878,127.384 162.492,126.922 162.22,126.357 C161.947,125.794 161.811,125.113 161.811,124.313 C161.811,123.532 161.97,122.845 162.288,122.255 C162.606,121.665 163.037,121.174 163.583,120.784 C164.128,120.392 164.755,120.102 165.463,119.911 C166.172,119.72 166.918,119.625 167.699,119.625 C168.28,119.625 168.757,119.639 169.13,119.666 C169.503,119.693 169.815,119.725 170.071,119.761 L170.071,119.243 L170.071,119.243 Z" id="Fill-17" fill="#414241"></path>
            <path d="M194.251,118.316 C194.468,118.28 194.695,118.252 194.932,118.234 C195.168,118.217 195.404,118.208 195.641,118.208 C195.877,118.208 196.113,118.217 196.349,118.234 C196.586,118.252 196.803,118.28 197.004,118.316 L197.004,127.884 C196.622,128.047 196.204,128.188 195.75,128.307 C195.295,128.424 194.822,128.515 194.333,128.579 C193.842,128.642 193.351,128.692 192.86,128.729 C192.37,128.766 191.906,128.784 191.47,128.784 C190.016,128.784 188.708,128.557 187.544,128.103 C186.381,127.648 185.4,126.989 184.601,126.126 C183.8,125.263 183.187,124.213 182.76,122.978 C182.333,121.742 182.12,120.343 182.12,118.78 C182.12,117.217 182.338,115.804 182.774,114.541 C183.21,113.278 183.833,112.201 184.642,111.31 C185.45,110.42 186.413,109.734 187.531,109.252 C188.648,108.771 189.889,108.53 191.252,108.53 C192.288,108.53 193.187,108.598 193.951,108.734 C194.713,108.871 195.404,109.057 196.023,109.293 C195.986,109.711 195.909,110.097 195.791,110.452 C195.672,110.806 195.532,111.184 195.368,111.583 C194.859,111.419 194.309,111.274 193.719,111.147 C193.128,111.02 192.387,110.956 191.497,110.956 C190.534,110.956 189.657,111.129 188.866,111.474 C188.076,111.819 187.404,112.323 186.849,112.987 C186.295,113.651 185.863,114.468 185.554,115.44 C185.246,116.413 185.091,117.526 185.091,118.78 C185.091,120.07 185.25,121.182 185.568,122.119 C185.886,123.055 186.336,123.837 186.918,124.463 C187.499,125.09 188.185,125.553 188.975,125.854 C189.766,126.153 190.643,126.302 191.606,126.302 C192.188,126.302 192.696,126.272 193.132,126.208 C193.569,126.145 193.941,126.068 194.251,125.976 L194.251,118.316" id="Fill-18" fill="#414241"></path>
            <path d="M206.653,126.63 C207.907,126.63 208.834,126.177 209.434,125.267 C210.033,124.359 210.333,123.096 210.333,121.479 C210.333,119.861 210.033,118.603 209.434,117.703 C208.834,116.803 207.907,116.354 206.653,116.354 C205.399,116.354 204.477,116.803 203.886,117.703 C203.295,118.603 203.001,119.861 203.001,121.479 C203.001,123.096 203.295,124.359 203.886,125.267 C204.477,126.177 205.399,126.63 206.653,126.63 Z M206.653,128.784 C205.563,128.784 204.608,128.597 203.791,128.225 C202.973,127.853 202.292,127.339 201.747,126.685 C201.201,126.031 200.796,125.259 200.533,124.368 C200.27,123.477 200.138,122.514 200.138,121.479 C200.138,120.442 200.27,119.479 200.533,118.589 C200.796,117.699 201.201,116.926 201.747,116.272 C202.292,115.617 202.973,115.1 203.791,114.718 C204.608,114.336 205.563,114.146 206.653,114.146 C207.744,114.146 208.698,114.336 209.516,114.718 C210.333,115.1 211.015,115.617 211.56,116.272 C212.105,116.926 212.509,117.699 212.773,118.589 C213.037,119.479 213.169,120.442 213.169,121.479 C213.169,122.514 213.037,123.477 212.773,124.368 C212.509,125.259 212.105,126.031 211.56,126.685 C211.015,127.339 210.333,127.853 209.516,128.225 C208.698,128.597 207.744,128.784 206.653,128.784 L206.653,128.784 Z" id="Fill-19" fill="#414241"></path>
            <path d="M217.258,116.599 L214.968,116.599 C214.896,116.308 214.859,115.954 214.859,115.536 C214.859,115.136 214.896,114.782 214.968,114.472 L217.258,114.472 L217.258,113.491 C217.258,111.765 217.69,110.452 218.553,109.552 C219.416,108.652 220.675,108.203 222.328,108.203 C222.783,108.203 223.183,108.226 223.528,108.271 C223.873,108.316 224.2,108.385 224.509,108.476 C224.472,108.93 224.422,109.32 224.358,109.648 C224.295,109.975 224.209,110.311 224.1,110.656 C223.918,110.62 223.705,110.579 223.46,110.534 C223.214,110.489 222.919,110.465 222.574,110.465 C222.173,110.465 221.815,110.506 221.497,110.588 C221.179,110.669 220.906,110.825 220.68,111.051 C220.452,111.279 220.273,111.597 220.148,112.005 C220.021,112.415 219.957,112.938 219.957,113.573 L219.957,114.472 L223.528,114.472 C223.583,114.836 223.61,115.208 223.61,115.59 C223.61,115.936 223.583,116.272 223.528,116.599 L219.957,116.599 L219.957,128.456 C219.757,128.493 219.534,128.52 219.289,128.539 C219.044,128.557 218.82,128.565 218.622,128.565 C218.421,128.565 218.194,128.557 217.94,128.539 C217.685,128.52 217.458,128.493 217.258,128.456 L217.258,116.599" id="Fill-20" fill="#414241"></path>
            <path d="M233.232,121.887 C232.96,121.851 232.614,121.815 232.196,121.778 C231.777,121.742 231.423,121.723 231.133,121.723 C230.004,121.723 229.147,121.933 228.556,122.351 C227.966,122.768 227.67,123.404 227.67,124.259 C227.67,124.803 227.77,125.23 227.971,125.54 C228.17,125.848 228.42,126.084 228.72,126.249 C229.02,126.413 229.352,126.512 229.715,126.549 C230.079,126.585 230.423,126.604 230.752,126.604 C231.169,126.604 231.6,126.581 232.045,126.535 C232.492,126.49 232.885,126.421 233.232,126.331 L233.232,121.887 Z M233.232,119.243 C233.232,118.171 232.96,117.426 232.413,117.007 C231.869,116.59 231.079,116.381 230.042,116.381 C229.405,116.381 228.811,116.431 228.257,116.531 C227.702,116.63 227.161,116.762 226.635,116.926 C226.29,116.327 226.117,115.608 226.117,114.772 C226.735,114.573 227.416,114.418 228.163,114.309 C228.906,114.2 229.624,114.146 230.315,114.146 C232.131,114.146 233.514,114.559 234.458,115.386 C235.403,116.213 235.877,117.535 235.877,119.352 L235.877,128.103 C235.241,128.249 234.467,128.397 233.559,128.552 C232.651,128.706 231.723,128.784 230.778,128.784 C229.887,128.784 229.084,128.702 228.366,128.539 C227.648,128.374 227.039,128.111 226.539,127.748 C226.04,127.384 225.653,126.922 225.381,126.357 C225.107,125.794 224.972,125.113 224.972,124.313 C224.972,123.532 225.131,122.845 225.449,122.255 C225.766,121.665 226.199,121.174 226.744,120.784 C227.288,120.392 227.917,120.102 228.625,119.911 C229.335,119.72 230.079,119.625 230.86,119.625 C231.442,119.625 231.919,119.639 232.291,119.666 C232.663,119.693 232.976,119.725 233.232,119.761 L233.232,119.243 L233.232,119.243 Z" id="Fill-21" fill="#414241"></path>
            <path d="M239.612,108.476 C239.809,108.439 240.034,108.412 240.28,108.394 C240.524,108.376 240.747,108.367 240.946,108.367 C241.146,108.367 241.369,108.376 241.615,108.394 C241.86,108.412 242.083,108.439 242.282,108.476 L242.282,124.232 C242.282,124.74 242.329,125.14 242.419,125.431 C242.509,125.721 242.631,125.944 242.786,126.098 C242.94,126.254 243.122,126.354 243.332,126.398 C243.54,126.444 243.762,126.466 244,126.466 C244.165,126.466 244.35,126.458 244.557,126.44 C244.767,126.421 244.945,126.395 245.09,126.357 C245.253,126.994 245.336,127.684 245.336,128.429 C245.082,128.52 244.772,128.579 244.409,128.607 C244.045,128.634 243.709,128.647 243.401,128.647 C242.873,128.647 242.381,128.583 241.928,128.456 C241.473,128.33 241.073,128.121 240.729,127.83 C240.382,127.54 240.111,127.148 239.911,126.658 C239.711,126.167 239.612,125.558 239.612,124.832 L239.612,108.476" id="Fill-22" fill="#414241"></path>
            <path d="M266.435,125.594 C266.835,126.376 267.09,127.129 267.198,127.857 C266.435,128.184 265.653,128.421 264.854,128.565 C264.053,128.711 263.191,128.784 262.263,128.784 C260.846,128.784 259.569,128.552 258.434,128.089 C257.297,127.625 256.338,126.962 255.558,126.098 C254.776,125.235 254.176,124.187 253.758,122.951 C253.34,121.715 253.131,120.324 253.131,118.78 C253.131,117.217 253.34,115.804 253.758,114.541 C254.176,113.278 254.776,112.201 255.558,111.31 C256.338,110.42 257.294,109.734 258.42,109.252 C259.546,108.771 260.809,108.53 262.21,108.53 C263.245,108.53 264.135,108.603 264.88,108.748 C265.626,108.893 266.29,109.066 266.871,109.266 C266.835,109.684 266.756,110.07 266.639,110.424 C266.52,110.778 266.379,111.156 266.215,111.556 C265.944,111.465 265.68,111.383 265.425,111.31 C265.17,111.238 264.899,111.174 264.608,111.12 C264.317,111.065 263.995,111.024 263.641,110.997 C263.286,110.97 262.882,110.956 262.427,110.956 C260.448,110.956 258.907,111.628 257.806,112.974 C256.708,114.318 256.158,116.254 256.158,118.78 C256.158,120.07 256.312,121.188 256.622,122.132 C256.93,123.078 257.366,123.858 257.93,124.477 C258.493,125.095 259.169,125.558 259.96,125.867 C260.751,126.177 261.637,126.331 262.618,126.331 C263.381,126.331 264.072,126.267 264.69,126.14 C265.307,126.012 265.891,125.83 266.435,125.594" id="Fill-23" fill="#C0252F"></path>
            <path d="M274.586,128.484 C274.44,128.484 274.291,128.488 274.136,128.498 C273.982,128.506 273.831,128.512 273.686,128.512 C273.504,128.512 273.313,128.506 273.113,128.498 C272.914,128.488 272.75,128.475 272.624,128.456 L267.988,114.472 C268.225,114.436 268.469,114.414 268.725,114.404 C268.979,114.395 269.215,114.391 269.433,114.391 C269.669,114.391 269.934,114.395 270.223,114.404 C270.514,114.414 270.76,114.436 270.96,114.472 L274.831,127.475 L278.838,114.472 C279.219,114.418 279.665,114.391 280.174,114.391 C280.374,114.391 280.6,114.395 280.854,114.404 C281.109,114.414 281.364,114.436 281.618,114.472 L276.194,131.292 C275.94,132.037 275.676,132.664 275.404,133.173 C275.131,133.682 274.821,134.091 274.477,134.399 C274.131,134.708 273.745,134.926 273.319,135.054 C272.89,135.181 272.395,135.245 271.833,135.245 C271.415,135.245 271.001,135.213 270.592,135.149 C270.183,135.085 269.823,135.008 269.515,134.918 C269.515,134.499 269.551,134.127 269.624,133.799 C269.696,133.472 269.806,133.146 269.951,132.818 C270.115,132.873 270.337,132.932 270.619,132.995 C270.901,133.059 271.206,133.091 271.532,133.091 C271.768,133.091 271.992,133.067 272.2,133.022 C272.409,132.977 272.604,132.886 272.786,132.75 C272.969,132.613 273.136,132.419 273.291,132.164 C273.445,131.91 273.594,131.565 273.74,131.128 L274.586,128.484" id="Fill-24" fill="#C0252F"></path>
            <path d="M283.963,114.472 C284.163,114.436 284.358,114.409 284.549,114.391 C284.74,114.373 284.934,114.364 285.135,114.364 C285.335,114.364 285.52,114.373 285.694,114.391 C285.867,114.409 286.053,114.436 286.253,114.472 C286.307,114.745 286.362,115.104 286.417,115.549 C286.471,115.995 286.499,116.372 286.499,116.681 C286.663,116.354 286.866,116.04 287.112,115.74 C287.358,115.44 287.646,115.172 287.984,114.937 C288.319,114.7 288.706,114.509 289.142,114.364 C289.579,114.218 290.059,114.146 290.586,114.146 C291.677,114.146 292.518,114.368 293.109,114.813 C293.699,115.259 294.149,115.881 294.458,116.681 C294.639,116.372 294.862,116.063 295.126,115.753 C295.389,115.445 295.684,115.172 296.012,114.937 C296.338,114.7 296.711,114.509 297.129,114.364 C297.546,114.218 298.019,114.146 298.547,114.146 C300.165,114.146 301.341,114.6 302.077,115.508 C302.813,116.417 303.18,117.762 303.18,119.543 L303.18,128.456 C302.981,128.493 302.754,128.52 302.501,128.539 C302.246,128.557 302.018,128.565 301.817,128.565 C301.618,128.565 301.397,128.557 301.151,128.539 C300.905,128.52 300.682,128.493 300.483,128.456 L300.483,120.333 C300.483,119.079 300.292,118.139 299.911,117.512 C299.529,116.885 298.901,116.572 298.029,116.572 C297.102,116.572 296.352,116.908 295.78,117.581 C295.208,118.252 294.921,119.243 294.921,120.551 L294.921,128.456 C294.722,128.493 294.499,128.52 294.253,128.539 C294.007,128.557 293.785,128.565 293.586,128.565 C293.385,128.565 293.163,128.557 292.919,128.539 C292.672,128.52 292.45,128.493 292.251,128.456 L292.251,120.143 C292.251,118.925 292.068,118.012 291.704,117.403 C291.34,116.794 290.76,116.49 289.96,116.49 C289.506,116.49 289.079,116.59 288.679,116.79 C288.279,116.99 287.929,117.29 287.629,117.689 C287.329,118.089 287.093,118.594 286.92,119.202 C286.749,119.811 286.663,120.516 286.663,121.314 L286.663,128.456 C286.461,128.493 286.239,128.52 285.995,128.539 C285.749,128.557 285.526,128.565 285.327,128.565 C285.126,128.565 284.898,128.557 284.644,128.539 C284.39,128.52 284.163,128.493 283.963,128.456 L283.963,114.472" id="Fill-25" fill="#C0252F"></path>
            <path d="M306.969,114.472 C307.17,114.436 307.36,114.409 307.543,114.391 C307.723,114.373 307.915,114.364 308.115,114.364 C308.314,114.364 308.514,114.373 308.714,114.391 C308.914,114.409 309.096,114.436 309.259,114.472 C309.314,114.745 309.368,115.104 309.423,115.549 C309.478,115.995 309.505,116.372 309.505,116.681 C309.887,116.063 310.391,115.527 311.017,115.072 C311.644,114.618 312.45,114.391 313.431,114.391 C313.575,114.391 313.725,114.395 313.88,114.404 C314.035,114.414 314.167,114.427 314.275,114.445 C314.312,114.609 314.338,114.782 314.357,114.963 C314.376,115.145 314.384,115.336 314.384,115.536 C314.384,115.753 314.371,115.981 314.343,116.217 C314.317,116.454 314.284,116.681 314.249,116.898 C314.101,116.862 313.952,116.844 313.798,116.844 C313.644,116.844 313.521,116.844 313.431,116.844 C312.939,116.844 312.471,116.913 312.026,117.048 C311.581,117.185 311.181,117.426 310.827,117.771 C310.471,118.116 310.19,118.589 309.982,119.189 C309.772,119.789 309.669,120.561 309.669,121.505 L309.669,128.456 C309.468,128.493 309.246,128.52 309.001,128.539 C308.755,128.557 308.532,128.565 308.333,128.565 C308.131,128.565 307.91,128.557 307.665,128.539 C307.419,128.52 307.187,128.493 306.969,128.456 L306.969,114.472" id="Fill-26" fill="#C0252F"></path>
            <path d="M316.673,114.472 C316.875,114.436 317.101,114.409 317.357,114.391 C317.61,114.373 317.829,114.364 318.01,114.364 C318.21,114.364 318.436,114.373 318.692,114.391 C318.945,114.409 319.172,114.436 319.374,114.472 L319.374,122.132 C319.374,123.004 319.455,123.727 319.619,124.299 C319.782,124.872 320.027,125.322 320.355,125.649 C320.681,125.976 321.082,126.204 321.554,126.331 C322.026,126.458 322.571,126.521 323.189,126.521 C324.117,126.521 324.907,126.421 325.56,126.222 L325.56,114.472 C325.761,114.436 325.984,114.409 326.229,114.391 C326.474,114.373 326.696,114.364 326.897,114.364 C327.096,114.364 327.319,114.373 327.565,114.391 C327.81,114.409 328.033,114.436 328.233,114.472 L328.233,128.021 C327.597,128.202 326.838,128.374 325.958,128.539 C325.075,128.702 324.161,128.784 323.216,128.784 C322.327,128.784 321.486,128.706 320.695,128.552 C319.905,128.397 319.21,128.084 318.61,127.612 C318.01,127.14 317.538,126.476 317.193,125.622 C316.848,124.768 316.673,123.641 316.673,122.241 L316.673,114.472" id="Fill-27" fill="#C0252F"></path>
            <path d="M162.901,148.814 C163.12,148.777 163.347,148.751 163.583,148.732 C163.818,148.715 164.055,148.705 164.292,148.705 C164.527,148.705 164.764,148.715 165,148.732 C165.236,148.751 165.463,148.777 165.682,148.814 L165.682,156.883 L174.023,156.883 L174.023,148.814 C174.223,148.777 174.441,148.751 174.678,148.732 C174.913,148.715 175.15,148.705 175.386,148.705 C175.623,148.705 175.863,148.715 176.109,148.732 C176.355,148.751 176.586,148.777 176.804,148.814 L176.804,168.414 C176.604,168.45 176.385,168.479 176.149,168.496 C175.913,168.514 175.668,168.523 175.414,168.523 C175.177,168.523 174.937,168.514 174.691,168.496 C174.446,168.479 174.223,168.45 174.023,168.414 L174.023,159.336 L165.682,159.336 L165.682,168.414 C165.463,168.45 165.241,168.479 165.014,168.496 C164.787,168.514 164.546,168.523 164.292,168.523 C164.055,168.523 163.815,168.514 163.569,168.496 C163.324,168.479 163.101,168.45 162.901,168.414 L162.901,148.814" id="Fill-28" fill="#414241"></path>
            <path d="M190.052,160.072 C190.052,159.564 189.984,159.077 189.848,158.615 C189.711,158.15 189.511,157.747 189.248,157.4 C188.984,157.056 188.648,156.779 188.239,156.569 C187.83,156.36 187.343,156.256 186.781,156.256 C185.672,156.256 184.822,156.594 184.232,157.265 C183.641,157.938 183.282,158.873 183.155,160.072 L190.052,160.072 Z M183.128,162.09 C183.164,163.616 183.559,164.734 184.314,165.443 C185.067,166.151 186.181,166.506 187.652,166.506 C188.943,166.506 190.17,166.279 191.333,165.824 C191.478,166.097 191.596,166.428 191.687,166.82 C191.778,167.21 191.832,167.596 191.851,167.978 C191.251,168.232 190.592,168.423 189.875,168.551 C189.157,168.678 188.362,168.741 187.489,168.741 C186.217,168.741 185.127,168.563 184.218,168.21 C183.309,167.855 182.56,167.355 181.969,166.711 C181.378,166.066 180.947,165.303 180.674,164.42 C180.402,163.539 180.265,162.57 180.265,161.518 C180.265,160.482 180.397,159.514 180.661,158.615 C180.924,157.715 181.329,156.934 181.874,156.27 C182.419,155.606 183.105,155.079 183.932,154.689 C184.758,154.299 185.736,154.103 186.862,154.103 C187.825,154.103 188.67,154.267 189.398,154.594 C190.124,154.92 190.733,155.37 191.224,155.943 C191.715,156.515 192.087,157.196 192.341,157.986 C192.596,158.777 192.723,159.637 192.723,160.563 C192.723,160.817 192.714,161.085 192.695,161.367 C192.677,161.649 192.659,161.891 192.641,162.09 L183.128,162.09 L183.128,162.09 Z" id="Fill-29" fill="#414241"></path>
            <path d="M203.382,161.844 C203.109,161.809 202.763,161.771 202.346,161.735 C201.928,161.699 201.573,161.682 201.283,161.682 C200.156,161.682 199.297,161.891 198.707,162.309 C198.116,162.727 197.821,163.361 197.821,164.215 C197.821,164.762 197.92,165.188 198.121,165.496 C198.321,165.807 198.57,166.043 198.87,166.205 C199.17,166.369 199.502,166.47 199.865,166.506 C200.229,166.542 200.574,166.561 200.901,166.561 C201.319,166.561 201.75,166.539 202.196,166.492 C202.641,166.446 203.037,166.379 203.382,166.287 L203.382,161.844 Z M203.382,159.201 C203.382,158.129 203.109,157.383 202.564,156.965 C202.019,156.548 201.228,156.338 200.192,156.338 C199.556,156.338 198.961,156.389 198.407,156.487 C197.853,156.588 197.312,156.719 196.785,156.883 C196.44,156.283 196.267,155.566 196.267,154.729 C196.885,154.529 197.566,154.375 198.312,154.267 C199.056,154.158 199.774,154.103 200.465,154.103 C202.282,154.103 203.664,154.516 204.608,155.344 C205.553,156.17 206.026,157.492 206.026,159.31 L206.026,168.06 C205.39,168.205 204.618,168.355 203.709,168.51 C202.8,168.664 201.873,168.741 200.929,168.741 C200.038,168.741 199.233,168.659 198.516,168.496 C197.797,168.332 197.19,168.069 196.69,167.706 C196.19,167.342 195.803,166.879 195.531,166.316 C195.258,165.752 195.122,165.071 195.122,164.271 C195.122,163.49 195.281,162.803 195.599,162.213 C195.917,161.623 196.349,161.132 196.894,160.74 C197.439,160.35 198.066,160.059 198.775,159.867 C199.484,159.677 200.229,159.582 201.01,159.582 C201.592,159.582 202.068,159.596 202.441,159.623 C202.814,159.65 203.127,159.682 203.382,159.719 L203.382,159.201 L203.382,159.201 Z" id="Fill-30" fill="#414241"></path>
            <path d="M209.76,148.433 C209.96,148.396 210.183,148.369 210.428,148.352 C210.673,148.332 210.896,148.324 211.096,148.324 C211.295,148.324 211.519,148.332 211.764,148.352 C212.009,148.369 212.232,148.396 212.432,148.433 L212.432,164.188 C212.432,164.697 212.477,165.098 212.568,165.388 C212.659,165.68 212.782,165.902 212.936,166.057 C213.09,166.211 213.272,166.311 213.482,166.355 C213.69,166.401 213.913,166.425 214.149,166.425 C214.313,166.425 214.499,166.414 214.708,166.396 C214.917,166.379 215.094,166.352 215.24,166.316 C215.403,166.952 215.485,167.643 215.485,168.387 C215.231,168.479 214.921,168.537 214.558,168.563 C214.195,168.592 213.858,168.605 213.549,168.605 C213.022,168.605 212.532,168.541 212.078,168.414 C211.623,168.287 211.223,168.078 210.878,167.787 C210.532,167.496 210.26,167.105 210.06,166.615 C209.86,166.125 209.76,165.516 209.76,164.789 L209.76,148.433" id="Fill-31" fill="#414241"></path>
            <path d="M218.184,156.583 L216.058,156.583 L215.948,156.201 L220.637,150.967 L220.856,150.967 L220.856,154.43 L224.399,154.43 C224.471,154.739 224.508,155.084 224.508,155.466 C224.508,155.665 224.498,155.856 224.481,156.039 C224.462,156.22 224.434,156.402 224.399,156.583 L220.856,156.583 L220.856,162.963 C220.856,163.725 220.887,164.334 220.952,164.789 C221.014,165.242 221.123,165.592 221.277,165.838 C221.431,166.084 221.642,166.247 221.905,166.329 C222.168,166.41 222.5,166.451 222.9,166.451 C223.208,166.451 223.5,166.428 223.773,166.383 C224.045,166.338 224.29,166.287 224.508,166.233 C224.635,166.598 224.713,166.969 224.74,167.351 C224.767,167.732 224.781,168.069 224.781,168.359 C224.418,168.45 224.036,168.518 223.637,168.563 C223.235,168.609 222.81,168.633 222.354,168.633 C221.046,168.633 220.024,168.314 219.288,167.678 C218.552,167.043 218.184,165.988 218.184,164.516 L218.184,156.583" id="Fill-32" fill="#414241"></path>
            <path d="M227.125,148.433 C227.325,148.396 227.547,148.369 227.793,148.352 C228.038,148.332 228.26,148.324 228.461,148.324 C228.66,148.324 228.886,148.332 229.141,148.352 C229.395,148.369 229.624,148.396 229.824,148.433 L229.824,156.557 C229.987,156.301 230.191,156.029 230.436,155.738 C230.683,155.447 230.981,155.18 231.336,154.934 C231.692,154.689 232.1,154.489 232.563,154.334 C233.026,154.18 233.54,154.103 234.104,154.103 C235.703,154.103 236.887,154.562 237.661,155.479 C238.432,156.396 238.819,157.756 238.819,159.555 L238.819,168.414 C238.619,168.45 238.397,168.479 238.151,168.496 C237.905,168.514 237.682,168.523 237.483,168.523 C237.284,168.523 237.061,168.514 236.817,168.496 C236.571,168.479 236.348,168.45 236.149,168.414 L236.149,160.291 C236.149,159 235.934,158.052 235.506,157.441 C235.08,156.832 234.43,156.529 233.559,156.529 C233.067,156.529 232.594,156.615 232.141,156.787 C231.686,156.96 231.286,157.232 230.941,157.605 C230.594,157.979 230.323,158.465 230.122,159.063 C229.922,159.664 229.824,160.391 229.824,161.244 L229.824,168.414 C229.624,168.45 229.395,168.479 229.141,168.496 C228.886,168.514 228.66,168.523 228.461,168.523 C228.278,168.523 228.061,168.514 227.805,168.496 C227.551,168.479 227.325,168.45 227.125,168.414 L227.125,148.433" id="Fill-33" fill="#414241"></path>
            <path d="M256.211,161.844 C255.939,161.809 255.592,161.771 255.175,161.735 C254.756,161.699 254.401,161.682 254.112,161.682 C252.985,161.682 252.126,161.891 251.536,162.309 C250.944,162.727 250.649,163.361 250.649,164.215 C250.649,164.762 250.751,165.188 250.95,165.496 C251.149,165.807 251.399,166.043 251.7,166.205 C251.999,166.369 252.331,166.47 252.694,166.506 C253.058,166.542 253.403,166.561 253.73,166.561 C254.147,166.561 254.579,166.539 255.026,166.492 C255.47,166.446 255.866,166.379 256.211,166.287 L256.211,161.844 Z M256.211,159.201 C256.211,158.129 255.939,157.383 255.393,156.965 C254.847,156.548 254.057,156.338 253.022,156.338 C252.385,156.338 251.79,156.389 251.236,156.487 C250.682,156.588 250.141,156.719 249.614,156.883 C249.27,156.283 249.096,155.566 249.096,154.729 C249.713,154.529 250.395,154.375 251.141,154.267 C251.885,154.158 252.603,154.103 253.294,154.103 C255.112,154.103 256.492,154.516 257.436,155.344 C258.381,156.17 258.855,157.492 258.855,159.31 L258.855,168.06 C258.219,168.205 257.446,168.355 256.539,168.51 C255.629,168.664 254.703,168.741 253.758,168.741 C252.868,168.741 252.062,168.659 251.344,168.496 C250.627,168.332 250.018,168.069 249.519,167.706 C249.018,167.342 248.633,166.879 248.36,166.316 C248.087,165.752 247.95,165.071 247.95,164.271 C247.95,163.49 248.109,162.803 248.427,162.213 C248.745,161.623 249.178,161.132 249.722,160.74 C250.268,160.35 250.894,160.059 251.604,159.867 C252.313,159.677 253.058,159.582 253.838,159.582 C254.42,159.582 254.897,159.596 255.27,159.623 C255.643,159.65 255.956,159.682 256.211,159.719 L256.211,159.201 L256.211,159.201 Z" id="Fill-34" fill="#414241"></path>
            <path d="M262.645,154.43 C262.844,154.395 263.04,154.365 263.23,154.349 C263.42,154.33 263.617,154.32 263.817,154.32 C264.016,154.32 264.202,154.33 264.376,154.349 C264.547,154.365 264.734,154.395 264.934,154.43 C264.99,154.702 265.044,155.07 265.097,155.535 C265.153,155.997 265.179,156.384 265.179,156.691 C265.362,156.384 265.592,156.075 265.874,155.766 C266.157,155.457 266.479,155.18 266.842,154.934 C267.206,154.689 267.624,154.489 268.096,154.334 C268.568,154.18 269.086,154.103 269.649,154.103 C271.249,154.103 272.43,154.562 273.194,155.479 C273.958,156.396 274.338,157.756 274.338,159.555 L274.338,168.414 C274.139,168.45 273.911,168.479 273.657,168.496 C273.403,168.514 273.176,168.523 272.976,168.523 C272.775,168.523 272.553,168.514 272.307,168.496 C272.063,168.479 271.84,168.45 271.639,168.414 L271.639,160.291 C271.639,159 271.44,158.052 271.04,157.441 C270.641,156.832 270.004,156.529 269.131,156.529 C268.624,156.529 268.142,156.619 267.687,156.801 C267.233,156.983 266.833,157.265 266.488,157.646 C266.142,158.028 265.866,158.523 265.657,159.133 C265.448,159.742 265.343,160.473 265.343,161.326 L265.343,168.414 C265.143,168.45 264.921,168.479 264.674,168.496 C264.429,168.514 264.207,168.523 264.008,168.523 C263.807,168.523 263.581,168.514 263.325,168.496 C263.071,168.479 262.844,168.45 262.645,168.414 L262.645,154.43" id="Fill-35" fill="#414241"></path>
            <path d="M287.096,156.801 C286.732,156.656 286.342,156.548 285.923,156.475 C285.504,156.402 285.051,156.365 284.56,156.365 C283.816,156.365 283.169,156.501 282.626,156.773 C282.081,157.047 281.629,157.419 281.276,157.891 C280.922,158.365 280.659,158.923 280.485,159.568 C280.313,160.214 280.227,160.918 280.227,161.682 C280.245,163.408 280.654,164.643 281.454,165.388 C282.253,166.133 283.343,166.506 284.724,166.506 C285.196,166.506 285.631,166.483 286.034,166.438 C286.432,166.393 286.788,166.324 287.096,166.233 L287.096,156.801 Z M287.096,148.433 C287.296,148.396 287.522,148.369 287.778,148.352 C288.032,148.332 288.25,148.324 288.432,148.324 C288.631,148.324 288.854,148.332 289.1,148.352 C289.344,148.369 289.567,148.396 289.768,148.433 L289.768,168.033 C289.076,168.232 288.305,168.4 287.451,168.537 C286.596,168.672 285.641,168.741 284.588,168.741 C283.607,168.741 282.675,168.619 281.794,168.373 C280.912,168.128 280.145,167.725 279.491,167.16 C278.836,166.598 278.319,165.87 277.937,164.979 C277.555,164.09 277.364,162.989 277.364,161.682 C277.364,160.555 277.532,159.527 277.869,158.602 C278.204,157.674 278.681,156.879 279.3,156.215 C279.917,155.551 280.659,155.039 281.521,154.676 C282.384,154.313 283.343,154.129 284.397,154.129 C284.87,154.129 285.346,154.166 285.828,154.238 C286.31,154.313 286.732,154.402 287.096,154.512 L287.096,148.433 L287.096,148.433 Z" id="Fill-36" fill="#414241"></path>
            <path d="M312.748,165.553 C313.147,166.333 313.401,167.088 313.511,167.814 C312.748,168.142 311.965,168.377 311.168,168.523 C310.367,168.669 309.503,168.741 308.578,168.741 C307.161,168.741 305.883,168.51 304.747,168.047 C303.612,167.582 302.652,166.919 301.872,166.057 C301.089,165.193 300.489,164.144 300.073,162.907 C299.654,161.672 299.446,160.281 299.446,158.736 C299.446,157.174 299.654,155.761 300.073,154.498 C300.489,153.234 301.089,152.158 301.872,151.268 C302.652,150.377 303.606,149.691 304.733,149.21 C305.861,148.728 307.124,148.486 308.522,148.486 C309.559,148.486 310.449,148.561 311.194,148.705 C311.939,148.85 312.601,149.022 313.183,149.224 C313.147,149.641 313.071,150.027 312.953,150.381 C312.834,150.736 312.693,151.113 312.53,151.514 C312.257,151.422 311.995,151.341 311.74,151.268 C311.485,151.195 311.211,151.131 310.922,151.076 C310.63,151.022 310.308,150.98 309.953,150.953 C309.599,150.927 309.194,150.914 308.742,150.914 C306.758,150.914 305.219,151.586 304.121,152.93 C303.02,154.275 302.471,156.211 302.471,158.736 C302.471,160.027 302.626,161.146 302.933,162.09 C303.243,163.035 303.68,163.816 304.243,164.436 C304.805,165.053 305.484,165.516 306.274,165.824 C307.065,166.133 307.951,166.287 308.931,166.287 C309.695,166.287 310.385,166.225 311.003,166.097 C311.621,165.971 312.202,165.789 312.748,165.553" id="Fill-37" fill="#414241"></path>
            <path d="M323.708,161.844 C323.434,161.809 323.088,161.771 322.671,161.735 C322.253,161.699 321.899,161.682 321.608,161.682 C320.481,161.682 319.623,161.891 319.032,162.309 C318.441,162.727 318.146,163.361 318.146,164.215 C318.146,164.762 318.245,165.188 318.446,165.496 C318.646,165.807 318.896,166.043 319.195,166.205 C319.496,166.369 319.826,166.47 320.191,166.506 C320.553,166.542 320.899,166.561 321.226,166.561 C321.645,166.561 322.076,166.539 322.521,166.492 C322.966,166.446 323.362,166.379 323.708,166.287 L323.708,161.844 Z M323.708,159.201 C323.708,158.129 323.434,157.383 322.889,156.965 C322.345,156.548 321.554,156.338 320.518,156.338 C319.881,156.338 319.287,156.389 318.732,156.487 C318.178,156.588 317.637,156.719 317.109,156.883 C316.764,156.283 316.593,155.566 316.593,154.729 C317.21,154.529 317.891,154.375 318.637,154.267 C319.381,154.158 320.099,154.103 320.791,154.103 C322.607,154.103 323.989,154.516 324.934,155.344 C325.879,156.17 326.351,157.492 326.351,159.31 L326.351,168.06 C325.714,168.205 324.943,168.355 324.034,168.51 C323.126,168.664 322.198,168.741 321.253,168.741 C320.363,168.741 319.559,168.659 318.841,168.496 C318.123,168.332 317.514,168.069 317.014,167.706 C316.515,167.342 316.128,166.879 315.856,166.316 C315.584,165.752 315.448,165.071 315.448,164.271 C315.448,163.49 315.607,162.803 315.925,162.213 C316.242,161.623 316.673,161.132 317.219,160.74 C317.764,160.35 318.392,160.059 319.099,159.867 C319.809,159.677 320.553,159.582 321.336,159.582 C321.917,159.582 322.393,159.596 322.765,159.623 C323.139,159.65 323.452,159.682 323.708,159.719 L323.708,159.201 L323.708,159.201 Z" id="Fill-38" fill="#414241"></path>
            <path d="M330.14,154.43 C330.341,154.395 330.53,154.365 330.712,154.349 C330.894,154.33 331.085,154.32 331.286,154.32 C331.485,154.32 331.684,154.33 331.885,154.349 C332.085,154.365 332.267,154.395 332.429,154.43 C332.485,154.702 332.539,155.063 332.593,155.506 C332.649,155.951 332.675,156.328 332.675,156.639 C333.057,156.02 333.562,155.484 334.188,155.029 C334.815,154.574 335.62,154.349 336.601,154.349 C336.746,154.349 336.895,154.352 337.05,154.362 C337.205,154.371 337.337,154.384 337.446,154.402 C337.482,154.566 337.509,154.739 337.528,154.92 C337.546,155.102 337.555,155.293 337.555,155.492 C337.555,155.711 337.542,155.938 337.514,156.174 C337.488,156.41 337.455,156.639 337.419,156.855 C337.272,156.819 337.123,156.801 336.968,156.801 C336.814,156.801 336.692,156.801 336.601,156.801 C336.109,156.801 335.642,156.869 335.197,157.006 C334.751,157.143 334.352,157.383 333.998,157.729 C333.642,158.074 333.361,158.546 333.153,159.146 C332.942,159.745 332.839,160.518 332.839,161.463 L332.839,168.414 C332.639,168.45 332.416,168.479 332.171,168.496 C331.925,168.514 331.703,168.523 331.503,168.523 C331.302,168.523 331.08,168.514 330.836,168.496 C330.59,168.479 330.358,168.45 330.14,168.414 L330.14,154.43" id="Fill-39" fill="#414241"></path>
            <path d="M348.541,160.072 C348.541,159.564 348.472,159.077 348.336,158.615 C348.201,158.15 348,157.747 347.736,157.4 C347.473,157.056 347.137,156.779 346.727,156.569 C346.318,156.36 345.833,156.256 345.269,156.256 C344.161,156.256 343.31,156.594 342.72,157.265 C342.13,157.938 341.771,158.873 341.643,160.072 L348.541,160.072 Z M341.617,162.09 C341.653,163.616 342.047,164.734 342.802,165.443 C343.556,166.151 344.669,166.506 346.142,166.506 C347.432,166.506 348.658,166.279 349.822,165.824 C349.967,166.097 350.085,166.428 350.175,166.82 C350.266,167.21 350.321,167.596 350.339,167.978 C349.74,168.232 349.082,168.423 348.363,168.551 C347.645,168.678 346.85,168.741 345.978,168.741 C344.706,168.741 343.616,168.563 342.707,168.21 C341.797,167.855 341.048,167.355 340.458,166.711 C339.867,166.066 339.436,165.303 339.163,164.42 C338.89,163.539 338.754,162.57 338.754,161.518 C338.754,160.482 338.885,159.514 339.149,158.615 C339.413,157.715 339.817,156.934 340.364,156.27 C340.908,155.606 341.593,155.079 342.42,154.689 C343.247,154.299 344.224,154.103 345.351,154.103 C346.313,154.103 347.159,154.267 347.887,154.594 C348.613,154.92 349.222,155.37 349.712,155.943 C350.204,156.515 350.576,157.196 350.831,157.986 C351.085,158.777 351.211,159.637 351.211,160.563 C351.211,160.817 351.204,161.085 351.184,161.367 C351.167,161.649 351.148,161.891 351.129,162.09 L341.617,162.09 L341.617,162.09 Z" id="Fill-40" fill="#414241"></path>
            <path d="M162.956,178.861 C163.356,178.826 163.719,178.789 164.046,178.752 C164.373,178.717 164.696,178.684 165.014,178.657 C165.332,178.631 165.664,178.607 166.008,178.59 C166.354,178.571 166.736,178.563 167.154,178.563 C168.08,178.563 168.999,178.654 169.907,178.834 C170.815,179.018 171.625,179.335 172.333,179.789 C173.043,180.243 173.619,180.855 174.064,181.629 C174.509,182.402 174.732,183.379 174.732,184.56 C174.732,185.268 174.614,185.914 174.378,186.496 C174.141,187.076 173.841,187.594 173.478,188.049 C173.114,188.504 172.701,188.898 172.238,189.234 C171.774,189.57 171.324,189.849 170.888,190.066 L170.561,190.229 L176.259,198.489 C175.768,198.545 175.213,198.571 174.596,198.571 C174.105,198.571 173.614,198.545 173.124,198.489 L166.854,189.412 L166.854,189.303 L167.072,189.249 C167.563,189.121 168.08,188.949 168.626,188.73 C169.17,188.512 169.676,188.227 170.139,187.872 C170.602,187.518 170.988,187.09 171.297,186.591 C171.606,186.09 171.761,185.486 171.761,184.777 C171.761,183.469 171.374,182.497 170.602,181.861 C169.83,181.225 168.79,180.906 167.481,180.906 C167.172,180.906 166.885,180.916 166.623,180.934 C166.358,180.951 166.063,180.979 165.736,181.016 L165.736,198.489 C165.536,198.508 165.314,198.526 165.068,198.545 C164.823,198.562 164.591,198.571 164.373,198.571 C164.155,198.571 163.919,198.566 163.665,198.559 C163.41,198.548 163.174,198.526 162.956,198.489 L162.956,178.861" id="Fill-41" fill="#414241"></path>
            <path d="M187.216,190.148 C187.216,189.639 187.148,189.153 187.012,188.689 C186.876,188.227 186.675,187.822 186.412,187.477 C186.148,187.132 185.813,186.854 185.403,186.645 C184.995,186.438 184.508,186.332 183.945,186.332 C182.836,186.332 181.986,186.668 181.396,187.34 C180.806,188.013 180.447,188.949 180.319,190.148 L187.216,190.148 Z M180.293,192.165 C180.329,193.691 180.724,194.81 181.478,195.518 C182.232,196.227 183.346,196.582 184.817,196.582 C186.108,196.582 187.334,196.354 188.498,195.9 C188.643,196.173 188.761,196.504 188.852,196.895 C188.942,197.285 188.997,197.672 189.015,198.054 C188.416,198.309 187.756,198.498 187.039,198.625 C186.321,198.752 185.526,198.816 184.654,198.816 C183.382,198.816 182.292,198.641 181.383,198.285 C180.473,197.93 179.724,197.431 179.133,196.785 C178.543,196.141 178.112,195.377 177.838,194.496 C177.566,193.614 177.43,192.646 177.43,191.592 C177.43,190.557 177.561,189.589 177.825,188.689 C178.088,187.791 178.493,187.008 179.039,186.345 C179.584,185.682 180.269,185.155 181.096,184.764 C181.923,184.373 182.9,184.178 184.027,184.178 C184.99,184.178 185.835,184.342 186.562,184.668 C187.289,184.996 187.898,185.445 188.389,186.018 C188.879,186.591 189.252,187.272 189.506,188.063 C189.76,188.854 189.888,189.711 189.888,190.639 C189.888,190.894 189.878,191.162 189.86,191.443 C189.842,191.725 189.824,191.966 189.806,192.165 L180.293,192.165 L180.293,192.165 Z" id="Fill-42" fill="#414241"></path>
            <path d="M192.913,195.954 C193.404,196.154 193.945,196.313 194.536,196.432 C195.126,196.55 195.712,196.608 196.294,196.608 C196.711,196.608 197.112,196.563 197.493,196.473 C197.875,196.381 198.207,196.245 198.488,196.063 C198.77,195.881 198.997,195.659 199.17,195.396 C199.342,195.133 199.429,194.836 199.429,194.51 C199.429,194.146 199.361,193.847 199.224,193.61 C199.088,193.374 198.906,193.174 198.679,193.011 C198.452,192.847 198.189,192.706 197.889,192.588 C197.589,192.47 197.266,192.355 196.921,192.247 L195.967,191.893 C194.804,191.457 193.959,190.966 193.432,190.42 C192.904,189.875 192.641,189.139 192.641,188.213 C192.641,186.977 193.081,185.995 193.963,185.268 C194.845,184.542 196.139,184.178 197.848,184.178 C198.556,184.178 199.252,184.246 199.933,184.382 C200.614,184.52 201.21,184.678 201.718,184.859 C201.682,185.223 201.614,185.586 201.514,185.949 C201.414,186.313 201.292,186.65 201.147,186.958 C200.746,186.813 200.269,186.673 199.715,186.535 C199.16,186.4 198.565,186.332 197.93,186.332 C197.257,186.332 196.662,186.45 196.144,186.686 C195.626,186.922 195.367,187.34 195.367,187.939 C195.367,188.249 195.43,188.512 195.558,188.73 C195.685,188.949 195.858,189.135 196.076,189.289 C196.294,189.443 196.543,189.576 196.825,189.685 C197.107,189.793 197.411,189.902 197.739,190.012 L198.938,190.42 C199.374,190.565 199.787,190.738 200.178,190.939 C200.569,191.139 200.905,191.389 201.187,191.688 C201.469,191.987 201.696,192.352 201.868,192.777 C202.041,193.205 202.127,193.719 202.127,194.318 C202.127,194.99 201.991,195.605 201.718,196.158 C201.446,196.714 201.059,197.186 200.56,197.576 C200.061,197.967 199.456,198.271 198.747,198.489 C198.039,198.707 197.257,198.816 196.403,198.816 C195.53,198.816 194.768,198.758 194.113,198.641 C193.459,198.521 192.85,198.361 192.286,198.162 C192.323,197.799 192.4,197.431 192.519,197.059 C192.636,196.686 192.768,196.318 192.913,195.954" id="Fill-43" fill="#414241"></path>
            <path d="M214.23,190.148 C214.23,189.639 214.162,189.153 214.026,188.689 C213.889,188.227 213.689,187.822 213.426,187.477 C213.162,187.132 212.827,186.854 212.417,186.645 C212.008,186.438 211.522,186.332 210.959,186.332 C209.85,186.332 209.001,186.668 208.41,187.34 C207.819,188.013 207.461,188.949 207.333,190.148 L214.23,190.148 Z M207.306,192.165 C207.342,193.691 207.737,194.81 208.492,195.518 C209.246,196.227 210.359,196.582 211.831,196.582 C213.122,196.582 214.348,196.354 215.511,195.9 C215.656,196.173 215.774,196.504 215.866,196.895 C215.956,197.285 216.011,197.672 216.029,198.054 C215.429,198.309 214.77,198.498 214.053,198.625 C213.335,198.752 212.54,198.816 211.668,198.816 C210.396,198.816 209.305,198.641 208.397,198.285 C207.487,197.93 206.738,197.431 206.147,196.785 C205.557,196.141 205.126,195.377 204.853,194.496 C204.58,193.614 204.443,192.646 204.443,191.592 C204.443,190.557 204.575,189.589 204.839,188.689 C205.102,187.791 205.507,187.008 206.052,186.345 C206.597,185.682 207.283,185.155 208.11,184.764 C208.937,184.373 209.914,184.178 211.041,184.178 C212.003,184.178 212.849,184.342 213.576,184.668 C214.302,184.996 214.912,185.445 215.402,186.018 C215.893,186.591 216.265,187.272 216.52,188.063 C216.774,188.854 216.901,189.711 216.901,190.639 C216.901,190.894 216.892,191.162 216.874,191.443 C216.856,191.725 216.838,191.966 216.819,192.165 L207.306,192.165 L207.306,192.165 Z" id="Fill-44" fill="#414241"></path>
            <path d="M227.56,191.92 C227.288,191.884 226.942,191.847 226.524,191.811 C226.106,191.775 225.752,191.756 225.461,191.756 C224.334,191.756 223.475,191.966 222.885,192.383 C222.294,192.801 221.999,193.438 221.999,194.292 C221.999,194.836 222.1,195.264 222.299,195.573 C222.498,195.881 222.748,196.117 223.049,196.281 C223.348,196.444 223.681,196.545 224.043,196.582 C224.407,196.618 224.753,196.635 225.08,196.635 C225.497,196.635 225.928,196.613 226.376,196.568 C226.819,196.523 227.215,196.455 227.56,196.362 L227.56,191.92 Z M227.56,189.275 C227.56,188.203 227.288,187.459 226.742,187.04 C226.197,186.623 225.406,186.414 224.371,186.414 C223.734,186.414 223.14,186.464 222.586,186.563 C222.031,186.663 221.49,186.795 220.964,186.958 C220.619,186.357 220.445,185.641 220.445,184.805 C221.063,184.605 221.745,184.451 222.49,184.342 C223.235,184.232 223.952,184.178 224.644,184.178 C226.461,184.178 227.841,184.592 228.786,185.418 C229.731,186.246 230.205,187.567 230.205,189.385 L230.205,198.135 C229.569,198.279 228.795,198.431 227.887,198.585 C226.979,198.739 226.052,198.816 225.107,198.816 C224.216,198.816 223.412,198.734 222.694,198.571 C221.976,198.407 221.368,198.145 220.868,197.781 C220.368,197.418 219.982,196.953 219.71,196.391 C219.437,195.828 219.299,195.146 219.299,194.346 C219.299,193.564 219.459,192.879 219.777,192.287 C220.095,191.697 220.527,191.207 221.072,190.814 C221.617,190.425 222.244,190.135 222.954,189.943 C223.662,189.754 224.407,189.658 225.189,189.658 C225.771,189.658 226.247,189.671 226.62,189.697 C226.992,189.725 227.305,189.756 227.56,189.793 L227.56,189.275 L227.56,189.275 Z" id="Fill-45" fill="#414241"></path>
            <path d="M233.993,184.506 C234.193,184.469 234.383,184.441 234.566,184.424 C234.747,184.405 234.938,184.396 235.137,184.396 C235.338,184.396 235.538,184.405 235.737,184.424 C235.938,184.441 236.119,184.469 236.283,184.506 C236.338,184.777 236.393,185.137 236.447,185.581 C236.501,186.027 236.528,186.404 236.528,186.713 C236.91,186.096 237.414,185.56 238.042,185.105 C238.669,184.651 239.471,184.424 240.454,184.424 C240.599,184.424 240.75,184.428 240.904,184.438 C241.058,184.447 241.19,184.46 241.299,184.478 C241.335,184.642 241.363,184.814 241.381,184.996 C241.398,185.178 241.408,185.368 241.408,185.568 C241.408,185.787 241.395,186.014 241.366,186.249 C241.339,186.485 241.307,186.713 241.271,186.932 C241.127,186.896 240.976,186.877 240.822,186.877 C240.668,186.877 240.544,186.877 240.454,186.877 C239.963,186.877 239.495,186.945 239.049,187.082 C238.604,187.217 238.204,187.459 237.85,187.804 C237.497,188.148 237.213,188.621 237.004,189.221 C236.797,189.82 236.692,190.594 236.692,191.539 L236.692,198.489 C236.493,198.526 236.27,198.553 236.023,198.571 C235.778,198.588 235.555,198.598 235.356,198.598 C235.156,198.598 234.934,198.588 234.688,198.571 C234.442,198.553 234.212,198.526 233.993,198.489 L233.993,184.506" id="Fill-46" fill="#414241"></path>
            <path d="M252.777,196.063 C252.92,196.318 253.048,196.635 253.157,197.018 C253.266,197.398 253.33,197.789 253.348,198.189 C252.275,198.607 251.048,198.816 249.669,198.816 C247.342,198.816 245.588,198.158 244.407,196.84 C243.225,195.523 242.635,193.746 242.635,191.51 C242.635,190.475 242.781,189.512 243.071,188.621 C243.362,187.731 243.794,186.958 244.367,186.305 C244.938,185.65 245.652,185.132 246.506,184.75 C247.36,184.369 248.35,184.178 249.477,184.178 C250.241,184.178 250.913,184.225 251.495,184.314 C252.077,184.405 252.629,184.551 253.157,184.75 C253.157,185.061 253.117,185.418 253.035,185.827 C252.953,186.236 252.839,186.596 252.694,186.904 C251.802,186.596 250.786,186.44 249.641,186.44 C248.242,186.44 247.196,186.904 246.506,187.83 C245.816,188.758 245.471,189.984 245.471,191.51 C245.471,193.256 245.86,194.533 246.643,195.341 C247.424,196.149 248.496,196.553 249.86,196.553 C250.405,196.553 250.909,196.518 251.372,196.444 C251.836,196.373 252.303,196.245 252.777,196.063" id="Fill-47" fill="#414241"></path>
            <path d="M256.182,178.508 C256.381,178.471 256.604,178.444 256.849,178.426 C257.095,178.408 257.317,178.398 257.517,178.398 C257.718,178.398 257.944,178.408 258.199,178.426 C258.454,178.444 258.68,178.471 258.881,178.508 L258.881,186.631 C259.044,186.377 259.249,186.105 259.495,185.813 C259.74,185.522 260.04,185.254 260.393,185.01 C260.749,184.764 261.157,184.564 261.621,184.41 C262.085,184.256 262.597,184.178 263.161,184.178 C264.76,184.178 265.946,184.637 266.717,185.555 C267.491,186.473 267.877,187.83 267.877,189.629 L267.877,198.489 C267.676,198.526 267.455,198.553 267.21,198.571 C266.963,198.588 266.741,198.598 266.542,198.598 C266.34,198.598 266.118,198.588 265.874,198.571 C265.628,198.553 265.406,198.526 265.206,198.489 L265.206,190.365 C265.206,189.076 264.993,188.127 264.564,187.518 C264.138,186.908 263.487,186.604 262.616,186.604 C262.126,186.604 261.651,186.689 261.198,186.862 C260.743,187.036 260.344,187.309 259.999,187.682 C259.653,188.053 259.38,188.539 259.18,189.139 C258.981,189.74 258.881,190.467 258.881,191.32 L258.881,198.489 C258.68,198.526 258.454,198.553 258.199,198.571 C257.944,198.588 257.718,198.598 257.517,198.598 C257.336,198.598 257.119,198.588 256.864,198.571 C256.61,198.553 256.381,198.526 256.182,198.489 L256.182,178.508" id="Fill-48" fill="#414241"></path>
            <path d="M276.436,178.89 C276.636,178.854 276.887,178.826 277.186,178.808 C277.487,178.789 277.763,178.779 278.018,178.779 C278.272,178.779 278.532,178.789 278.795,178.808 C279.058,178.826 279.299,178.854 279.517,178.89 L282.87,195.219 L286.905,178.89 C287.123,178.854 287.362,178.826 287.627,178.808 C287.889,178.789 288.141,178.779 288.376,178.779 C288.594,178.779 288.84,178.789 289.112,178.808 C289.385,178.826 289.622,178.854 289.823,178.89 L293.882,195.383 L297.291,178.89 C297.491,178.854 297.704,178.826 297.93,178.808 C298.159,178.789 298.381,178.779 298.598,178.779 C298.854,178.779 299.113,178.789 299.376,178.808 C299.639,178.826 299.872,178.854 300.071,178.89 L295.355,198.489 C295.137,198.526 294.882,198.553 294.592,198.571 C294.301,198.588 294.037,198.598 293.801,198.598 C293.547,198.598 293.266,198.588 292.956,198.571 C292.647,198.553 292.365,198.526 292.111,198.489 L288.241,183.143 L284.315,198.489 C284.061,198.526 283.783,198.553 283.483,198.571 C283.183,198.588 282.905,198.598 282.653,198.598 C282.433,198.598 282.184,198.588 281.902,198.571 C281.621,198.553 281.372,198.526 281.153,198.489 L276.436,178.89" id="Fill-49" fill="#C0252F"></path>
            <path d="M309.257,191.92 C308.985,191.884 308.638,191.847 308.223,191.811 C307.804,191.775 307.449,191.756 307.158,191.756 C306.032,191.756 305.172,191.966 304.583,192.383 C303.991,192.801 303.697,193.438 303.697,194.292 C303.697,194.836 303.796,195.264 303.996,195.573 C304.196,195.881 304.446,196.117 304.747,196.281 C305.045,196.444 305.378,196.545 305.741,196.582 C306.104,196.618 306.451,196.635 306.776,196.635 C307.195,196.635 307.626,196.613 308.072,196.568 C308.516,196.523 308.913,196.455 309.257,196.362 L309.257,191.92 Z M309.257,189.275 C309.257,188.203 308.985,187.459 308.44,187.04 C307.894,186.623 307.104,186.414 306.069,186.414 C305.432,186.414 304.837,186.464 304.282,186.563 C303.729,186.663 303.188,186.795 302.661,186.958 C302.315,186.357 302.143,185.641 302.143,184.805 C302.76,184.605 303.443,184.451 304.186,184.342 C304.932,184.232 305.65,184.178 306.34,184.178 C308.158,184.178 309.54,184.592 310.484,185.418 C311.429,186.246 311.901,187.567 311.901,189.385 L311.901,198.135 C311.265,198.279 310.494,198.431 309.585,198.585 C308.675,198.739 307.75,198.816 306.804,198.816 C305.914,198.816 305.11,198.734 304.392,198.571 C303.672,198.407 303.065,198.145 302.565,197.781 C302.065,197.418 301.679,196.953 301.407,196.391 C301.135,195.828 300.998,195.146 300.998,194.346 C300.998,193.564 301.157,192.879 301.475,192.287 C301.794,191.697 302.223,191.207 302.77,190.814 C303.315,190.425 303.942,190.135 304.651,189.943 C305.359,189.754 306.104,189.658 306.886,189.658 C307.467,189.658 307.944,189.671 308.317,189.697 C308.69,189.725 309.003,189.756 309.257,189.793 L309.257,189.275 L309.257,189.275 Z" id="Fill-50" fill="#C0252F"></path>
            <path d="M315.636,178.508 C315.836,178.471 316.06,178.444 316.304,178.426 C316.549,178.408 316.772,178.398 316.972,178.398 C317.17,178.398 317.395,178.408 317.64,178.426 C317.885,178.444 318.108,178.471 318.307,178.508 L318.307,194.264 C318.307,194.773 318.353,195.174 318.443,195.463 C318.534,195.754 318.658,195.977 318.812,196.131 C318.966,196.287 319.148,196.386 319.356,196.432 C319.565,196.477 319.789,196.5 320.024,196.5 C320.188,196.5 320.375,196.49 320.584,196.473 C320.794,196.455 320.969,196.428 321.116,196.391 C321.279,197.027 321.361,197.717 321.361,198.463 C321.106,198.553 320.798,198.611 320.433,198.641 C320.071,198.667 319.733,198.68 319.424,198.68 C318.899,198.68 318.407,198.617 317.954,198.489 C317.499,198.361 317.098,198.152 316.754,197.863 C316.408,197.572 316.135,197.182 315.936,196.69 C315.736,196.199 315.636,195.59 315.636,194.863 L315.636,178.508" id="Fill-51" fill="#C0252F"></path>
            <path d="M332.483,190.148 C332.483,189.639 332.415,189.153 332.279,188.689 C332.142,188.227 331.941,187.822 331.679,187.477 C331.415,187.132 331.08,186.854 330.669,186.645 C330.261,186.438 329.775,186.332 329.212,186.332 C328.104,186.332 327.253,186.668 326.662,187.34 C326.072,188.013 325.712,188.949 325.586,190.148 L332.483,190.148 Z M325.558,192.165 C325.595,193.691 325.99,194.81 326.746,195.518 C327.5,196.227 328.613,196.582 330.084,196.582 C331.374,196.582 332.601,196.354 333.765,195.9 C333.909,196.173 334.027,196.504 334.119,196.895 C334.21,197.285 334.264,197.672 334.281,198.054 C333.682,198.309 333.023,198.498 332.306,198.625 C331.587,198.752 330.794,198.816 329.919,198.816 C328.648,198.816 327.558,198.641 326.65,198.285 C325.74,197.93 324.991,197.431 324.401,196.785 C323.809,196.141 323.378,195.377 323.106,194.496 C322.833,193.614 322.697,192.646 322.697,191.592 C322.697,190.557 322.828,189.589 323.091,188.689 C323.355,187.791 323.759,187.008 324.305,186.345 C324.851,185.682 325.536,185.155 326.364,184.764 C327.189,184.373 328.168,184.178 329.294,184.178 C330.256,184.178 331.102,184.342 331.829,184.668 C332.555,184.996 333.166,185.445 333.655,186.018 C334.146,186.591 334.518,187.272 334.773,188.063 C335.028,188.854 335.155,189.711 335.155,190.639 C335.155,190.894 335.145,191.162 335.127,191.443 C335.108,191.725 335.091,191.966 335.072,192.165 L325.558,192.165 L325.558,192.165 Z" id="Fill-52" fill="#C0252F"></path>
            <path d="M338.18,195.954 C338.669,196.154 339.211,196.313 339.801,196.432 C340.392,196.55 340.977,196.608 341.56,196.608 C341.977,196.608 342.378,196.563 342.759,196.473 C343.141,196.381 343.471,196.245 343.754,196.063 C344.036,195.881 344.262,195.659 344.436,195.396 C344.609,195.133 344.695,194.836 344.695,194.51 C344.695,194.146 344.627,193.847 344.49,193.61 C344.354,193.374 344.171,193.174 343.945,193.011 C343.717,192.847 343.455,192.706 343.155,192.588 C342.855,192.47 342.532,192.355 342.187,192.247 L341.232,191.893 C340.07,191.457 339.225,190.966 338.698,190.42 C338.17,189.875 337.908,189.139 337.908,188.213 C337.908,186.977 338.346,185.995 339.229,185.268 C340.111,184.542 341.406,184.178 343.115,184.178 C343.822,184.178 344.516,184.246 345.2,184.382 C345.88,184.52 346.475,184.678 346.984,184.859 C346.947,185.223 346.879,185.586 346.781,185.949 C346.68,186.313 346.558,186.65 346.413,186.958 C346.012,186.813 345.535,186.673 344.982,186.535 C344.426,186.4 343.832,186.332 343.195,186.332 C342.522,186.332 341.927,186.45 341.41,186.686 C340.892,186.922 340.632,187.34 340.632,187.939 C340.632,188.249 340.696,188.512 340.823,188.73 C340.951,188.949 341.125,189.135 341.342,189.289 C341.56,189.443 341.81,189.576 342.091,189.685 C342.373,189.793 342.677,189.902 343.004,190.012 L344.204,190.42 C344.64,190.565 345.053,190.738 345.444,190.939 C345.835,191.139 346.171,191.389 346.453,191.688 C346.734,191.987 346.961,192.352 347.134,192.777 C347.307,193.205 347.393,193.719 347.393,194.318 C347.393,194.99 347.258,195.605 346.984,196.158 C346.712,196.714 346.326,197.186 345.826,197.576 C345.327,197.967 344.722,198.271 344.012,198.489 C343.305,198.707 342.522,198.816 341.669,198.816 C340.796,198.816 340.033,198.758 339.379,198.641 C338.724,198.521 338.117,198.361 337.552,198.162 C337.589,197.799 337.667,197.431 337.784,197.059 C337.903,196.686 338.033,196.318 338.18,195.954" id="Fill-53" fill="#C0252F"></path>
            <path d="M100.107,213.282 C101.536,212.213 102.941,211.159 104.315,210.109 C93.107,201.582 84.067,193.367 84.067,178.471 C84.067,163.806 92.834,155.615 103.802,147.226 C103.795,147.221 103.788,147.215 103.781,147.209 C102.578,146.294 101.351,145.375 100.107,144.443 C97.499,142.492 94.827,140.492 92.206,138.373 C80.663,147.606 69.949,159.018 69.949,178.471 C69.949,198.24 81.008,209.705 92.762,219.018 C92.788,219.037 92.815,219.057 92.841,219.076 L92.761,219.016 C95.147,217.113 97.741,215.055 100.107,213.282" id="Fill-54" fill="#00824E"></path>
            <path d="M103.781,129.523 C92.563,120.986 83.575,112.772 83.575,97.869 C83.575,82.979 92.609,74.764 103.813,66.238 C102.6,65.314 101.362,64.388 100.107,63.448 C97.741,61.677 94.574,59.292 92.188,57.389 C80.465,66.688 69.456,78.147 69.456,97.869 C69.456,117.6 80.476,129.058 92.204,138.36 C94.825,136.242 97.499,134.241 100.107,132.289 C101.351,131.358 102.578,130.438 103.781,129.523" id="Fill-55" fill="#008F9A"></path>
            <path d="M108.566,52.144 C107.035,50.998 105.528,49.871 104.062,48.745 L92.188,57.389 C94.574,59.292 97.741,61.677 100.107,63.448 C101.362,64.388 102.6,65.314 103.813,66.238 C115.015,74.764 124.049,82.978 124.049,97.868 C124.049,112.771 114.998,120.986 103.781,129.523 C103.787,129.528 103.794,129.534 103.801,129.539 C105.35,130.73 106.943,131.925 108.566,133.14 C110.811,134.82 113.105,136.538 115.372,138.336 C115.385,138.346 115.398,138.355 115.412,138.366 C127.144,129.063 138.168,117.602 138.168,97.868 C138.168,74.297 122.442,62.528 108.566,52.144" id="Fill-56" fill="#C0252F"></path>
            <path d="M92.212,138.366 C92.21,138.364 92.207,138.362 92.204,138.36 C92.202,138.362 92.199,138.364 92.197,138.366 C92.2,138.369 92.203,138.371 92.206,138.373 C92.257,138.333 92.309,138.291 92.36,138.25 C92.311,138.289 92.261,138.327 92.212,138.366" id="Fill-57" fill="#B8B223"></path>
            <path d="M101.358,131.391 C102.183,130.771 102.998,130.154 103.801,129.539 C103.794,129.534 103.787,129.528 103.781,129.523 C102.974,130.144 102.171,130.766 101.358,131.391" id="Fill-58" fill="#B8B223"></path>
            <path d="M115.412,138.366 C115.398,138.355 115.385,138.346 115.372,138.336 C113.105,136.538 110.811,134.82 108.566,133.14 C106.943,131.925 105.35,130.73 103.801,129.539 C102.998,130.154 102.183,130.771 101.358,131.391 C102.171,130.766 102.974,130.144 103.781,129.523 C102.578,130.438 101.351,131.358 100.107,132.289 C97.499,134.241 94.825,136.242 92.204,138.36 C92.207,138.362 92.21,138.364 92.212,138.366 C92.261,138.327 92.311,138.289 92.36,138.25 C92.309,138.291 92.257,138.333 92.206,138.373 C94.827,140.492 97.499,142.492 100.107,144.443 C101.351,145.375 102.578,146.294 103.781,147.209 C103.788,147.215 103.795,147.221 103.802,147.226 C115.01,155.754 124.049,163.969 124.049,178.863 C124.049,193.53 115.283,201.72 104.315,210.109 C102.941,211.159 101.536,212.213 100.107,213.282 C97.741,215.055 95.147,217.113 92.761,219.016 L92.841,219.076 L104.398,227.885 C105.863,226.76 107.035,225.732 108.566,224.588 C122.442,214.202 138.168,202.435 138.168,178.863 C138.168,159.129 127.144,147.67 115.412,138.366" id="Fill-59" fill="#B8B223"></path>
        </g>
    </g>
</svg>