<svg width="225" height="86" viewBox="0 0 225 86" fill="none" xmlns="http://www.w3.org/2000/svg">
<path fill-rule="evenodd" clip-rule="evenodd" d="M14.333 70.6798C15.076 70.5278 16.159 70.4258 17.157 70.4258C18.729 70.4258 19.762 70.7308 20.472 71.3728C21.03 71.8638 21.368 72.6428 21.368 73.5378C21.368 75.0278 20.403 76.0258 19.221 76.4298V76.4808C20.082 76.7858 20.607 77.5958 20.893 78.7818C21.266 80.3718 21.536 81.4688 21.757 81.9088H20.235C20.048 81.5878 19.795 80.6078 19.491 79.1878C19.152 77.6138 18.527 77.0218 17.191 76.9708H15.803V81.9088H14.333V70.6798ZM15.803 75.8558H17.308C18.882 75.8558 19.88 74.9928 19.88 73.6918C19.88 72.2188 18.814 71.5768 17.259 71.5768C16.548 71.5768 16.058 71.6448 15.803 71.7108V75.8558Z" fill="#6F8F9D"/>
<path fill-rule="evenodd" clip-rule="evenodd" d="M24.577 78.0705C24.61 80.0815 25.879 80.9125 27.368 80.9125C28.433 80.9125 29.093 80.7245 29.633 80.5055L29.905 81.5545C29.38 81.7905 28.468 82.0785 27.165 82.0785C24.662 82.0785 23.14 80.4045 23.14 77.9535C23.14 75.4665 24.61 73.5195 26.996 73.5195C29.668 73.5195 30.36 75.8715 30.36 77.3765C30.36 77.6815 30.344 77.9175 30.311 78.0875L24.577 78.0705ZM28.923 77.0035C28.941 76.0745 28.535 74.5875 26.877 74.5875C25.356 74.5875 24.713 75.9725 24.595 77.0035H28.923Z" fill="#6F8F9D"/>
<path fill-rule="evenodd" clip-rule="evenodd" d="M32.303 80.4061C32.76 80.6771 33.538 80.9801 34.281 80.9801C35.347 80.9801 35.855 80.4561 35.855 79.7631C35.855 79.0521 35.432 78.6641 34.349 78.2571C32.861 77.7161 32.168 76.9231 32.168 75.9411C32.168 74.6211 33.25 73.5391 34.992 73.5391C35.821 73.5391 36.548 73.7591 36.988 74.0481L36.633 75.1131C36.311 74.9271 35.719 74.6381 34.959 74.6381C34.079 74.6381 33.605 75.1461 33.605 75.7551C33.605 76.4491 34.079 76.7531 35.145 77.1581C36.548 77.6831 37.292 78.3941 37.292 79.6281C37.292 81.0811 36.159 82.0971 34.248 82.0971C33.352 82.0971 32.523 81.8611 31.948 81.5211L32.303 80.4061Z" fill="#6F8F9D"/>
<path fill-rule="evenodd" clip-rule="evenodd" d="M40.352 78.0705C40.385 80.0815 41.653 80.9125 43.141 80.9125C44.207 80.9125 44.866 80.7245 45.408 80.5055L45.679 81.5545C45.154 81.7905 44.241 82.0785 42.939 82.0785C40.436 82.0785 38.915 80.4045 38.915 77.9535C38.915 75.4665 40.385 73.5195 42.77 73.5195C45.442 73.5195 46.135 75.8715 46.135 77.3765C46.135 77.6815 46.118 77.9175 46.085 78.0875L40.352 78.0705ZM44.697 77.0035C44.715 76.0745 44.309 74.5875 42.651 74.5875C41.13 74.5875 40.487 75.9725 40.369 77.0035H44.697Z" fill="#6F8F9D"/>
<path fill-rule="evenodd" clip-rule="evenodd" d="M54.0469 79.9491C54.0469 80.6601 54.0809 81.3531 54.1649 81.9101H52.8299L52.6949 80.8781H52.6439C52.2039 81.5211 51.3069 82.0971 50.1409 82.0971C48.4829 82.0971 47.6379 80.9291 47.6379 79.7461C47.6379 77.7671 49.3959 76.6851 52.5589 76.7031V76.5331C52.5589 75.8571 52.3729 74.6211 50.6989 74.6381C49.9209 74.6381 49.1259 74.8591 48.5509 75.2481L48.2129 74.2491C48.8889 73.8281 49.8879 73.5391 50.9189 73.5391C53.4379 73.5391 54.0469 75.2481 54.0469 76.8881V79.9491ZM52.5929 77.7341C50.9699 77.6991 49.1259 77.9881 49.1259 79.5781C49.1259 80.5581 49.7689 80.9981 50.5129 80.9981C51.5949 80.9981 52.2889 80.3221 52.5259 79.6281C52.5769 79.4741 52.5929 79.3061 52.5929 79.1541V77.7341Z" fill="#6F8F9D"/>
<path fill-rule="evenodd" clip-rule="evenodd" d="M56.751 76.2791C56.751 75.3161 56.735 74.4861 56.683 73.7261H57.985L58.053 75.3311H58.104C58.476 74.2341 59.389 73.5391 60.387 73.5391C60.539 73.5391 60.657 73.5561 60.793 73.5891V74.9781C60.624 74.9601 60.471 74.9451 60.269 74.9451C59.22 74.9451 58.476 75.7381 58.272 76.8371C58.239 77.0581 58.221 77.2941 58.221 77.5461V81.9101H56.735L56.751 76.2791Z" fill="#6F8F9D"/>
<path fill-rule="evenodd" clip-rule="evenodd" d="M68.303 81.6231C67.913 81.8101 67.05 82.0971 65.951 82.0971C63.483 82.0971 61.876 80.4211 61.876 77.9021C61.876 75.3821 63.601 73.5391 66.274 73.5391C67.151 73.5391 67.93 73.7591 68.336 73.9801L67.997 75.1131C67.642 74.9251 67.084 74.7241 66.274 74.7241C64.396 74.7241 63.38 76.1261 63.38 77.8351C63.38 79.7301 64.599 80.8961 66.223 80.8961C67.067 80.8961 67.626 80.6931 68.047 80.5071L68.303 81.6231Z" fill="#6F8F9D"/>
<path fill-rule="evenodd" clip-rule="evenodd" d="M70.347 69.9023H71.835V75.0093H71.868C72.104 74.5873 72.477 74.1973 72.933 73.9603C73.373 73.6893 73.898 73.5383 74.455 73.5383C75.556 73.5383 77.314 74.2143 77.314 77.0383V81.9103H75.825V77.2063C75.825 75.8713 75.335 74.7713 73.932 74.7713C72.967 74.7713 72.224 75.4493 71.936 76.2593C71.852 76.4623 71.835 76.6833 71.835 76.9703V81.9103H70.347V69.9023Z" fill="#6F8F9D"/>
<path fill-rule="evenodd" clip-rule="evenodd" d="M89.6891 79.9491C89.6891 80.6601 89.7221 81.3531 89.8081 81.9101H88.4711L88.3361 80.8781H88.2851C87.8441 81.5211 86.9481 82.0971 85.7821 82.0971C84.1251 82.0971 83.2791 80.9291 83.2791 79.7461C83.2791 77.7671 85.0391 76.6851 88.2001 76.7031V76.5331C88.2001 75.8571 88.015 74.6211 86.34 74.6381C85.563 74.6381 84.7671 74.8591 84.1921 75.2481L83.8551 74.2491C84.5321 73.8281 85.5291 73.5391 86.5611 73.5391C89.0791 73.5391 89.6891 75.2481 89.6891 76.8881V79.9491ZM88.2341 77.7341C86.6111 77.6991 84.7671 77.9881 84.7671 79.5781C84.7671 80.5581 85.4101 80.9981 86.1541 80.9981C87.2361 80.9981 87.9301 80.3221 88.1681 79.6281C88.2181 79.4741 88.2341 79.3061 88.2341 79.1541V77.7341Z" fill="#6F8F9D"/>
<path fill-rule="evenodd" clip-rule="evenodd" d="M92.376 75.9411C92.376 75.0801 92.36 74.4021 92.309 73.7261H93.628L93.713 75.0621H93.746C94.152 74.3001 95.098 73.5391 96.451 73.5391C97.585 73.5391 99.344 74.2161 99.344 77.0231V81.9101H97.856V77.1931C97.856 75.8731 97.366 74.7571 95.961 74.7571C94.997 74.7571 94.236 75.4511 93.965 76.2791C93.899 76.4641 93.864 76.7361 93.864 76.9721V81.9101H92.376V75.9411Z" fill="#6F8F9D"/>
<path fill-rule="evenodd" clip-rule="evenodd" d="M109.133 69.9023V79.7943C109.133 80.5213 109.15 81.3513 109.2 81.9103H107.864L107.795 80.4883H107.763C107.306 81.4023 106.327 82.0953 104.989 82.0953C103.01 82.0953 101.471 80.4193 101.471 77.9333C101.456 75.1953 103.163 73.5383 105.142 73.5383C106.411 73.5383 107.254 74.1303 107.61 74.7713H107.645V69.9023H109.133ZM107.645 77.0543C107.645 76.8513 107.628 76.6153 107.577 76.4123C107.357 75.4823 106.545 74.7043 105.428 74.7043C103.89 74.7043 102.976 76.0563 102.976 77.8493C102.976 79.5233 103.805 80.8943 105.395 80.8943C106.392 80.8943 107.306 80.2183 107.577 79.1193C107.628 78.9153 107.645 78.7123 107.645 78.4763V77.0543Z" fill="#6F8F9D"/>
<path fill-rule="evenodd" clip-rule="evenodd" d="M115.826 70.6638C116.739 70.5278 117.803 70.4258 118.971 70.4258C121.085 70.4258 122.59 70.9008 123.587 71.8298C124.62 72.7598 125.211 74.0958 125.211 75.9398C125.211 77.8008 124.62 79.3228 123.57 80.3718C122.488 81.4358 120.729 82.0118 118.514 82.0118C117.449 82.0118 116.586 81.9768 115.826 81.8748V70.6638ZM117.313 80.7598C117.686 80.8268 118.227 80.8268 118.801 80.8268C121.947 80.8438 123.656 79.0688 123.656 75.9908C123.671 73.2678 122.151 71.5938 119.038 71.5938C118.277 71.5938 117.702 71.6608 117.313 71.7468V80.7598Z" fill="#6F8F9D"/>
<path fill-rule="evenodd" clip-rule="evenodd" d="M128.301 78.0705C128.335 80.0815 129.602 80.9125 131.09 80.9125C132.156 80.9125 132.815 80.7245 133.357 80.5055L133.628 81.5545C133.103 81.7905 132.19 82.0785 130.887 82.0785C128.385 82.0785 126.864 80.4045 126.864 77.9535C126.864 75.4665 128.335 73.5195 130.719 73.5195C133.391 73.5195 134.085 75.8715 134.085 77.3765C134.085 77.6815 134.067 77.9175 134.034 78.0875L128.301 78.0705ZM132.648 77.0035C132.665 76.0745 132.258 74.5875 130.602 74.5875C129.079 74.5875 128.436 75.9725 128.317 77.0035H132.648Z" fill="#6F8F9D"/>
<path fill-rule="evenodd" clip-rule="evenodd" d="M136.771 73.7266L138.378 78.3086C138.649 79.0706 138.868 79.7466 139.038 80.4216H139.088C139.274 79.7466 139.51 79.0706 139.782 78.3086L141.372 73.7266H142.926L139.715 81.9106H138.294L135.181 73.7266H136.771Z" fill="#6F8F9D"/>
<path fill-rule="evenodd" clip-rule="evenodd" d="M145.294 78.0705C145.327 80.0815 146.594 80.9125 148.083 80.9125C149.149 80.9125 149.808 80.7245 150.349 80.5055L150.62 81.5545C150.095 81.7905 149.182 82.0785 147.879 82.0785C145.378 82.0785 143.856 80.4045 143.856 77.9535C143.856 75.4665 145.327 73.5195 147.711 73.5195C150.383 73.5195 151.077 75.8715 151.077 77.3765C151.077 77.6815 151.059 77.9175 151.026 78.0875L145.294 78.0705ZM149.638 77.0035C149.657 76.0745 149.251 74.5875 147.592 74.5875C146.071 74.5875 145.428 75.9725 145.309 77.0035H149.638Z" fill="#6F8F9D"/>
<path fill-rule="evenodd" clip-rule="evenodd" d="M153.221 81.9103H154.71V69.9023H153.221V81.9103Z" fill="#6F8F9D"/>
<path fill-rule="evenodd" clip-rule="evenodd" d="M160.814 82.0961C158.616 82.0961 156.89 80.4711 156.89 77.8851C156.89 75.1451 158.7 73.5391 160.95 73.5391C163.301 73.5391 164.889 75.2471 164.889 77.7311C164.889 80.7761 162.776 82.0961 160.831 82.0961H160.814ZM160.866 80.9791C162.284 80.9791 163.351 79.6431 163.351 77.7841C163.351 76.3971 162.659 74.6551 160.898 74.6551C159.157 74.6551 158.395 76.2781 158.395 77.8341C158.395 79.6271 159.411 80.9791 160.847 80.9791H160.866Z" fill="#6F8F9D"/>
<path fill-rule="evenodd" clip-rule="evenodd" d="M167.069 76.3971C167.069 75.3481 167.051 74.5021 167.003 73.7251H168.336L168.42 75.1291H168.456C169.047 74.1141 170.029 73.5391 171.347 73.5391C173.342 73.5391 174.831 75.2131 174.831 77.6981C174.831 80.6411 173.021 82.0961 171.11 82.0961C170.01 82.0961 169.081 81.6231 168.59 80.8111H168.557V85.2581H167.069V76.3971ZM168.557 78.5791C168.557 78.7821 168.574 79.0001 168.626 79.1861C168.878 80.2191 169.792 80.9281 170.84 80.9281C172.413 80.9281 173.325 79.6431 173.325 77.7661C173.325 76.1251 172.48 74.7231 170.908 74.7231C169.893 74.7231 168.928 75.4321 168.641 76.5491C168.608 76.7521 168.557 76.9711 168.557 77.1571V78.5791Z" fill="#6F8F9D"/>
<path fill-rule="evenodd" clip-rule="evenodd" d="M176.993 75.9411C176.993 75.0801 176.96 74.4021 176.924 73.7261H178.227L178.295 75.0441H178.346C178.801 74.2671 179.563 73.5391 180.933 73.5391C182.032 73.5391 182.878 74.2161 183.234 75.1811H183.267C183.52 74.7061 183.859 74.3691 184.196 74.1151C184.688 73.7421 185.213 73.5391 185.99 73.5391C187.088 73.5391 188.696 74.2491 188.696 77.0911V81.9101H187.241V77.2771C187.241 75.6871 186.65 74.7571 185.465 74.7571C184.604 74.7571 183.961 75.3821 183.69 76.0931C183.622 76.3141 183.571 76.5831 183.571 76.8371V81.9101H182.116V77.0051C182.116 75.6871 181.542 74.7571 180.409 74.7571C179.497 74.7571 178.801 75.5011 178.565 76.2461C178.48 76.4641 178.447 76.7181 178.447 76.9721V81.9101H176.993V75.9411Z" fill="#6F8F9D"/>
<path fill-rule="evenodd" clip-rule="evenodd" d="M192.243 78.0705C192.276 80.0815 193.544 80.9125 195.034 80.9125C196.098 80.9125 196.757 80.7245 197.299 80.5055L197.569 81.5545C197.046 81.7905 196.131 82.0785 194.831 82.0785C192.328 82.0785 190.805 80.4045 190.805 77.9535C190.805 75.4665 192.276 73.5195 194.661 73.5195C197.333 73.5195 198.026 75.8715 198.026 77.3765C198.026 77.6815 198.009 77.9175 197.977 78.0875L192.243 78.0705ZM196.589 77.0035C196.606 76.0745 196.2 74.5875 194.544 74.5875C193.02 74.5875 192.378 75.9725 192.258 77.0035H196.589Z" fill="#6F8F9D"/>
<path fill-rule="evenodd" clip-rule="evenodd" d="M200.171 75.9411C200.171 75.0801 200.155 74.4021 200.104 73.7261H201.423L201.507 75.0621H201.542C201.948 74.3001 202.895 73.5391 204.249 73.5391C205.381 73.5391 207.139 74.2161 207.139 77.0231V81.9101H205.651V77.1931C205.651 75.8731 205.162 74.7571 203.756 74.7571C202.793 74.7571 202.032 75.4511 201.761 76.2791C201.694 76.4641 201.66 76.7361 201.66 76.9721V81.9101H200.171V75.9411Z" fill="#6F8F9D"/>
<mask id="mask0_295_5979" style="mask-type:alpha" maskUnits="userSpaceOnUse" x="0" y="0" width="214" height="83">
<path d="M0 0H213.717V82.097H0V0Z" fill="white"/>
</mask>
<g mask="url(#mask0_295_5979)">
<path fill-rule="evenodd" clip-rule="evenodd" d="M211.586 71.7617V73.7227H213.717V74.8577H211.586V79.2717C211.586 80.2857 211.875 80.8617 212.702 80.8617C213.11 80.8617 213.344 80.8267 213.565 80.7597L213.632 81.8927C213.344 81.9947 212.889 82.0957 212.313 82.0957C211.621 82.0957 211.061 81.8597 210.707 81.4687C210.3 81.0117 210.132 80.2857 210.132 79.3227V74.8577H208.864V73.7227H210.132V72.2187L211.586 71.7617Z" fill="#6F8F9D"/>
<path fill-rule="evenodd" clip-rule="evenodd" d="M11.6109 0C5.17694 0 -0.0600586 4.425 -0.0600586 9.868V46.982C-0.0600586 52.419 5.17694 56.845 11.6109 56.845H68.4209C74.8559 56.845 80.0889 52.419 80.0889 46.982V9.868C80.0889 4.425 74.8559 0 68.4209 0H11.6109Z" fill="#FFFFFE"/>
</g>
<path fill-rule="evenodd" clip-rule="evenodd" d="M11.763 53.3614H46.373C44.302 50.9884 43.504 46.7144 43.258 41.0684C43.251 40.8984 43.39 40.8434 43.52 40.8824C43.632 40.9154 43.714 41.0314 43.75 41.2054C44.79 46.4434 45.673 51.2284 48.765 53.1994C49.492 53.6654 50.603 53.2244 51.704 52.6544C50.666 50.2444 50.318 47.0314 50.153 43.1714C50.141 42.9994 50.283 42.9474 50.414 42.9884C50.526 43.0214 50.611 43.1344 50.643 43.3084C51.31 47.1854 51.99 49.9514 53.117 51.7904C57.667 48.9334 62.879 40.8494 65.947 29.7614C68.98 18.8204 69.02 8.70841 66.479 3.79141C64.354 4.99341 62.116 7.34941 59.691 10.6284C59.563 10.8064 59.414 10.8204 59.292 10.7634C59.183 10.7144 59.132 10.5984 59.199 10.4914C61.382 7.18741 62.771 4.84541 65.116 3.19141H58.002C56.501 4.49641 54.443 6.29641 52.795 8.52641C52.669 8.70041 52.521 8.72041 52.397 8.65741C52.291 8.61141 52.241 8.48941 52.306 8.39041C53.666 6.33141 54.728 4.58241 56.186 3.19141H11.763C7.19397 3.19141 3.49097 6.08841 3.49097 9.65941V46.8964C3.49097 50.4664 7.19397 53.3614 11.763 53.3614Z" fill="#00ACBA"/>
<path fill-rule="evenodd" clip-rule="evenodd" d="M69.624 30.7798C66.664 41.4718 60.742 49.8408 55.63 53.3628H60.658C64.973 49.8018 70.076 41.8588 72.839 31.8628C76.502 18.6598 75.802 6.65384 71.461 3.55284C70.754 3.36084 70.001 3.24484 69.222 3.21484C72.444 8.58884 72.802 19.3128 69.624 30.7798Z" fill="#00ACBA"/>
<path fill-rule="evenodd" clip-rule="evenodd" d="M65.079 53.3598H68.77C73.34 53.3598 77.043 50.4648 77.043 46.8948V30.8438C76.878 31.5197 76.706 32.1978 76.519 32.8798C74.043 41.8228 69.492 49.1448 65.079 53.3598Z" fill="#00ACBA"/>
<path fill-rule="evenodd" clip-rule="evenodd" d="M18.0349 18.6133V25.6883H24.8589V18.6133H28.9929V36.9443H24.8589V29.3033H18.0349V36.9443H13.8979V18.6133H18.0349Z" fill="#FFFFFE"/>
<path fill-rule="evenodd" clip-rule="evenodd" d="M32.747 32.7044C33.835 33.2744 35.573 33.8484 37.34 33.8484C39.246 33.8484 40.252 33.0584 40.252 31.8334C40.252 30.7184 39.379 30.0394 37.175 29.2764C34.132 28.1884 32.122 26.5034 32.122 23.8064C32.122 20.6824 34.759 18.3164 39.052 18.3164C41.15 18.3164 42.645 18.7244 43.733 19.2424L42.807 22.5584C42.101 22.2074 40.768 21.6894 38.999 21.6894C37.204 21.6894 36.335 22.5344 36.335 23.4574C36.335 24.6254 37.34 25.1434 39.734 26.0674C42.969 27.2664 44.467 28.9484 44.467 31.5614C44.467 34.6364 42.126 37.2474 37.095 37.2474C35.002 37.2474 32.938 36.6724 31.902 36.1034L32.747 32.7044Z" fill="#FFFFFE"/>
<path fill-rule="evenodd" clip-rule="evenodd" d="M60.729 36.4564C59.994 36.8084 58.255 37.2424 56.051 37.2424C49.713 37.2424 46.449 33.2754 46.449 28.0254C46.449 21.7694 50.911 18.3164 56.46 18.3164C58.607 18.3164 60.236 18.7514 60.975 19.1304L60.101 22.3954C59.286 22.0404 58.116 21.7144 56.622 21.7144C53.359 21.7144 50.801 23.7004 50.801 27.8084C50.801 31.4814 52.979 33.7874 56.648 33.7874C57.926 33.7874 59.286 33.5454 60.131 33.1914L60.729 36.4564Z" fill="#FFFFFE"/>
<path fill-rule="evenodd" clip-rule="evenodd" d="M88.1079 13.6838C88.5859 13.8108 89.2149 13.8598 89.9209 13.8598C92.5879 13.8598 94.174 12.5528 94.174 10.2608C94.174 7.99578 92.5879 6.91278 90.1729 6.91278C89.2149 6.91278 88.4849 7.01378 88.1079 7.08778V13.6838ZM85.9189 5.52578C86.9749 5.32378 88.3599 5.17578 90.1219 5.17578C92.2869 5.17578 93.8729 5.67978 94.8799 6.58678C95.8109 7.39078 96.3909 8.62578 96.3909 10.1348C96.3909 11.6718 95.9379 12.8788 95.0569 13.7598C93.8969 14.9938 92.0099 15.6218 89.8699 15.6218C89.2149 15.6218 88.6119 15.5968 88.1079 15.4718V22.2688H85.9189V5.52578Z" fill="#6F8F9D"/>
<path fill-rule="evenodd" clip-rule="evenodd" d="M109.054 18.945C109.054 20.203 109.08 21.31 109.157 22.27H107.192L107.067 20.279H107.016C106.462 21.26 105.155 22.544 102.989 22.544C101.076 22.544 98.785 21.46 98.785 17.207V10.082H101.001V16.808C101.001 19.121 101.729 20.707 103.719 20.707C105.203 20.707 106.237 19.676 106.639 18.668C106.764 18.367 106.84 17.963 106.84 17.535V10.082H109.054V18.945Z" fill="#6F8F9D"/>
<path fill-rule="evenodd" clip-rule="evenodd" d="M114.944 17.3855C114.944 17.6625 114.971 17.9385 115.022 18.1905C115.449 19.7255 116.757 20.7815 118.346 20.7815C120.684 20.7815 122.044 18.8955 122.044 16.1005C122.044 13.6335 120.787 11.5445 118.42 11.5445C116.91 11.5445 115.5 12.6005 115.073 14.2635C114.996 14.5415 114.944 14.8415 114.944 15.1935V17.3855ZM112.731 4.39453H114.944V12.0215H114.996C115.778 10.6635 117.184 9.80853 119.149 9.80853C122.169 9.80853 124.287 12.3235 124.287 15.9985C124.287 20.3805 121.516 22.5445 118.796 22.5445C117.036 22.5445 115.653 21.8645 114.721 20.2535H114.669L114.543 22.2685H112.63C112.706 21.4385 112.731 20.2045 112.731 19.1215V4.39453Z" fill="#6F8F9D"/>
<path fill-rule="evenodd" clip-rule="evenodd" d="M127.056 22.2695H129.268V4.39453H127.056V22.2695Z" fill="#6F8F9D"/>
<path fill-rule="evenodd" clip-rule="evenodd" d="M132.946 22.269H135.161V10.084H132.946V22.269ZM134.003 7.844C133.17 7.844 132.617 7.188 132.617 6.41C132.617 5.629 133.197 5 134.051 5C134.908 5 135.463 5.629 135.463 6.41C135.463 7.188 134.908 7.844 134.026 7.844H134.003Z" fill="#6F8F9D"/>
<path fill-rule="evenodd" clip-rule="evenodd" d="M147.521 21.8426C146.941 22.1196 145.659 22.5456 144.018 22.5456C140.345 22.5456 137.956 20.0556 137.956 16.3046C137.956 12.5536 140.52 9.80859 144.499 9.80859C145.808 9.80859 146.965 10.1366 147.573 10.4636L147.068 12.1506C146.538 11.8726 145.71 11.5706 144.499 11.5706C141.704 11.5706 140.195 13.6606 140.195 16.2036C140.195 19.0206 142.006 20.7596 144.422 20.7596C145.684 20.7596 146.513 20.4596 147.141 20.1816L147.521 21.8426Z" fill="#6F8F9D"/>
<path fill-rule="evenodd" clip-rule="evenodd" d="M157.715 5.30078V12.3998H165.922V5.30078H168.137V22.2678H165.922V14.3128H157.715V22.2678H155.501V5.30078H157.715Z" fill="#6F8F9D"/>
<path fill-rule="evenodd" clip-rule="evenodd" d="M179.614 14.9693C179.643 13.5823 179.037 11.3673 176.571 11.3673C174.304 11.3673 173.348 13.4313 173.171 14.9693H179.614ZM173.147 16.5543C173.198 19.5483 175.084 20.7823 177.3 20.7823C178.884 20.7823 179.87 20.5063 180.673 20.1763L181.077 21.7402C180.296 22.0912 178.936 22.5193 176.999 22.5193C173.272 22.5193 171.006 20.0273 171.006 16.3773C171.006 12.6763 173.198 9.78125 176.748 9.78125C180.725 9.78125 181.756 13.2823 181.756 15.5223C181.756 15.9733 181.729 16.3282 181.682 16.5772L173.147 16.5543Z" fill="#6F8F9D"/>
<path fill-rule="evenodd" clip-rule="evenodd" d="M190.917 16.0506C188.504 16.0006 185.76 16.4266 185.76 18.7936C185.76 20.2536 186.711 20.9106 187.822 20.9106C189.43 20.9106 190.467 19.9026 190.819 18.8706C190.895 18.6436 190.917 18.3916 190.917 18.1666V16.0506ZM193.084 19.3496C193.084 20.4046 193.135 21.4366 193.26 22.2686H191.27L191.07 20.7306H190.994C190.34 21.6886 189.006 22.5446 187.268 22.5446C184.801 22.5446 183.544 20.8086 183.544 19.0466C183.544 16.1016 186.161 14.4906 190.866 14.5136V14.2646C190.866 13.2566 190.592 11.4196 188.1 11.4446C186.942 11.4446 185.76 11.7696 184.903 12.3506L184.399 10.8636C185.404 10.2346 186.891 9.80859 188.428 9.80859C192.18 9.80859 193.084 12.3506 193.084 14.7926V19.3496Z" fill="#6F8F9D"/>
<path fill-rule="evenodd" clip-rule="evenodd" d="M196.633 22.2695H198.847V4.39453H196.633V22.2695Z" fill="#6F8F9D"/>
<path fill-rule="evenodd" clip-rule="evenodd" d="M205.194 7.16406V10.0831H208.363V11.7681H205.194V18.3391C205.194 19.8501 205.622 20.7081 206.856 20.7081C207.46 20.7081 207.811 20.6571 208.139 20.5571L208.237 22.2421C207.811 22.3931 207.133 22.5441 206.275 22.5441C205.243 22.5441 204.413 22.1921 203.883 21.6121C203.279 20.9331 203.03 19.8501 203.03 18.4171V11.7681H201.139V10.0831H203.03V7.84306L205.194 7.16406Z" fill="#6F8F9D"/>
<path fill-rule="evenodd" clip-rule="evenodd" d="M210.858 4.39453H213.073V11.9975H213.122C213.477 11.3675 214.03 10.7915 214.71 10.4355C215.364 10.0335 216.141 9.80853 216.972 9.80853C218.612 9.80853 221.228 10.8135 221.228 15.0185V22.2685H219.016V15.2685C219.016 13.2805 218.286 11.6435 216.196 11.6435C214.76 11.6435 213.653 12.6495 213.222 13.8595C213.097 14.1625 213.073 14.4885 213.073 14.9185V22.2685H210.858V4.39453Z" fill="#6F8F9D"/>
<path fill-rule="evenodd" clip-rule="evenodd" d="M94.225 45.4307L92.538 40.5457C92.187 39.4407 91.934 38.4307 91.683 37.4487H91.606C91.379 38.4307 91.104 39.4897 90.776 40.5247L89.116 45.4307H94.225ZM88.663 47.1417L86.899 52.4797H84.634L90.399 35.5117H93.042L98.833 52.4797H96.49L94.676 47.1417H88.663Z" fill="#6F8F9D"/>
<path fill-rule="evenodd" clip-rule="evenodd" d="M109.153 45.0766C109.153 44.7186 109.128 44.3966 109.028 44.0916C108.627 42.7836 107.567 41.7266 105.934 41.7266C103.815 41.7266 102.307 43.5156 102.307 46.3596C102.307 48.7266 103.541 50.7386 105.908 50.7386C107.293 50.7386 108.524 49.8846 108.977 48.4476C109.104 48.0956 109.153 47.6676 109.153 47.2656V45.0766ZM111.369 50.6916C111.369 53.5076 110.791 55.1936 109.635 56.2776C108.423 57.3596 106.712 57.7386 105.175 57.7386C103.716 57.7386 102.104 57.3846 101.124 56.7326L101.678 55.0196C102.483 55.5466 103.743 55.9996 105.252 55.9996C107.516 55.9996 109.18 54.8166 109.18 51.7206V50.3886H109.128C108.473 51.5216 107.139 52.4256 105.252 52.4256C102.231 52.4256 100.067 49.8576 100.067 46.4586C100.067 42.3296 102.762 40.0156 105.578 40.0156C107.696 40.0156 108.826 41.0976 109.38 42.1036H109.432L109.505 40.2926H111.471C111.393 41.1486 111.369 42.1306 111.369 43.6156V50.6916Z" fill="#6F8F9D"/>
<path fill-rule="evenodd" clip-rule="evenodd" d="M122.75 45.1752C122.772 43.7922 122.168 41.5782 119.7 41.5782C117.436 41.5782 116.481 43.6442 116.301 45.1752H122.75ZM116.28 46.7652C116.329 49.7592 118.216 50.9922 120.432 50.9922C122.018 50.9922 122.999 50.7142 123.807 50.3882L124.211 51.9492C123.43 52.3042 122.067 52.7302 120.129 52.7302C116.403 52.7302 114.141 50.2362 114.141 46.5852C114.141 42.8842 116.329 39.9922 119.878 39.9922C123.856 39.9922 124.889 43.4922 124.889 45.7322C124.889 46.1832 124.862 46.5372 124.811 46.7892L116.28 46.7652Z" fill="#6F8F9D"/>
<path fill-rule="evenodd" clip-rule="evenodd" d="M127.63 43.5896C127.63 42.3066 127.608 41.2986 127.53 40.2906H129.495L129.62 42.2816H129.669C130.276 41.1486 131.686 40.0156 133.7 40.0156C135.384 40.0156 138.001 41.0216 138.001 45.2016V52.4766H135.786V45.4536C135.786 43.4906 135.058 41.8286 132.967 41.8286C131.534 41.8286 130.399 42.8616 129.999 44.0936C129.897 44.3716 129.845 44.7736 129.845 45.1246V52.4766H127.63V43.5896Z" fill="#6F8F9D"/>
<path fill-rule="evenodd" clip-rule="evenodd" d="M150.288 52.0486C149.71 52.3266 148.422 52.7536 146.79 52.7536C143.113 52.7536 140.72 50.2596 140.72 46.5096C140.72 42.7596 143.29 40.0156 147.266 40.0156C148.577 40.0156 149.733 40.3416 150.338 40.6676L149.835 42.3556C149.307 42.0796 148.474 41.7776 147.266 41.7776C144.471 41.7776 142.961 43.8676 142.961 46.4106C142.961 49.2286 144.776 50.9666 147.191 50.9666C148.45 50.9666 149.282 50.6626 149.911 50.3886L150.288 52.0486Z" fill="#6F8F9D"/>
<path fill-rule="evenodd" clip-rule="evenodd" d="M154.135 40.293L156.778 47.493C157.081 48.297 157.383 49.254 157.585 49.985H157.635C157.86 49.254 158.114 48.323 158.415 47.442L160.831 40.293H163.172L159.85 48.979C158.264 53.159 157.181 55.295 155.67 56.631C154.563 57.563 153.506 57.938 152.952 58.041L152.396 56.178C152.952 56.026 153.683 55.674 154.336 55.094C154.94 54.618 155.67 53.76 156.198 52.629C156.299 52.401 156.378 52.25 156.378 52.1C156.378 51.973 156.327 51.797 156.198 51.545L151.72 40.293H154.135Z" fill="#6F8F9D"/>
<path fill-rule="evenodd" clip-rule="evenodd" d="M5.86804 64.4997H224.227V61.6797H5.86804V64.4997Z" fill="#00ACBA"/>
</svg>
