<?xml version="1.0" encoding="UTF-8"?>
<svg id="Layer_1" xmlns="http://www.w3.org/2000/svg" xmlns:xlink="http://www.w3.org/1999/xlink" version="1.1" viewBox="0 0 283.46 110.93">
  <!-- Generator: Adobe Illustrator 30.3.0, SVG Export Plug-In . SVG Version: 2.1.3 Build 182)  -->
  <defs>
    <style>
      .st0 {
        fill: none;
      }

      .st1 {
        fill: #231f20;
      }

      .st2 {
        fill: #bc1d7b;
      }

      .st3 {
        clip-path: url(#clippath);
      }
    </style>
    <clipPath id="clippath">
      <rect class="st0" width="283.46" height="110.93"/>
    </clipPath>
  </defs>
  <g class="st3">
    <path class="st1" d="M81.93,30.6c-2.26,0-4.16-.43-5.69-1.28-1.53-.85-2.79-1.87-3.78-3.06l4.01-4.46c.83.91,1.66,1.62,2.5,2.13s1.77.76,2.79.76c1.21,0,2.16-.38,2.85-1.14.69-.76,1.03-1.98,1.03-3.66V1.24h6.53v18.94c0,1.74-.23,3.24-.7,4.51-.47,1.27-1.14,2.34-2.03,3.23s-1.96,1.55-3.25,2.01c-1.28.45-2.71.68-4.28.68"/>
    <path class="st1" d="M122.96,0h6.62v5.58h-6.62V0ZM123.13,8.02h6.29v22.17h-6.29V8.02Z"/>
    <path class="st1" d="M134.5,8.02h6.29v3.17c.36-.47.75-.92,1.18-1.35.43-.43.9-.81,1.43-1.14.52-.33,1.1-.6,1.74-.79.63-.2,1.35-.29,2.15-.29,2.4,0,4.25.73,5.56,2.19,1.31,1.46,1.96,3.47,1.96,6.04v14.35h-6.29v-12.34c0-1.48-.33-2.6-.99-3.36-.66-.75-1.6-1.14-2.81-1.14s-2.17.38-2.87,1.14c-.71.76-1.06,1.88-1.06,3.36v12.34h-6.29V8.02Z"/>
    <path class="st1" d="M105.96,65.07c-1.3,0-2.55-.25-3.76-.75-1.21-.49-2.29-1.23-3.22-2.21-.94-.98-1.69-2.18-2.25-3.6-.56-1.42-.85-3.05-.85-4.9v-.08c0-1.85.28-3.48.85-4.9s1.31-2.62,2.23-3.6c.92-.98,1.99-1.71,3.21-2.21,1.21-.5,2.48-.75,3.8-.75,1.68,0,3.07.33,4.16.99,1.09.66,2.01,1.43,2.75,2.32v-10.92h6.29v30.19h-6.29v-3.18c-.77,1.05-1.7,1.91-2.79,2.59-1.09.67-2.46,1.01-4.12,1.01M107.58,59.73c.75,0,1.44-.14,2.09-.44.65-.29,1.21-.7,1.7-1.24.48-.54.87-1.18,1.16-1.94.29-.76.44-1.59.44-2.5v-.08c0-.91-.15-1.75-.44-2.5s-.67-1.41-1.16-1.94c-.48-.54-1.05-.95-1.7-1.24-.65-.29-1.34-.44-2.09-.44s-1.44.15-2.09.44c-.65.29-1.22.7-1.71,1.24-.5.54-.89,1.18-1.18,1.92-.29.75-.43,1.59-.43,2.52v.08c0,.91.14,1.74.43,2.5.29.76.68,1.41,1.18,1.94.49.54,1.07.95,1.71,1.24.65.29,1.34.44,2.09.44"/>
    <path class="st1" d="M134.46,65.15c-1.65,0-3.19-.28-4.61-.83-1.42-.55-2.65-1.33-3.68-2.36-1.03-1.02-1.84-2.23-2.42-3.62-.58-1.39-.87-2.94-.87-4.65v-.08c0-1.57.27-3.06.81-4.47.54-1.41,1.29-2.63,2.25-3.68.96-1.05,2.11-1.87,3.45-2.48,1.34-.61,2.82-.91,4.45-.91,1.85,0,3.44.33,4.79.99,1.35.66,2.48,1.55,3.37,2.67.89,1.11,1.56,2.4,1.98,3.84.43,1.45.64,2.96.64,4.53,0,.25,0,.51-.02.79-.02.28-.04.56-.06.87h-15.43c.3,1.43.93,2.52,1.88,3.25.95.73,2.13,1.1,3.54,1.1,1.05,0,1.98-.18,2.81-.54.83-.36,1.68-.94,2.57-1.74l3.6,3.18c-1.05,1.29-2.31,2.31-3.8,3.04-1.49.73-3.24,1.1-5.25,1.1M138.51,51.83c-.19-1.41-.69-2.54-1.49-3.41-.8-.87-1.86-1.3-3.18-1.3s-2.39.43-3.21,1.28c-.81.86-1.34,2-1.59,3.43h9.47Z"/>
    <path class="st1" d="M148.48,42.49h6.29v3.17c.36-.47.75-.92,1.18-1.35.43-.43.9-.81,1.43-1.15.52-.33,1.11-.6,1.76-.79.65-.2,1.37-.29,2.17-.29,1.46,0,2.72.31,3.78.92,1.06.61,1.88,1.48,2.46,2.62.97-1.17,2.04-2.05,3.23-2.64,1.18-.6,2.53-.9,4.05-.9,2.34,0,4.18.69,5.5,2.07,1.32,1.38,1.98,3.41,1.98,6.08v14.43h-6.29v-12.34c0-1.48-.32-2.6-.95-3.36-.64-.75-1.55-1.14-2.73-1.14s-2.12.38-2.79,1.14c-.68.76-1.02,1.88-1.02,3.36v12.34h-6.29v-12.34c0-1.48-.32-2.6-.95-3.36-.64-.75-1.54-1.14-2.73-1.14s-2.11.38-2.79,1.14c-.67.76-1.01,1.88-1.01,3.36v12.34h-6.29v-22.17Z"/>
    <path class="st1" d="M197.44,65.15c-1.65,0-3.19-.28-4.61-.83-1.42-.55-2.65-1.33-3.68-2.36-1.03-1.02-1.84-2.23-2.42-3.62-.58-1.39-.87-2.94-.87-4.65v-.08c0-1.57.27-3.06.81-4.47.54-1.41,1.29-2.63,2.25-3.68.96-1.05,2.11-1.87,3.45-2.48,1.34-.61,2.82-.91,4.45-.91,1.85,0,3.44.33,4.79.99,1.35.66,2.48,1.55,3.37,2.67.89,1.11,1.56,2.4,1.98,3.84.43,1.45.64,2.96.64,4.53,0,.25,0,.51-.02.79-.02.28-.04.56-.06.87h-15.43c.3,1.43.93,2.52,1.88,3.25.95.73,2.13,1.1,3.54,1.1,1.05,0,1.98-.18,2.81-.54.83-.36,1.68-.94,2.56-1.74l3.6,3.18c-1.05,1.29-2.32,2.31-3.8,3.04-1.49.73-3.24,1.1-5.25,1.1M201.5,51.83c-.19-1.41-.69-2.54-1.49-3.41-.8-.87-1.86-1.3-3.18-1.3s-2.39.43-3.21,1.28c-.81.86-1.34,2-1.59,3.43h9.47Z"/>
    <path class="st1" d="M211.46,42.49h6.29v3.17c.36-.47.75-.92,1.18-1.35.43-.43.9-.81,1.43-1.15.52-.33,1.1-.6,1.74-.79.63-.2,1.35-.29,2.15-.29,2.4,0,4.25.73,5.56,2.19,1.31,1.46,1.96,3.47,1.96,6.04v14.35h-6.29v-12.34c0-1.48-.33-2.6-.99-3.36-.66-.75-1.6-1.14-2.81-1.14s-2.17.38-2.87,1.14c-.71.76-1.06,1.88-1.06,3.36v12.34h-6.29v-22.17Z"/>
    <path class="st1" d="M243.89,65.02c-.97,0-1.84-.1-2.63-.31-.79-.21-1.46-.57-2.03-1.1-.56-.52-1.01-1.21-1.32-2.05-.32-.84-.48-1.91-.48-3.2v-10.51h-2.65v-5.37h2.65v-5.67h6.29v5.67h5.21v5.37h-5.21v9.5c0,1.44.67,2.16,2.02,2.16,1.1,0,2.14-.28,3.1-.83v5.05c-.66.39-1.39.7-2.19.93-.8.24-1.72.35-2.77.35"/>
    <path class="st1" d="M252.86,34.46h6.62v5.58h-6.62v-5.58ZM253.03,42.48h6.29v22.17h-6.29v-22.17Z"/>
    <path class="st1" d="M270.68,65.07c-1.05,0-2.03-.15-2.96-.44-.92-.29-1.73-.72-2.42-1.3-.69-.58-1.24-1.29-1.64-2.13-.4-.84-.6-1.81-.6-2.91v-.08c0-1.21.22-2.26.66-3.14.44-.88,1.06-1.61,1.84-2.19.79-.58,1.72-1.02,2.81-1.3,1.09-.29,2.29-.44,3.62-.44,1.13,0,2.12.08,2.96.25.84.17,1.66.39,2.46.66v-.37c0-1.33-.4-2.33-1.2-3.02-.8-.69-1.99-1.04-3.56-1.04-1.21,0-2.28.1-3.21.31-.92.21-1.9.5-2.91.89l-1.57-4.79c1.21-.52,2.48-.95,3.8-1.28,1.32-.33,2.92-.5,4.8-.5,1.74,0,3.22.21,4.45.64,1.23.43,2.24,1.04,3.04,1.84.83.83,1.43,1.84,1.82,3.04s.58,2.54.58,4.03v12.86h-6.08v-2.4c-.77.86-1.7,1.54-2.77,2.05-1.08.51-2.39.77-3.93.77M272.59,60.72c1.49,0,2.68-.36,3.58-1.07.9-.72,1.34-1.66,1.34-2.81v-1.12c-.55-.25-1.16-.45-1.84-.6-.67-.15-1.4-.23-2.17-.23-1.35,0-2.41.26-3.18.79-.77.52-1.16,1.28-1.16,2.28v.08c0,.86.32,1.52.95,1.98.64.47,1.46.7,2.48.7"/>
    <path class="st1" d="M96.86,76.95h6.29v4.47c.63-1.52,1.5-2.73,2.6-3.64,1.1-.91,2.59-1.33,4.47-1.24v6.58h-.33c-2.1,0-3.74.64-4.94,1.9-1.2,1.27-1.8,3.24-1.8,5.91v8.19h-6.29v-22.17Z"/>
    <path class="st1" d="M123.83,99.61c-1.65,0-3.19-.28-4.61-.83-1.42-.55-2.65-1.33-3.68-2.36-1.03-1.02-1.84-2.23-2.42-3.62-.58-1.39-.87-2.94-.87-4.65v-.08c0-1.57.27-3.06.81-4.47.54-1.41,1.29-2.63,2.25-3.68.96-1.05,2.11-1.87,3.45-2.48,1.34-.61,2.82-.91,4.45-.91,1.85,0,3.44.33,4.79.99,1.35.66,2.48,1.55,3.37,2.67.9,1.12,1.56,2.4,1.99,3.84.43,1.45.64,2.96.64,4.53,0,.25,0,.51-.02.79-.02.28-.04.56-.06.87h-15.43c.3,1.43.93,2.52,1.88,3.25.95.73,2.13,1.1,3.54,1.1,1.05,0,1.98-.18,2.81-.54.83-.36,1.68-.94,2.57-1.74l3.6,3.18c-1.05,1.3-2.31,2.31-3.8,3.04-1.49.73-3.24,1.1-5.25,1.1M127.88,86.3c-.19-1.41-.69-2.54-1.49-3.41-.8-.87-1.86-1.3-3.18-1.3s-2.39.43-3.21,1.28c-.81.86-1.34,2-1.59,3.43h9.47Z"/>
    <path class="st1" d="M145.62,99.53c-1.57,0-3.18-.27-4.82-.81-1.64-.54-3.21-1.39-4.69-2.54l2.69-4.14c1.21.88,2.42,1.54,3.62,1.98,1.2.44,2.32.66,3.37.66.91,0,1.58-.15,2.01-.46.43-.3.64-.7.64-1.2v-.08c0-.33-.13-.62-.37-.87s-.59-.46-1.01-.64c-.43-.18-.92-.35-1.47-.52-.56-.17-1.13-.35-1.74-.54-.77-.22-1.55-.49-2.33-.81-.79-.32-1.5-.73-2.13-1.24-.63-.51-1.15-1.14-1.55-1.88-.4-.75-.6-1.65-.6-2.73v-.08c0-1.13.21-2.13.64-3,.43-.87,1.01-1.61,1.74-2.21.73-.61,1.59-1.06,2.56-1.37.98-.3,2.03-.46,3.17-.46,1.41,0,2.83.23,4.28.68,1.45.45,2.78,1.08,3.99,1.88l-2.4,4.34c-1.1-.64-2.18-1.14-3.23-1.51-1.05-.37-1.97-.56-2.77-.56s-1.35.14-1.74.43c-.39.29-.58.66-.58,1.1v.08c0,.3.13.57.37.81.25.24.58.46.99.66.41.21.89.41,1.43.6.54.19,1.11.38,1.71.58.77.25,1.56.55,2.36.89.8.35,1.52.76,2.15,1.26.63.5,1.16,1.1,1.57,1.82.41.72.62,1.59.62,2.61v.08c0,1.24-.21,2.31-.64,3.21-.43.9-1.03,1.63-1.8,2.21-.77.58-1.68,1.01-2.71,1.3-1.03.29-2.14.44-3.33.44"/>
    <path class="st1" d="M168.29,99.61c-1.65,0-3.19-.28-4.61-.83-1.42-.55-2.65-1.33-3.68-2.36-1.03-1.02-1.84-2.23-2.42-3.62-.58-1.39-.87-2.94-.87-4.65v-.08c0-1.57.27-3.06.81-4.47.54-1.41,1.29-2.63,2.25-3.68.96-1.05,2.11-1.87,3.45-2.48,1.34-.61,2.82-.91,4.45-.91,1.85,0,3.45.33,4.8.99,1.35.66,2.48,1.55,3.37,2.67.9,1.12,1.56,2.4,1.98,3.84.43,1.45.64,2.96.64,4.53,0,.25,0,.51-.02.79-.02.28-.04.56-.06.87h-15.42c.3,1.43.93,2.52,1.88,3.25.95.73,2.13,1.1,3.54,1.1,1.05,0,1.98-.18,2.81-.54.83-.36,1.68-.94,2.56-1.74l3.6,3.18c-1.05,1.3-2.32,2.31-3.8,3.04-1.49.73-3.24,1.1-5.25,1.1M172.34,86.3c-.19-1.41-.69-2.54-1.49-3.41-.8-.87-1.86-1.3-3.19-1.3s-2.39.43-3.2,1.28c-.82.86-1.34,2-1.59,3.43h9.47Z"/>
    <path class="st1" d="M188.59,99.53c-1.05,0-2.03-.15-2.96-.44-.92-.29-1.73-.72-2.42-1.3-.69-.58-1.23-1.29-1.63-2.13-.4-.84-.6-1.81-.6-2.91v-.08c0-1.21.22-2.26.66-3.14.44-.88,1.06-1.61,1.84-2.19.79-.58,1.72-1.01,2.81-1.3,1.09-.29,2.29-.44,3.62-.44,1.13,0,2.12.08,2.96.25.84.17,1.66.39,2.46.66v-.37c0-1.33-.4-2.33-1.2-3.02-.8-.69-1.98-1.04-3.56-1.04-1.21,0-2.28.1-3.21.31-.92.21-1.9.5-2.91.89l-1.57-4.79c1.21-.52,2.48-.95,3.8-1.28,1.32-.33,2.92-.5,4.8-.5,1.74,0,3.22.21,4.45.64,1.23.43,2.24,1.04,3.04,1.84.83.83,1.43,1.84,1.82,3.04s.58,2.54.58,4.03v12.86h-6.08v-2.4c-.77.86-1.7,1.54-2.77,2.05-1.08.51-2.39.77-3.93.77M190.5,95.19c1.49,0,2.68-.36,3.58-1.07.9-.72,1.34-1.66,1.34-2.81v-1.12c-.55-.25-1.16-.45-1.84-.6-.67-.15-1.4-.23-2.17-.23-1.35,0-2.41.26-3.19.79-.77.52-1.16,1.28-1.16,2.28v.08c0,.86.32,1.52.95,1.98.64.47,1.46.7,2.48.7"/>
    <path class="st1" d="M205.96,76.95h6.29v4.47c.63-1.52,1.5-2.73,2.6-3.64,1.1-.91,2.59-1.33,4.47-1.24v6.58h-.33c-2.1,0-3.74.64-4.94,1.9-1.2,1.27-1.8,3.24-1.8,5.91v8.19h-6.29v-22.17Z"/>
    <path class="st1" d="M232.89,99.61c-1.66,0-3.19-.3-4.61-.91-1.42-.6-2.64-1.43-3.66-2.46-1.02-1.03-1.82-2.25-2.4-3.64-.58-1.39-.87-2.87-.87-4.45v-.08c0-1.57.29-3.06.87-4.47.58-1.41,1.38-2.63,2.4-3.68,1.02-1.05,2.24-1.87,3.66-2.48s2.98-.91,4.69-.91c2.1,0,3.83.33,5.21.99,1.38.66,2.59,1.57,3.64,2.73l-3.85,4.14c-.72-.75-1.45-1.34-2.21-1.78-.76-.44-1.7-.66-2.83-.66-.8,0-1.52.16-2.17.48-.65.32-1.21.75-1.7,1.3-.48.55-.86,1.19-1.12,1.92-.26.73-.39,1.51-.39,2.34v.08c0,.85.13,1.65.39,2.4.26.74.64,1.39,1.14,1.94.49.55,1.09.99,1.78,1.3.69.32,1.46.48,2.32.48,1.05,0,1.97-.21,2.75-.64.79-.43,1.56-1,2.34-1.71l3.68,3.72c-1.07,1.18-2.3,2.16-3.68,2.91-1.38.76-3.17,1.14-5.38,1.14"/>
    <path class="st1" d="M245.21,68.93h6.29v11.19c.36-.47.75-.92,1.18-1.35.43-.43.91-.81,1.43-1.14.52-.33,1.1-.6,1.74-.79.63-.2,1.35-.29,2.15-.29,2.4,0,4.25.73,5.56,2.19,1.31,1.46,1.96,3.48,1.96,6.04v14.35h-6.29v-12.34c0-1.48-.33-2.6-.99-3.36-.66-.76-1.6-1.14-2.81-1.14s-2.17.38-2.87,1.14c-.7.75-1.06,1.87-1.06,3.36v12.34h-6.29v-30.19Z"/>
    <path class="st2" d="M71.44,44.41c-7.22,0-13.09,5.91-13.09,13.16s5.87,13.15,13.09,13.15,13.09-5.9,13.09-13.15-5.87-13.16-13.09-13.16M71.44,77.7c-11.07,0-20.07-9.03-20.07-20.13s9-20.13,20.07-20.13,20.07,9.03,20.07,20.13-9,20.13-20.07,20.13"/>
    <path class="st2" d="M17.36,82.95c-5.72,0-10.38,4.71-10.38,10.5s4.65,10.5,10.38,10.5,10.38-4.71,10.38-10.5-4.65-10.5-10.38-10.5M17.36,110.93C7.79,110.93,0,103.09,0,93.45s7.79-17.48,17.36-17.48,17.36,7.84,17.36,17.48-7.79,17.48-17.36,17.48"/>
    <path class="st2" d="M71.56,78.29c-4.63,0-8.39,3.81-8.39,8.49s3.76,8.49,8.39,8.49,8.39-3.81,8.39-8.49-3.76-8.49-8.39-8.49M71.56,102.25c-8.47,0-15.37-6.94-15.37-15.47s6.9-15.47,15.37-15.47,15.37,6.94,15.37,15.47-6.9,15.47-15.37,15.47"/>
    <path class="st2" d="M37.72,23.05c-9.44,0-17.12,7.76-17.12,17.3s7.68,17.3,17.12,17.3,17.12-7.76,17.12-17.3-7.68-17.3-17.12-17.3M37.72,64.63c-13.29,0-24.1-10.89-24.1-24.28s10.81-24.28,24.1-24.28,24.1,10.89,24.1,24.28-10.81,24.28-24.1,24.28"/>
    <path class="st2" d="M43.82,64.86c-7.18,0-13.01,5.91-13.01,13.16s5.83,13.15,13.01,13.15,13.01-5.9,13.01-13.15-5.83-13.16-13.01-13.16M43.82,98.15c-11.02,0-19.99-9.03-19.99-20.13s8.97-20.13,19.99-20.13,19.99,9.03,19.99,20.13-8.97,20.13-19.99,20.13"/>
    <path class="st2" d="M95.8,19.19c0-6.42,5.2-11.62,11.62-11.62,6.42,0,11.62,5.2,11.62,11.62,0,6.42-5.2,11.62-11.62,11.62-6.42,0-11.62-5.2-11.62-11.62M101.38,19.19c0,3.33,2.71,6.03,6.04,6.03,3.33,0,6.03-2.7,6.04-6.03,0-3.33-2.7-6.03-6.04-6.04-3.33,0-6.03,2.71-6.04,6.04"/>
  </g>
</svg>