<?xml version="1.0" encoding="UTF-8"?>
<svg id="Layer_1" xmlns="http://www.w3.org/2000/svg" version="1.1" viewBox="0 0 453.54 40.98">
  <!-- Generator: Adobe Illustrator 30.5.1, SVG Export Plug-In . SVG Version: 2.1.4 Build 3)  -->
  <defs>
    <style>
      .st0 {
        fill: #1c285e;
      }

      .st1 {
        fill: #fc5d5d;
      }
    </style>
  </defs>
  <rect class="st1" x="151.45" width="3.69" height="40.98"/>
  <g>
    <path class="st0" d="M168.68,1.2h4.68l5.19,13.35h.18V1.2h2.75v16.06h-4.73l-5.09-13.33h-.21v13.33h-2.78V1.2Z"/>
    <path class="st0" d="M183.91,11.25c0-3.65,2.39-6.31,5.6-6.31,2.02,0,3.12,1.03,3.65,1.77h.21v-1.47h2.71v9.2c0,.32.18.53.55.53h.53v2.29h-2.04c-1.08,0-1.63-.73-1.72-1.51h-.21c-.46.73-1.51,1.81-3.6,1.81-3.24,0-5.67-2.66-5.67-6.31ZM193.4,11.27c0-2.39-1.54-3.74-3.37-3.74-1.93,0-3.37,1.51-3.37,3.74s1.49,3.67,3.4,3.67c2.04,0,3.35-1.63,3.35-3.67Z"/>
    <path class="st0" d="M199.86,13.66v-6.03h-2.09v-2.39h2.25V1.87h2.57v3.37h3.4v2.39h-3.4v6.01c0,.85.34,1.22,1.17,1.22h2.09v2.41h-2.11c-2.34,0-3.88-1.06-3.88-3.6Z"/>
    <path class="st0" d="M209.49,7.63h-2.11v-2.39h4.82v12.02h-2.71V7.63ZM209.14,1.68c0-.94.73-1.68,1.72-1.68s1.72.73,1.72,1.68-.73,1.7-1.72,1.7-1.72-.73-1.72-1.7Z"/>
    <path class="st0" d="M214.29,11.25c0-3.58,2.66-6.31,6.36-6.31s6.33,2.73,6.33,6.31-2.66,6.31-6.36,6.31-6.33-2.71-6.33-6.31ZM224.23,11.25c0-2.13-1.49-3.74-3.6-3.74s-3.58,1.61-3.58,3.74,1.49,3.74,3.58,3.74,3.6-1.58,3.6-3.74Z"/>
    <path class="st0" d="M229.07,5.24h2.71v1.38h.21c.53-.92,1.63-1.68,3.24-1.68,2.64,0,4.31,1.97,4.31,4.45v7.87h-2.71v-7.23c0-1.49-1.06-2.52-2.43-2.52-1.49,0-2.62,1.15-2.62,2.66v7.09h-2.71V5.24Z"/>
    <path class="st0" d="M241.47,11.25c0-3.65,2.39-6.31,5.6-6.31,2.02,0,3.12,1.03,3.65,1.77h.21v-1.47h2.71v9.2c0,.32.18.53.55.53h.53v2.29h-2.04c-1.08,0-1.63-.73-1.72-1.51h-.21c-.46.73-1.51,1.81-3.6,1.81-3.24,0-5.67-2.66-5.67-6.31ZM250.97,11.27c0-2.39-1.54-3.74-3.37-3.74-1.93,0-3.37,1.51-3.37,3.74s1.49,3.67,3.4,3.67c2.04,0,3.35-1.63,3.35-3.67Z"/>
    <path class="st0" d="M256.07,14.88h2.25V2.46h-2.25V.05h4.96v14.82h2.25v2.39h-7.21v-2.39Z"/>
    <path class="st0" d="M271.42,14.74h2.27V3.75h-2.27V1.2h7.32v2.55h-2.27v10.99h2.27v2.52h-7.32v-2.52Z"/>
    <path class="st0" d="M281.12,5.24h2.71v1.38h.21c.53-.92,1.63-1.68,3.24-1.68,2.64,0,4.31,1.97,4.31,4.45v7.87h-2.71v-7.23c0-1.49-1.06-2.52-2.43-2.52-1.49,0-2.62,1.15-2.62,2.66v7.09h-2.71V5.24Z"/>
    <path class="st0" d="M293.47,13.84l2.57-.57c.25,1.26,1.12,1.86,2.39,1.86s2-.48,2-1.28c0-2.43-6.52-.39-6.52-5.28,0-2.04,1.7-3.63,4.43-3.63,2.32,0,4.13,1.17,4.57,3.33l-2.41.67c-.23-1.06-1.01-1.54-2.16-1.54s-1.84.5-1.84,1.22c0,2.25,6.7.14,6.7,4.98,0,2.36-1.88,3.97-4.84,3.97-2.62,0-4.57-1.26-4.89-3.72Z"/>
    <path class="st0" d="M306.37,13.66v-6.03h-2.09v-2.39h2.25V1.87h2.57v3.37h3.4v2.39h-3.4v6.01c0,.85.34,1.22,1.17,1.22h2.09v2.41h-2.11c-2.34,0-3.88-1.06-3.88-3.6Z"/>
    <path class="st0" d="M316,7.63h-2.11v-2.39h4.82v12.02h-2.71V7.63ZM315.66,1.68c0-.94.73-1.68,1.72-1.68s1.72.73,1.72,1.68-.73,1.7-1.72,1.7-1.72-.73-1.72-1.7Z"/>
    <path class="st0" d="M322.51,13.66v-6.03h-2.09v-2.39h2.25V1.87h2.57v3.37h3.4v2.39h-3.4v6.01c0,.85.34,1.22,1.17,1.22h2.09v2.41h-2.11c-2.34,0-3.88-1.06-3.88-3.6Z"/>
    <path class="st0" d="M330.41,13.11v-7.87h2.71v7.16c0,1.49,1.06,2.52,2.43,2.52,1.49,0,2.62-1.15,2.62-2.66v-7.02h2.71v12.02h-2.71v-1.38h-.21c-.53.92-1.63,1.68-3.24,1.68-2.64,0-4.31-1.97-4.31-4.45Z"/>
    <path class="st0" d="M344.57,13.66v-6.03h-2.09v-2.39h2.25V1.87h2.57v3.37h3.4v2.39h-3.4v6.01c0,.85.34,1.22,1.17,1.22h2.09v2.41h-2.11c-2.34,0-3.88-1.06-3.88-3.6Z"/>
    <path class="st0" d="M351.58,11.27c0-3.79,2.78-6.33,6.01-6.33,3.67,0,5.9,2.66,5.9,6.24v.76h-9.11c.02,2.02,1.33,3.3,3.3,3.3,1.33,0,2.59-.69,3.03-2.02l2.48.6c-.78,2.5-2.98,3.74-5.48,3.74-3.67,0-6.13-2.62-6.13-6.29ZM360.73,9.97c-.14-1.63-1.49-2.66-3.14-2.66s-3.03,1.22-3.19,2.66h6.33Z"/>
    <path class="st0" d="M372.59,7.63h-2.11v-2.39h2.11v-1.58c0-2.55,1.54-3.6,3.86-3.6h2.02v2.36h-1.97c-.85,0-1.19.41-1.19,1.26v1.56h3.24v2.39h-3.24v9.64h-2.71V7.63Z"/>
    <path class="st0" d="M379.29,11.25c0-3.58,2.66-6.31,6.36-6.31s6.33,2.73,6.33,6.31-2.66,6.31-6.36,6.31-6.33-2.71-6.33-6.31ZM389.22,11.25c0-2.13-1.49-3.74-3.6-3.74s-3.58,1.61-3.58,3.74,1.49,3.74,3.58,3.74,3.6-1.58,3.6-3.74Z"/>
    <path class="st0" d="M394.07,5.24h2.68v1.77h.18c.46-1.01,1.63-2.07,3.17-2.07h.9v2.71h-1.19c-1.97,0-3.03,1.4-3.03,3.67v5.94h-2.71V5.24Z"/>
    <path class="st0" d="M168.68,24.56h2.78v6.61h7.09v-6.61h2.78v16.06h-2.78v-6.86h-7.09v6.86h-2.78v-16.06Z"/>
    <path class="st0" d="M183.7,34.63c0-3.79,2.78-6.33,6.01-6.33,3.67,0,5.9,2.66,5.9,6.24v.76h-9.11c.02,2.02,1.33,3.3,3.3,3.3,1.33,0,2.59-.69,3.03-2.02l2.48.6c-.78,2.5-2.98,3.74-5.48,3.74-3.67,0-6.13-2.62-6.13-6.29ZM192.86,33.32c-.14-1.63-1.49-2.66-3.14-2.66s-3.03,1.22-3.19,2.66h6.33Z"/>
    <path class="st0" d="M196.97,34.61c0-3.65,2.39-6.31,5.6-6.31,2.02,0,3.12,1.03,3.65,1.77h.21v-1.47h2.71v9.2c0,.32.18.53.55.53h.53v2.29h-2.04c-1.08,0-1.63-.73-1.72-1.51h-.21c-.46.73-1.51,1.81-3.6,1.81-3.24,0-5.67-2.66-5.67-6.31ZM206.47,34.63c0-2.39-1.54-3.74-3.37-3.74-1.93,0-3.37,1.51-3.37,3.74s1.49,3.67,3.4,3.67c2.04,0,3.35-1.63,3.35-3.67Z"/>
    <path class="st0" d="M211.57,38.23h2.25v-12.41h-2.25v-2.41h4.96v14.82h2.25v2.39h-7.21v-2.39Z"/>
    <path class="st0" d="M221.08,37.02v-6.03h-2.09v-2.39h2.25v-3.37h2.57v3.37h3.4v2.39h-3.4v6.01c0,.85.34,1.22,1.17,1.22h2.09v2.41h-2.11c-2.34,0-3.88-1.06-3.88-3.6Z"/>
    <path class="st0" d="M229.14,23.41h2.71v6.56h.21c.53-.9,1.65-1.68,3.26-1.68,2.64,0,4.38,1.97,4.38,4.45v7.87h-2.71v-7.23c0-1.49-1.12-2.52-2.5-2.52-1.47,0-2.64,1.1-2.64,2.59v7.16h-2.71v-17.21Z"/>
    <path class="st0" d="M247.61,34.61c0-3.65,2.39-6.31,5.6-6.31,2.02,0,3.12,1.03,3.65,1.77h.21v-1.47h2.71v9.2c0,.32.18.53.55.53h.53v2.29h-2.04c-1.08,0-1.63-.73-1.72-1.51h-.21c-.46.73-1.51,1.81-3.6,1.81-3.24,0-5.67-2.66-5.67-6.31ZM257.11,34.63c0-2.39-1.54-3.74-3.37-3.74-1.93,0-3.37,1.51-3.37,3.74s1.49,3.67,3.4,3.67c2.04,0,3.35-1.63,3.35-3.67Z"/>
    <path class="st0" d="M262.93,28.6h2.71v1.38h.21c.53-.92,1.63-1.68,3.24-1.68,2.64,0,4.31,1.97,4.31,4.45v7.87h-2.71v-7.23c0-1.49-1.06-2.52-2.43-2.52-1.49,0-2.62,1.15-2.62,2.66v7.09h-2.71v-12.02Z"/>
    <path class="st0" d="M275.33,34.61c0-3.58,2.32-6.31,5.55-6.31,2.13,0,3.17,1.15,3.69,1.84h.21v-6.72h2.71v17.21h-2.66v-1.42h-.21c-.5.62-1.49,1.72-3.58,1.72-3.24,0-5.71-2.66-5.71-6.31ZM284.85,34.63c0-2.39-1.54-3.79-3.4-3.79s-3.4,1.56-3.4,3.79,1.54,3.76,3.42,3.76c2.04,0,3.37-1.72,3.37-3.76Z"/>
    <path class="st0" d="M295.52,32.59c0-4.7,3.44-8.33,8.24-8.33,3.63,0,6.56,2.13,7.64,5.62h-2.96c-.78-1.84-2.59-2.96-4.68-2.96-3.17,0-5.35,2.43-5.35,5.67s2.18,5.69,5.35,5.69c2.04,0,3.9-1.08,4.68-2.96h2.96c-1.06,3.53-4.02,5.62-7.64,5.62-4.82,0-8.24-3.6-8.24-8.35Z"/>
    <path class="st0" d="M312.77,34.61c0-3.65,2.39-6.31,5.6-6.31,2.02,0,3.12,1.03,3.65,1.77h.21v-1.47h2.71v9.2c0,.32.18.53.55.53h.53v2.29h-2.04c-1.08,0-1.63-.73-1.72-1.51h-.21c-.46.73-1.51,1.81-3.6,1.81-3.24,0-5.67-2.66-5.67-6.31ZM322.27,34.63c0-2.39-1.54-3.74-3.37-3.74-1.93,0-3.37,1.51-3.37,3.74s1.49,3.67,3.4,3.67c2.04,0,3.35-1.63,3.35-3.67Z"/>
    <path class="st0" d="M328.09,28.6h2.68v1.77h.18c.46-1.01,1.63-2.07,3.17-2.07h.9v2.71h-1.19c-1.97,0-3.03,1.4-3.03,3.67v5.94h-2.71v-12.02Z"/>
    <path class="st0" d="M335.79,34.63c0-3.79,2.78-6.33,6.01-6.33,3.67,0,5.9,2.66,5.9,6.24v.76h-9.11c.02,2.02,1.33,3.3,3.3,3.3,1.33,0,2.59-.69,3.03-2.02l2.48.6c-.78,2.5-2.98,3.74-5.48,3.74-3.67,0-6.13-2.62-6.13-6.29ZM344.94,33.32c-.14-1.63-1.49-2.66-3.14-2.66s-3.03,1.22-3.19,2.66h6.33Z"/>
    <path class="st0" d="M356.07,24.56h5.35c3.33,0,5.48,1.97,5.48,4.89,0,2.25-1.17,4.06-3.35,4.73l4.02,6.45h-3.35l-3.44-6.08h-1.93v6.08h-2.78v-16.06ZM361.44,32.04c1.49,0,2.62-.89,2.62-2.55,0-1.31-.9-2.36-2.73-2.36h-2.48v4.91h2.59Z"/>
    <path class="st0" d="M368.38,34.63c0-3.79,2.78-6.33,6.01-6.33,3.67,0,5.9,2.66,5.9,6.24v.76h-9.11c.02,2.02,1.33,3.3,3.3,3.3,1.33,0,2.59-.69,3.03-2.02l2.48.6c-.78,2.5-2.98,3.74-5.48,3.74-3.67,0-6.13-2.62-6.13-6.29ZM377.53,33.32c-.14-1.63-1.49-2.66-3.14-2.66s-3.03,1.22-3.19,2.66h6.33Z"/>
    <path class="st0" d="M381.52,37.2l2.57-.57c.25,1.26,1.12,1.86,2.39,1.86s2-.48,2-1.28c0-2.43-6.52-.39-6.52-5.28,0-2.04,1.7-3.63,4.43-3.63,2.32,0,4.13,1.17,4.57,3.33l-2.41.67c-.23-1.06-1.01-1.54-2.16-1.54s-1.84.5-1.84,1.22c0,2.25,6.7.14,6.7,4.98,0,2.36-1.88,3.97-4.84,3.97-2.62,0-4.57-1.26-4.89-3.72Z"/>
    <path class="st0" d="M392.59,34.63c0-3.79,2.78-6.33,6.01-6.33,3.67,0,5.9,2.66,5.9,6.24v.76h-9.11c.02,2.02,1.33,3.3,3.3,3.3,1.33,0,2.59-.69,3.03-2.02l2.48.6c-.78,2.5-2.98,3.74-5.48,3.74-3.67,0-6.13-2.62-6.13-6.29ZM401.75,33.32c-.14-1.63-1.49-2.66-3.14-2.66s-3.03,1.22-3.19,2.66h6.33Z"/>
    <path class="st0" d="M405.86,34.61c0-3.65,2.39-6.31,5.6-6.31,2.02,0,3.12,1.03,3.65,1.77h.21v-1.47h2.71v9.2c0,.32.18.53.55.53h.53v2.29h-2.04c-1.08,0-1.63-.73-1.72-1.51h-.21c-.46.73-1.51,1.81-3.6,1.81-3.24,0-5.67-2.66-5.67-6.31ZM415.36,34.63c0-2.39-1.54-3.74-3.37-3.74-1.93,0-3.37,1.51-3.37,3.74s1.49,3.67,3.4,3.67c2.04,0,3.35-1.63,3.35-3.67Z"/>
    <path class="st0" d="M421.18,28.6h2.68v1.77h.18c.46-1.01,1.63-2.07,3.17-2.07h.9v2.71h-1.19c-1.97,0-3.03,1.4-3.03,3.67v5.94h-2.71v-12.02Z"/>
    <path class="st0" d="M428.87,34.61c0-3.51,2.55-6.31,6.22-6.31,2.82,0,5.19,1.58,5.87,4.5l-2.57.62c-.32-1.56-1.61-2.55-3.24-2.55-2.09,0-3.51,1.63-3.51,3.74s1.47,3.74,3.53,3.74c1.63,0,2.91-.96,3.24-2.52l2.57.62c-.69,2.91-3.05,4.47-5.87,4.47-3.74,0-6.24-2.8-6.24-6.31Z"/>
    <path class="st0" d="M442.99,23.41h2.71v6.56h.21c.53-.9,1.65-1.68,3.26-1.68,2.64,0,4.38,1.97,4.38,4.45v7.87h-2.71v-7.23c0-1.49-1.12-2.52-2.5-2.52-1.47,0-2.64,1.1-2.64,2.59v7.16h-2.71v-17.21Z"/>
  </g>
  <g>
    <path class="st0" d="M39.73,33.01h5.5V7.96h-5.5V0h19.84v7.96h-5.62v25.05h5.62v7.96h-19.84v-7.96Z"/>
    <path class="st0" d="M65.76,0h8.72v16.1h15.57V0h8.66v40.98h-8.66v-16.68h-15.57v16.68h-8.72V0Z"/>
    <path class="st0" d="M105.67,0h16.77c8.61,0,14.63,5.15,14.63,12.82,0,5.5-2.58,9.78-7.32,12l8.96,16.16h-9.95l-7.55-14.81h-6.82v14.81h-8.72V0ZM122.56,18.26c3.16,0,5.44-1.87,5.44-5.27,0-2.63-1.81-4.86-5.74-4.86h-7.87v10.13h8.17Z"/>
    <path class="st0" d="M0,40.98V0h8.67l16.14,25.07V0h8.74v40.98h-7.57L8.67,15.14v25.84H0Z"/>
  </g>
</svg>