<?xml version="1.0" encoding="utf-8"?>
<!-- Generator: Adobe Illustrator 26.0.2, SVG Export Plug-In . SVG Version: 6.00 Build 0)  -->
<svg version="1.0" id="Layer_1" xmlns="http://www.w3.org/2000/svg" xmlns:xlink="http://www.w3.org/1999/xlink" x="0px" y="0px"
	 viewBox="0 0 453.5 45" style="enable-background:new 0 0 453.5 45;" xml:space="preserve">
<style type="text/css">
	.st0{fill:#193E72;}
	.st1{fill:#EA5D4E;}
</style>
<g id="Layer_2_00000034055741747478264260000004296737618485859750_">
	<g id="Layer_1-2">
		<polygon class="st0" points="30.1,0.4 30.1,27.7 9.1,0.4 0,0.4 0,44.7 9.7,44.7 9.7,16.5 31.4,44.7 39.8,44.7 39.8,0.4 		"/>
		<rect x="47.7" y="0.4" class="st0" width="9.9" height="44.3"/>
		<polygon class="st0" points="93.5,0.4 93.5,18.2 75.3,18.2 75.3,0.4 65.4,0.4 65.4,44.7 75.3,44.7 75.3,27.7 93.5,27.7 93.5,44.7 
			103.3,44.7 103.3,0.4 		"/>
		<path class="st0" d="M133.6,18.2h-12.5v-9h12.5c2.1,0.1,5.1,0.9,5.1,4.5S135.7,18.2,133.6,18.2 M138.6,26.1
			c5.6-1.2,9.8-5.5,9.8-12.7c0-8-5.6-12.8-12.5-13l0,0h-24.7v44.3h9.9v-17h7.3l10.5,17h11.3L138.6,26.1z"/>
		<rect x="164.8" y="0.4" class="st1" width="3.9" height="44.4"/>
		<path class="st0" d="M198.5,0.5v17.3h-1.6c-0.2,0-0.4,0-0.6-0.1c-0.2-0.1-0.4-0.3-0.5-0.4l-9-11.5c0,0.5,0.1,1,0.1,1.5v10.6H184
			V0.5h1.7h0.4c0.1,0,0.2,0,0.3,0.1c0.1,0,0.2,0.1,0.2,0.2l0.2,0.3l9.1,11.6l-0.1-0.8c0-0.3,0-0.5,0-0.8V0.5H198.5z"/>
		<path class="st0" d="M201.3,7.2c1.4-1.3,3.2-2,5.1-1.9c0.7,0,1.3,0.1,1.9,0.3c0.5,0.2,1,0.6,1.4,1c0.4,0.4,0.7,0.9,0.9,1.5
			c0.2,0.6,0.3,1.2,0.3,1.9v7.8h-1.3c-0.2,0-0.4,0-0.6-0.1c-0.2-0.1-0.3-0.3-0.4-0.5l-0.3-0.9c-0.3,0.3-0.6,0.5-0.9,0.7
			c-0.3,0.2-0.6,0.4-0.9,0.5c-0.3,0.2-0.7,0.3-1,0.3c-0.4,0.1-0.8,0.1-1.2,0.1c-0.5,0-1-0.1-1.4-0.2c-0.4-0.1-0.8-0.3-1.1-0.6
			c-0.3-0.3-0.6-0.6-0.7-1c-0.2-0.5-0.3-1-0.3-1.4c0-0.3,0.1-0.6,0.2-0.9c0.1-0.3,0.3-0.6,0.5-0.9c0.3-0.3,0.6-0.6,0.9-0.8
			c0.4-0.3,0.9-0.5,1.4-0.6c0.6-0.2,1.2-0.3,1.9-0.4c0.8-0.1,1.7-0.2,2.5-0.2V10c0.1-0.7-0.1-1.3-0.5-1.8c-0.4-0.4-1-0.6-1.6-0.6
			c-0.4,0-0.8,0-1.2,0.2c-0.3,0.1-0.6,0.2-0.8,0.4l-0.7,0.4c-0.2,0.1-0.4,0.2-0.6,0.2c-0.2,0-0.4-0.1-0.5-0.2
			c-0.1-0.1-0.3-0.2-0.3-0.4L201.3,7.2z M208.1,12.5c-0.7,0-1.4,0.1-2.2,0.2c-0.5,0.1-1,0.2-1.4,0.4c-0.3,0.1-0.6,0.3-0.8,0.6
			c-0.1,0.2-0.2,0.5-0.2,0.7c0,0.4,0.1,0.8,0.5,1.1c0.4,0.2,0.8,0.4,1.2,0.3c0.5,0,1.1-0.1,1.6-0.3c0.5-0.3,0.9-0.6,1.3-1
			L208.1,12.5z"/>
		<path class="st0" d="M234.4,5.3c0.8,0,1.7,0.1,2.5,0.4c1.5,0.6,2.6,1.7,3.1,3.2c0.3,0.8,0.4,1.7,0.4,2.6c0,0.9-0.1,1.8-0.4,2.6
			c-0.3,0.7-0.7,1.4-1.2,2c-0.5,0.6-1.2,1-1.9,1.3c-0.8,0.3-1.6,0.5-2.5,0.4c-0.9,0-1.7-0.1-2.5-0.4c-0.7-0.3-1.3-0.7-1.9-1.3
			c-0.5-0.6-1-1.3-1.2-2c-0.3-0.8-0.5-1.7-0.4-2.6c0-0.9,0.1-1.8,0.4-2.6c0.3-0.8,0.7-1.4,1.3-2c0.5-0.6,1.2-1,1.9-1.3
			C232.7,5.4,233.5,5.3,234.4,5.3z M234.4,15.7c0.9,0.1,1.7-0.3,2.3-1c0.5-0.9,0.8-1.9,0.7-3c0.1-1.1-0.2-2.1-0.7-3
			c-0.5-0.7-1.4-1.1-2.3-1c-0.9-0.1-1.8,0.3-2.3,1.1c-0.6,0.9-0.8,1.9-0.8,3c-0.1,1.1,0.2,2.1,0.8,3
			C232.6,15.4,233.5,15.8,234.4,15.7z"/>
		<path class="st0" d="M245.4,7c0.2-0.2,0.5-0.5,0.8-0.7c0.3-0.2,0.6-0.4,0.9-0.5c0.3-0.1,0.7-0.3,1-0.3c0.4-0.1,0.8-0.1,1.1-0.1
			c0.6,0,1.2,0.1,1.8,0.3c0.5,0.2,0.9,0.6,1.3,1c0.4,0.4,0.6,0.9,0.8,1.5c0.2,0.6,0.3,1.2,0.3,1.9v7.8h-3V10c0-0.6-0.1-1.2-0.5-1.8
			c-0.4-0.4-1-0.7-1.6-0.6c-0.5,0-1,0.1-1.4,0.3c-0.5,0.3-0.9,0.6-1.3,1v8.9h-3V5.5h1.8c0.4,0,0.7,0.2,0.8,0.5L245.4,7z"/>
		<path class="st0" d="M255.9,7.2c1.4-1.3,3.2-2,5.1-1.9c0.7,0,1.3,0.1,1.9,0.3c0.5,0.2,1,0.6,1.4,1c0.4,0.4,0.7,0.9,0.9,1.5
			c0.2,0.6,0.3,1.3,0.3,1.9v7.7h-1.4c-0.2,0-0.4,0-0.6-0.1c-0.2-0.1-0.3-0.3-0.4-0.5l-0.3-0.9c-0.3,0.3-0.6,0.5-0.9,0.7
			c-0.3,0.2-0.6,0.4-0.9,0.5c-0.3,0.2-0.7,0.3-1,0.3c-0.4,0.1-0.8,0.1-1.2,0.1c-0.5,0-1-0.1-1.4-0.2c-0.4-0.1-0.8-0.3-1.1-0.6
			c-0.3-0.3-0.6-0.6-0.7-1c-0.2-0.5-0.3-1-0.3-1.4c0-0.3,0.1-0.6,0.2-0.9c0.1-0.3,0.3-0.6,0.5-0.9c0.3-0.3,0.6-0.6,0.9-0.8
			c0.4-0.3,0.9-0.5,1.4-0.6c0.6-0.2,1.3-0.4,1.9-0.4c0.8-0.1,1.7-0.2,2.5-0.2V10c0.1-0.7-0.1-1.3-0.5-1.8c-0.4-0.4-1-0.6-1.5-0.6
			c-0.4,0-0.8,0-1.2,0.2c-0.3,0.1-0.6,0.2-0.8,0.4l-0.7,0.4c-0.2,0.1-0.4,0.2-0.6,0.2c-0.2,0-0.4-0.1-0.5-0.2
			c-0.1-0.1-0.3-0.2-0.3-0.4L255.9,7.2z M262.7,12.5c-0.7,0-1.4,0.1-2.2,0.2c-0.5,0.1-1,0.2-1.4,0.4c-0.3,0.1-0.6,0.3-0.8,0.6
			c-0.1,0.2-0.2,0.5-0.2,0.7c0,0.4,0.1,0.8,0.5,1.1c0.4,0.2,0.8,0.4,1.2,0.3c0.5,0,1.1-0.1,1.6-0.3c0.5-0.3,0.9-0.6,1.3-1
			L262.7,12.5z"/>
		<path class="st0" d="M271.3,0v17.8h-3V0H271.3z"/>
		<path class="st0" d="M283.7,17.8h-3.2V0.5h3.2V17.8z"/>
		<path class="st0" d="M289.7,7c0.2-0.2,0.5-0.5,0.8-0.7c0.3-0.2,0.6-0.4,0.9-0.5c0.3-0.1,0.7-0.3,1-0.3c0.4-0.1,0.8-0.1,1.1-0.1
			c0.6,0,1.2,0.1,1.8,0.3c0.5,0.2,0.9,0.6,1.3,1c0.4,0.4,0.6,0.9,0.8,1.5c0.2,0.6,0.3,1.2,0.3,1.9v7.8h-3V10c0-0.6-0.1-1.2-0.5-1.8
			c-0.4-0.4-1-0.7-1.6-0.6c-0.5,0-1,0.1-1.4,0.3c-0.5,0.3-0.9,0.6-1.3,1v8.9h-3V5.5h1.8c0.3,0,0.7,0.2,0.8,0.5L289.7,7z"/>
		<path class="st0" d="M307.9,7.9c-0.1,0.1-0.1,0.2-0.2,0.3c-0.1,0.1-0.2,0.1-0.3,0.1c-0.2,0-0.3,0-0.5-0.1l-0.6-0.3
			c-0.2-0.1-0.5-0.2-0.7-0.3c-0.3-0.1-0.7-0.1-1-0.1c-0.5,0-1,0.1-1.4,0.4c-0.3,0.2-0.5,0.6-0.5,1c0,0.2,0.1,0.5,0.3,0.7
			c0.2,0.2,0.4,0.4,0.7,0.5c0.3,0.1,0.7,0.3,1,0.4c0.4,0.1,0.7,0.2,1.1,0.4c0.4,0.1,0.7,0.3,1.1,0.4c0.4,0.2,0.7,0.4,1,0.6
			c0.3,0.3,0.5,0.6,0.7,0.9c0.2,0.4,0.3,0.8,0.3,1.3c0,0.6-0.1,1.1-0.3,1.6c-0.2,0.5-0.5,0.9-0.9,1.3c-0.5,0.4-1,0.7-1.5,0.9
			c-0.7,0.2-1.4,0.3-2.1,0.3c-0.4,0-0.8,0-1.2-0.1c-0.4-0.1-0.8-0.2-1.2-0.3c-0.3-0.1-0.7-0.3-1-0.5c-0.3-0.2-0.6-0.4-0.8-0.6
			l0.7-1.1c0.1-0.1,0.2-0.2,0.3-0.3c0.1-0.1,0.3-0.1,0.5-0.1c0.2,0,0.4,0.1,0.5,0.2l0.6,0.3c0.2,0.1,0.5,0.3,0.8,0.3
			c0.4,0.1,0.7,0.2,1.1,0.2c0.3,0,0.6,0,0.9-0.1c0.2-0.1,0.4-0.2,0.6-0.3c0.2-0.1,0.3-0.3,0.4-0.5c0.1-0.2,0.1-0.4,0.1-0.6
			c0-0.3-0.1-0.5-0.2-0.7c-0.2-0.2-0.4-0.4-0.7-0.5c-0.3-0.1-0.7-0.3-1-0.4l-1.1-0.4c-0.4-0.1-0.7-0.3-1.1-0.4
			c-0.4-0.2-0.7-0.4-1-0.7c-0.3-0.3-0.5-0.6-0.7-1c-0.2-0.4-0.3-0.9-0.2-1.4c0-0.5,0.1-1,0.3-1.4c0.2-0.5,0.5-0.9,0.9-1.2
			c0.4-0.4,0.9-0.6,1.4-0.8c0.6-0.2,1.3-0.3,2-0.3c0.8,0,1.6,0.1,2.3,0.4c0.6,0.2,1.2,0.6,1.7,1.1L307.9,7.9z"/>
		<path class="st0" d="M330.4,18c-0.9,0.1-1.8-0.3-2.5-0.9c-0.6-0.7-0.9-1.6-0.9-2.5V7.7h-1.3c-0.1,0-0.3-0.1-0.4-0.2
			c-0.1-0.1-0.2-0.3-0.2-0.5V5.9l2-0.3l0.6-3.3c0-0.1,0.1-0.3,0.2-0.4c0.1-0.1,0.3-0.1,0.4-0.1h1.5v3.9h3.3v2.1H330v6.7
			c0,0.3,0.1,0.6,0.3,0.9c0.2,0.2,0.5,0.3,0.8,0.3c0.2,0,0.3,0,0.5-0.1l0.3-0.1l0.2-0.1c0.1,0,0.1-0.1,0.2-0.1c0.1,0,0.1,0,0.2,0.1
			c0.1,0.1,0.1,0.1,0.2,0.2l0.9,1.4c-0.4,0.4-0.9,0.6-1.5,0.8C331.5,17.9,331,18,330.4,18z"/>
		<path class="st0" d="M345.8,5.5v12.3H344c-0.3,0-0.7-0.2-0.7-0.5l-0.2-1c-0.5,0.5-1,0.9-1.7,1.2c-1.2,0.6-2.7,0.6-3.9,0.1
			c-0.5-0.2-0.9-0.6-1.3-1c-0.4-0.4-0.6-0.9-0.8-1.5c-0.2-0.6-0.3-1.2-0.3-1.9V5.5h2.9v7.8c0,0.6,0.1,1.2,0.5,1.7
			c0.4,0.4,1,0.7,1.6,0.6c0.5,0,1-0.1,1.4-0.4c0.5-0.2,0.9-0.6,1.3-0.9V5.5H345.8z"/>
		<path class="st0" d="M352.8,18c-0.9,0.1-1.8-0.3-2.5-0.9c-0.6-0.7-0.9-1.6-0.9-2.5V7.7h-1.3c-0.1,0-0.3-0.1-0.4-0.2
			c-0.1-0.1-0.2-0.3-0.2-0.5V5.9l2-0.3l0.6-3.3c0-0.1,0.1-0.3,0.2-0.4c0.1-0.1,0.3-0.1,0.4-0.1h1.5v3.9h3.3v2.1h-3.3v6.7
			c0,0.3,0.1,0.6,0.3,0.9c0.2,0.2,0.5,0.3,0.8,0.3c0.2,0,0.3,0,0.5-0.1l0.3-0.1l0.2-0.1c0.1,0,0.1-0.1,0.2-0.1c0.1,0,0.1,0,0.2,0.1
			c0.1,0.1,0.1,0.1,0.2,0.2l0.9,1.4c-0.4,0.4-0.9,0.6-1.5,0.8C353.9,17.9,353.4,18,352.8,18z"/>
		<path class="st0" d="M359.7,12c0,0.6,0.1,1.1,0.3,1.6c0.2,0.4,0.4,0.8,0.7,1.1c0.3,0.3,0.6,0.5,1,0.7c0.4,0.1,0.9,0.2,1.3,0.2
			c0.4,0,0.8-0.1,1.2-0.2c0.3-0.1,0.6-0.2,0.9-0.4l0.7-0.4c0.2-0.1,0.4-0.2,0.6-0.2c0.2,0,0.4,0.1,0.5,0.3l0.9,1.1
			c-0.3,0.4-0.7,0.7-1.1,1c-0.4,0.3-0.8,0.5-1.3,0.6c-0.4,0.2-0.9,0.3-1.4,0.3c-0.4,0.1-0.9,0.1-1.3,0.1c-0.8,0-1.6-0.1-2.4-0.4
			c-0.7-0.3-1.4-0.7-1.9-1.3c-0.6-0.6-1-1.3-1.3-2.1c-0.3-0.9-0.5-1.9-0.5-2.8c0-0.8,0.1-1.6,0.4-2.4c0.3-0.7,0.7-1.4,1.2-1.9
			c0.5-0.6,1.2-1,1.9-1.3c0.8-0.3,1.6-0.5,2.5-0.5c0.7,0,1.5,0.1,2.1,0.4c0.6,0.2,1.2,0.6,1.7,1.1c0.5,0.5,0.9,1.1,1.1,1.8
			c0.3,0.8,0.4,1.6,0.4,2.4c0,0.3,0,0.6-0.1,0.9c-0.1,0.2-0.3,0.3-0.5,0.2L359.7,12z M365.4,10.2c0-0.4-0.1-0.7-0.2-1.1
			c-0.1-0.3-0.3-0.6-0.5-0.9c-0.2-0.3-0.5-0.5-0.8-0.6c-0.4-0.2-0.8-0.2-1.2-0.2c-0.7,0-1.5,0.2-2,0.7c-0.5,0.6-0.9,1.3-0.9,2.1
			L365.4,10.2z"/>
		<path class="st0" d="M376.9,17.8v-10l-1.1-0.2c-0.2,0-0.4-0.1-0.6-0.2c-0.1-0.1-0.2-0.3-0.2-0.5V5.6h1.8V4.7
			c0-0.6,0.1-1.3,0.3-1.9c0.2-0.5,0.5-1,0.9-1.4c0.4-0.4,0.9-0.7,1.4-0.9c0.6-0.2,1.3-0.3,1.9-0.3c0.5,0,1,0.1,1.5,0.2v1.5
			c0,0.1,0,0.2-0.1,0.3c-0.1,0.1-0.1,0.1-0.2,0.2c-0.1,0-0.2,0.1-0.3,0.1H382c-0.3,0-0.6,0-0.9,0.1c-0.6,0.1-1,0.6-1.1,1.1
			c-0.1,0.4-0.2,0.8-0.1,1.1v0.8h3.2v2.1h-3.1v10.1H376.9z"/>
		<path class="st0" d="M389.7,5.3c0.8,0,1.7,0.1,2.5,0.4c0.7,0.3,1.4,0.7,1.9,1.2c0.5,0.6,1,1.3,1.2,2c0.3,0.8,0.4,1.7,0.4,2.6
			c0,0.9-0.1,1.8-0.4,2.6c-0.3,0.7-0.7,1.4-1.2,2c-0.5,0.6-1.2,1-1.9,1.3c-0.8,0.3-1.6,0.5-2.5,0.4c-0.9,0-1.7-0.1-2.5-0.4
			c-0.7-0.3-1.4-0.7-1.9-1.3c-0.5-0.6-1-1.3-1.2-2c-0.3-0.8-0.5-1.7-0.4-2.6c0-0.9,0.1-1.8,0.4-2.6c0.3-0.7,0.7-1.4,1.2-2
			c0.5-0.6,1.2-1,1.9-1.3C388,5.4,388.8,5.3,389.7,5.3z M389.7,15.7c0.9,0.1,1.7-0.3,2.3-1c0.5-0.9,0.8-1.9,0.7-3
			c0.1-1.1-0.2-2.1-0.7-3c-0.5-0.7-1.4-1.1-2.3-1c-0.9-0.1-1.8,0.3-2.3,1.1c-0.6,0.9-0.8,1.9-0.8,3c-0.1,1.1,0.2,2.1,0.8,3
			C387.9,15.4,388.8,15.8,389.7,15.7z"/>
		<path class="st0" d="M400.8,7.6c0.3-0.7,0.8-1.3,1.4-1.7c0.5-0.4,1.2-0.6,1.9-0.6c0.5,0,1,0.1,1.4,0.4l-0.2,2.2
			c0,0.1-0.1,0.2-0.2,0.3c-0.1,0.1-0.2,0.1-0.3,0.1c-0.2,0-0.4,0-0.5-0.1c-0.2,0-0.5-0.1-0.7-0.1c-0.3,0-0.6,0-0.9,0.1
			c-0.3,0.1-0.5,0.2-0.7,0.4c-0.2,0.2-0.4,0.4-0.5,0.6c-0.2,0.3-0.3,0.6-0.4,0.9v7.6H398V5.5h1.7c0.2,0,0.5,0,0.6,0.2
			c0.1,0.2,0.2,0.4,0.2,0.6L400.8,7.6z"/>
		<path class="st0" d="M198.5,27.5v17.3h-3.2v-7.6h-8.1v7.6H184V27.5h3.2v7.5h8.1v-7.5H198.5z"/>
		<path class="st0" d="M203.8,39c0,0.6,0.1,1.1,0.3,1.6c0.2,0.4,0.4,0.8,0.7,1.1c0.3,0.3,0.6,0.5,1,0.7c0.4,0.1,0.9,0.2,1.3,0.2
			c0.4,0,0.8,0,1.2-0.2c0.3-0.1,0.6-0.2,0.9-0.4l0.7-0.4c0.2-0.1,0.4-0.2,0.6-0.2c0.2,0,0.4,0.1,0.6,0.3L212,43
			c-0.3,0.4-0.7,0.7-1.1,1c-0.4,0.3-0.8,0.5-1.3,0.6c-0.4,0.2-0.9,0.3-1.4,0.3c-0.4,0.1-0.9,0.1-1.3,0.1c-0.8,0-1.6-0.1-2.4-0.4
			c-0.7-0.3-1.4-0.7-1.9-1.3c-0.6-0.6-1-1.3-1.3-2.1c-0.3-0.9-0.5-1.9-0.5-2.8c0-0.8,0.1-1.6,0.4-2.4c0.3-0.7,0.7-1.4,1.2-1.9
			c0.5-0.6,1.1-1,1.9-1.3c0.8-0.3,1.6-0.5,2.5-0.5c0.7,0,1.5,0.1,2.1,0.4c0.6,0.2,1.2,0.6,1.7,1.1c0.5,0.5,0.9,1.1,1.1,1.8
			c0.3,0.8,0.4,1.6,0.4,2.4c0,0.3,0,0.6-0.1,0.9c-0.1,0.2-0.3,0.3-0.6,0.2L203.8,39z M209.4,37.2c0-0.4,0-0.7-0.2-1.1
			c-0.1-0.3-0.3-0.6-0.5-0.9c-0.2-0.3-0.5-0.5-0.8-0.6c-1.1-0.4-2.3-0.2-3.2,0.5c-0.5,0.6-0.9,1.3-0.9,2.1L209.4,37.2z"/>
		<path class="st0" d="M214,34.2c1.4-1.3,3.2-2,5.1-1.9c0.7,0,1.3,0.1,1.9,0.3c0.5,0.2,1,0.6,1.4,1c0.4,0.4,0.7,0.9,0.9,1.5
			c0.2,0.6,0.3,1.3,0.3,1.9v7.8h-1.3c-0.2,0-0.4,0-0.6-0.1c-0.2-0.1-0.3-0.3-0.4-0.5l-0.3-0.9c-0.3,0.3-0.6,0.5-0.9,0.7
			c-0.3,0.2-0.6,0.4-0.9,0.5c-0.3,0.2-0.7,0.3-1,0.3c-0.4,0.1-0.8,0.1-1.2,0.1c-0.5,0-1-0.1-1.4-0.2c-0.4-0.1-0.8-0.3-1.1-0.6
			c-0.3-0.3-0.6-0.6-0.8-1c-0.2-0.5-0.3-1-0.3-1.5c0-0.3,0.1-0.6,0.2-0.9c0.1-0.3,0.3-0.6,0.5-0.9c0.3-0.3,0.6-0.6,0.9-0.8
			c0.4-0.3,0.9-0.5,1.4-0.7c0.6-0.2,1.3-0.3,1.9-0.5c0.8-0.1,1.7-0.2,2.5-0.2V37c0.1-0.7-0.1-1.3-0.5-1.8c-0.4-0.4-1-0.6-1.5-0.6
			c-0.4,0-0.8,0-1.2,0.2c-0.3,0.1-0.6,0.2-0.8,0.4l-0.6,0.4c-0.2,0.1-0.4,0.2-0.6,0.2c-0.2,0-0.4-0.1-0.5-0.2
			c-0.1-0.1-0.3-0.2-0.4-0.4L214,34.2z M220.8,39.6c-0.7,0-1.4,0.1-2.2,0.2c-0.5,0.1-1,0.2-1.4,0.4c-0.3,0.1-0.6,0.3-0.8,0.6
			c-0.4,0.6-0.3,1.4,0.2,1.8c0.4,0.2,0.8,0.4,1.2,0.3c0.5,0,1.1-0.1,1.6-0.3c0.5-0.3,0.9-0.6,1.3-1L220.8,39.6z"/>
		<path class="st0" d="M229.4,27v17.8h-3V27H229.4z"/>
		<path class="st0" d="M236.4,45c-0.9,0.1-1.8-0.3-2.5-0.9c-0.6-0.7-0.9-1.6-0.9-2.5v-6.9h-1.2c-0.2,0-0.3,0-0.4-0.2
			c-0.1-0.1-0.2-0.3-0.2-0.5v-1.2l2-0.3l0.6-3.4c0-0.1,0.1-0.3,0.2-0.4c0.1-0.1,0.3-0.1,0.4-0.1h1.5v3.9h3.3v2.1H236v6.7
			c0,0.3,0.1,0.6,0.3,0.9c0.2,0.2,0.5,0.3,0.8,0.3c0.2,0,0.3,0,0.5-0.1c0.1,0,0.2-0.1,0.3-0.1l0.2-0.1c0.1,0,0.1-0.1,0.2-0.1
			c0.1,0,0.2,0,0.2,0.1c0.1,0.1,0.1,0.1,0.2,0.2l0.9,1.4c-0.4,0.4-0.9,0.6-1.5,0.8C237.5,44.9,237,45,236.4,45z"/>
		<path class="st0" d="M244.1,33.8c0.5-0.4,1-0.8,1.6-1.1c0.6-0.3,1.3-0.4,2-0.4c0.6,0,1.2,0.1,1.8,0.3c0.5,0.2,1,0.6,1.3,1
			c0.4,0.4,0.6,0.9,0.8,1.5c0.2,0.6,0.3,1.2,0.3,1.9v7.8h-3V37c0-0.6-0.1-1.2-0.5-1.8c-0.4-0.4-1-0.7-1.6-0.6c-0.5,0-1,0.1-1.4,0.3
			c-0.5,0.3-0.9,0.6-1.3,1v8.9h-3V27h3L244.1,33.8z"/>
		<path class="st0" d="M260.1,34.2c1.4-1.3,3.2-2,5.1-1.9c0.7,0,1.3,0.1,1.9,0.3c0.5,0.2,1,0.6,1.4,1c0.4,0.4,0.7,0.9,0.9,1.5
			c0.2,0.6,0.3,1.3,0.3,1.9v7.8h-1.3c-0.2,0-0.4,0-0.6-0.1c-0.2-0.1-0.3-0.3-0.4-0.5l-0.3-0.9c-0.3,0.3-0.6,0.5-0.9,0.7
			c-0.3,0.2-0.6,0.4-0.9,0.5c-0.3,0.2-0.7,0.3-1,0.3c-0.4,0.1-0.8,0.1-1.2,0.1c-0.5,0-1-0.1-1.4-0.2c-0.4-0.1-0.8-0.3-1.1-0.6
			c-0.3-0.3-0.6-0.6-0.7-1c-0.2-0.5-0.3-1-0.3-1.5c0-0.3,0.1-0.6,0.2-0.9c0.1-0.3,0.3-0.6,0.5-0.9c0.3-0.3,0.6-0.6,0.9-0.8
			c0.4-0.3,0.9-0.5,1.4-0.7c0.6-0.2,1.3-0.4,1.9-0.5c0.8-0.1,1.7-0.2,2.5-0.2V37c0.1-0.7-0.1-1.3-0.5-1.8c-0.4-0.4-1-0.6-1.5-0.6
			c-0.4,0-0.8,0-1.2,0.2c-0.3,0.1-0.6,0.2-0.8,0.4l-0.7,0.4c-0.2,0.1-0.4,0.2-0.6,0.2c-0.2,0-0.4-0.1-0.5-0.2
			c-0.1-0.1-0.3-0.2-0.3-0.4L260.1,34.2z M266.9,39.6c-0.7,0-1.4,0.1-2.2,0.2c-0.5,0.1-1,0.2-1.4,0.4c-0.3,0.1-0.6,0.3-0.8,0.6
			c-0.1,0.2-0.2,0.5-0.2,0.7c0,0.4,0.1,0.8,0.5,1.1c0.4,0.3,0.8,0.4,1.2,0.4c0.5,0,1.1-0.1,1.6-0.3c0.5-0.3,0.9-0.6,1.3-1
			L266.9,39.6z"/>
		<path class="st0" d="M275.2,34c0.2-0.2,0.5-0.5,0.8-0.7c0.3-0.2,0.6-0.4,0.9-0.5c0.3-0.1,0.7-0.3,1-0.3c0.4-0.1,0.8-0.1,1.1-0.1
			c0.6,0,1.2,0.1,1.8,0.3c0.5,0.2,0.9,0.6,1.3,1c0.4,0.4,0.6,0.9,0.8,1.5c0.2,0.6,0.3,1.2,0.3,1.9v7.8h-3V37c0-0.6-0.1-1.2-0.5-1.8
			c-0.4-0.4-1-0.7-1.6-0.6c-0.5,0-1,0.1-1.4,0.3c-0.5,0.3-0.9,0.6-1.3,1v8.9h-3V32.5h1.8c0.4,0,0.7,0.2,0.8,0.5L275.2,34z"/>
		<path class="st0" d="M296.6,27v17.8h-1.8c-0.3,0-0.7-0.2-0.8-0.5l-0.2-1.2c-0.5,0.6-1.1,1-1.7,1.4c-0.7,0.4-1.5,0.5-2.2,0.5
			c-0.6,0-1.3-0.1-1.8-0.4c-0.6-0.3-1.1-0.7-1.5-1.2c-0.4-0.6-0.7-1.3-0.9-2c-0.2-0.9-0.3-1.8-0.3-2.7c0-0.9,0.1-1.7,0.4-2.5
			c0.2-0.7,0.6-1.4,1.1-2c0.4-0.6,1-1,1.7-1.3c0.7-0.3,1.4-0.5,2.2-0.5c0.6,0,1.2,0.1,1.8,0.3c0.5,0.2,0.9,0.5,1.3,0.9V27H296.6z
			 M293.6,35.7c-0.3-0.4-0.7-0.7-1.1-0.9c-0.4-0.2-0.8-0.3-1.3-0.2c-0.4,0-0.8,0.1-1.2,0.2c-0.4,0.2-0.7,0.4-0.9,0.8
			c-0.3,0.4-0.5,0.8-0.6,1.3c-0.1,0.6-0.2,1.2-0.2,1.8c0,0.6,0,1.2,0.2,1.8c0.1,0.4,0.3,0.9,0.5,1.2c0.2,0.3,0.5,0.5,0.8,0.7
			c0.3,0.1,0.7,0.2,1,0.2c0.5,0,1.1-0.1,1.6-0.4c0.5-0.3,0.9-0.7,1.2-1.1V35.7z"/>
		<path class="st0" d="M317.6,40.7c0.2,0,0.3,0.1,0.5,0.2l1.3,1.4c-0.7,0.9-1.6,1.6-2.6,2c-1.2,0.5-2.4,0.7-3.7,0.7
			c-1.2,0-2.4-0.2-3.5-0.7c-1-0.4-1.9-1-2.6-1.8c-0.7-0.8-1.3-1.8-1.7-2.8c-0.4-1.1-0.6-2.3-0.6-3.5c0-1.2,0.2-2.4,0.6-3.6
			c0.4-1,1-2,1.8-2.8c0.8-0.8,1.7-1.4,2.7-1.8c1.1-0.4,2.3-0.7,3.5-0.6c1.2,0,2.3,0.2,3.4,0.6c0.9,0.4,1.8,0.9,2.5,1.6L318,31
			c-0.1,0.1-0.2,0.2-0.2,0.2c-0.1,0.1-0.3,0.1-0.4,0.1c-0.1,0-0.3,0-0.4-0.1c-0.1-0.1-0.3-0.2-0.4-0.2l-0.5-0.3
			c-0.2-0.1-0.5-0.2-0.7-0.3c-0.3-0.1-0.6-0.2-0.9-0.2c-0.4-0.1-0.8-0.1-1.2-0.1c-0.7,0-1.5,0.1-2.1,0.4c-0.6,0.3-1.2,0.7-1.7,1.2
			c-0.5,0.6-0.8,1.2-1.1,1.9c-0.3,0.8-0.4,1.7-0.4,2.6c0,0.9,0.1,1.8,0.4,2.6c0.2,0.7,0.6,1.4,1.1,1.9c0.5,0.5,1,0.9,1.7,1.2
			c0.6,0.3,1.4,0.4,2.1,0.4c0.4,0,0.8,0,1.2-0.1c0.6-0.1,1.3-0.3,1.8-0.6c0.3-0.2,0.6-0.4,0.8-0.6c0.1-0.1,0.2-0.1,0.2-0.2
			C317.4,40.7,317.5,40.7,317.6,40.7z"/>
		<path class="st0" d="M320.8,34.2c1.4-1.3,3.2-2,5.1-1.9c0.7,0,1.3,0.1,1.9,0.3c1.1,0.5,1.9,1.4,2.3,2.5c0.2,0.6,0.3,1.3,0.3,1.9
			v7.8h-1.3c-0.2,0-0.4,0-0.6-0.1c-0.2-0.1-0.3-0.3-0.4-0.5l-0.3-0.9c-0.3,0.3-0.6,0.5-0.9,0.7c-0.3,0.2-0.6,0.4-0.9,0.5
			c-0.3,0.2-0.7,0.3-1,0.3c-0.4,0.1-0.8,0.1-1.2,0.1c-0.5,0-1-0.1-1.4-0.2c-0.4-0.1-0.8-0.3-1.1-0.6c-0.3-0.3-0.6-0.6-0.8-1
			c-0.2-0.5-0.3-1-0.3-1.5c0-0.3,0.1-0.6,0.1-0.9c0.1-0.3,0.3-0.6,0.5-0.9c0.3-0.3,0.6-0.6,0.9-0.8c0.4-0.3,0.9-0.5,1.4-0.7
			c0.6-0.2,1.2-0.3,1.9-0.5c0.8-0.1,1.7-0.2,2.5-0.2V37c0.1-0.7-0.1-1.3-0.5-1.8c-0.4-0.4-1-0.6-1.5-0.6c-0.4,0-0.8,0-1.2,0.2
			c-0.3,0.1-0.6,0.2-0.8,0.4l-0.6,0.4c-0.2,0.1-0.4,0.2-0.6,0.2c-0.2,0-0.4-0.1-0.5-0.2c-0.1-0.1-0.3-0.2-0.4-0.4L320.8,34.2z
			 M327.5,39.6c-0.7,0-1.4,0.1-2.1,0.2c-0.5,0.1-1,0.2-1.4,0.4c-0.3,0.1-0.6,0.3-0.8,0.6c-0.4,0.6-0.3,1.4,0.2,1.8
			c0.4,0.2,0.8,0.4,1.2,0.3c0.5,0,1.1-0.1,1.6-0.3c0.5-0.3,0.9-0.6,1.3-1V39.6z"/>
		<path class="st0" d="M335.9,34.6c0.3-0.7,0.8-1.3,1.4-1.7c0.5-0.4,1.2-0.6,1.9-0.6c0.5,0,1,0.1,1.4,0.4l-0.2,2.2
			c0,0.1-0.1,0.2-0.2,0.3c-0.1,0.1-0.2,0.1-0.3,0.1c-0.2,0-0.4,0-0.5-0.1c-0.2,0-0.5-0.1-0.7-0.1c-0.3,0-0.6,0-0.9,0.2
			c-0.3,0.1-0.5,0.2-0.7,0.4c-0.2,0.2-0.4,0.4-0.5,0.7c-0.2,0.3-0.3,0.6-0.4,0.9v7.6h-3V32.5h1.7c0.2,0,0.4,0,0.6,0.2
			c0.1,0.2,0.2,0.4,0.2,0.6L335.9,34.6z"/>
		<path class="st0" d="M344,39c0,0.6,0.1,1.1,0.3,1.6c0.1,0.4,0.4,0.8,0.7,1.1c0.3,0.3,0.6,0.5,1,0.7c0.4,0.1,0.9,0.2,1.3,0.2
			c0.4,0,0.8-0.1,1.2-0.2c0.3-0.1,0.6-0.2,0.9-0.4l0.7-0.4c0.2-0.1,0.4-0.2,0.6-0.2c0.2,0,0.4,0.1,0.5,0.3l0.9,1.1
			c-0.3,0.4-0.7,0.7-1.1,1c-0.4,0.3-0.8,0.5-1.3,0.6c-0.4,0.2-0.9,0.3-1.4,0.3c-0.4,0.1-0.9,0.1-1.3,0.1c-0.8,0-1.6-0.1-2.4-0.4
			c-0.7-0.3-1.4-0.7-1.9-1.3c-0.6-0.6-1-1.3-1.3-2.1c-0.3-0.9-0.5-1.9-0.5-2.8c0-0.8,0.1-1.6,0.4-2.4c0.3-0.7,0.7-1.4,1.2-1.9
			c0.5-0.6,1.2-1,1.9-1.3c0.8-0.3,1.6-0.5,2.5-0.5c0.7,0,1.5,0.1,2.1,0.4c0.6,0.2,1.2,0.6,1.7,1.1c0.5,0.5,0.9,1.1,1.1,1.8
			c0.3,0.8,0.4,1.6,0.4,2.4c0,0.3,0,0.6-0.1,0.9c-0.1,0.2-0.3,0.3-0.5,0.2L344,39z M349.6,37.2c0-0.4,0-0.7-0.2-1.1
			c-0.1-0.3-0.3-0.6-0.5-0.9c-0.2-0.3-0.5-0.5-0.8-0.6c-0.4-0.2-0.8-0.2-1.2-0.2c-0.7,0-1.5,0.2-2,0.7c-0.5,0.6-0.9,1.3-0.9,2.1
			L349.6,37.2z"/>
		<path class="st0" d="M374.2,44.8h-2.9c-0.5,0-1-0.2-1.2-0.6l-3.6-5.5c-0.1-0.2-0.3-0.3-0.5-0.4c-0.2-0.1-0.5-0.1-0.7-0.1h-1.4v6.8
			h-3.2V27.5h5.3c1,0,2,0.1,3,0.4c0.7,0.2,1.5,0.5,2.1,1c0.5,0.4,0.9,1,1.2,1.6c0.5,1.2,0.5,2.5,0.1,3.7c-0.3,1-1,1.9-1.9,2.5
			c-0.5,0.3-1,0.6-1.6,0.8c0.2,0.1,0.4,0.3,0.6,0.4c0.2,0.2,0.3,0.4,0.5,0.6L374.2,44.8z M365.9,35.7c0.5,0,1.1-0.1,1.6-0.2
			c0.4-0.1,0.8-0.3,1.1-0.6c0.3-0.3,0.5-0.6,0.6-1c0.2-0.4,0.2-0.8,0.2-1.2c0-0.8-0.3-1.5-0.9-2c-0.8-0.5-1.7-0.8-2.6-0.7h-2.1v5.8
			L365.9,35.7z"/>
		<path class="st0" d="M377,39c0,0.6,0.1,1.1,0.3,1.6c0.2,0.4,0.4,0.8,0.7,1.1c0.3,0.3,0.6,0.5,1,0.7c0.4,0.1,0.9,0.2,1.3,0.2
			c0.4,0,0.8-0.1,1.2-0.2c0.3-0.1,0.6-0.2,0.9-0.4l0.7-0.4c0.2-0.1,0.4-0.2,0.6-0.2c0.2,0,0.4,0.1,0.5,0.3l0.9,1.1
			c-0.3,0.4-0.7,0.7-1.1,1c-0.4,0.3-0.8,0.5-1.3,0.6c-0.4,0.2-0.9,0.3-1.4,0.3c-0.4,0.1-0.9,0.1-1.3,0.1c-0.8,0-1.6-0.1-2.4-0.4
			c-0.7-0.3-1.4-0.7-1.9-1.3c-0.6-0.6-1-1.3-1.3-2.1c-0.3-0.9-0.5-1.9-0.5-2.8c0-0.8,0.1-1.6,0.4-2.4c0.3-0.7,0.7-1.4,1.2-1.9
			c0.5-0.6,1.2-1,1.9-1.3c0.8-0.3,1.6-0.5,2.5-0.5c0.7,0,1.5,0.1,2.1,0.4c0.6,0.2,1.2,0.6,1.7,1.1c0.5,0.5,0.9,1.1,1.1,1.8
			c0.3,0.8,0.4,1.6,0.4,2.4c0,0.3,0,0.6-0.1,0.9c-0.1,0.2-0.3,0.3-0.5,0.2L377,39z M382.6,37.2c0-0.4,0-0.7-0.2-1.1
			c-0.1-0.3-0.3-0.6-0.5-0.9c-0.2-0.3-0.5-0.5-0.8-0.6c-0.4-0.2-0.8-0.2-1.2-0.2c-0.7,0-1.5,0.2-2,0.7c-0.5,0.6-0.9,1.3-0.9,2.1
			L382.6,37.2z"/>
		<path class="st0" d="M395,34.9c-0.1,0.1-0.1,0.2-0.2,0.3c-0.1,0.1-0.2,0.1-0.3,0.1c-0.2,0-0.3,0-0.5-0.1l-0.6-0.3
			c-0.2-0.1-0.5-0.2-0.7-0.3c-0.3-0.1-0.7-0.1-1-0.1c-0.5,0-1,0.1-1.4,0.4c-0.3,0.2-0.5,0.6-0.5,1c0,0.2,0.1,0.5,0.3,0.7
			c0.2,0.2,0.4,0.4,0.7,0.5c0.3,0.2,0.7,0.3,1,0.4c0.4,0.1,0.7,0.2,1.1,0.3c0.4,0.1,0.7,0.3,1.1,0.4c0.4,0.2,0.7,0.4,1,0.6
			c0.3,0.3,0.5,0.6,0.7,0.9c0.2,0.4,0.3,0.8,0.3,1.3c0,0.6-0.1,1.1-0.3,1.6c-0.2,0.5-0.5,0.9-0.9,1.3c-0.5,0.4-1,0.7-1.5,0.8
			c-0.7,0.2-1.4,0.3-2.1,0.3c-0.4,0-0.8,0-1.2-0.1c-0.4-0.1-0.8-0.2-1.2-0.3c-0.3-0.1-0.7-0.3-1-0.5c-0.3-0.2-0.6-0.4-0.8-0.6
			l0.7-1.1c0.1-0.1,0.2-0.2,0.3-0.3c0.1-0.1,0.3-0.1,0.5-0.1c0.2,0,0.4,0.1,0.5,0.2l0.6,0.3c0.2,0.1,0.5,0.3,0.8,0.3
			c0.4,0.1,0.7,0.2,1.1,0.2c0.3,0,0.6,0,0.9-0.1c0.2-0.1,0.4-0.2,0.6-0.3c0.2-0.1,0.3-0.3,0.4-0.5c0.1-0.2,0.1-0.4,0.1-0.6
			c0-0.3-0.1-0.5-0.2-0.7c-0.2-0.2-0.4-0.4-0.7-0.5c-0.3-0.1-0.7-0.3-1-0.4l-1.2-0.4c-0.4-0.1-0.7-0.3-1.1-0.5
			c-0.4-0.2-0.7-0.4-1-0.7c-0.3-0.3-0.5-0.6-0.7-1c-0.2-0.4-0.3-0.9-0.2-1.4c0-0.5,0.1-1,0.3-1.4c0.2-0.5,0.5-0.9,0.9-1.2
			c0.4-0.4,0.9-0.6,1.4-0.8c0.6-0.2,1.3-0.3,2-0.3c0.8,0,1.6,0.1,2.3,0.4c0.6,0.2,1.2,0.6,1.7,1.1L395,34.9z"/>
		<path class="st0" d="M400.2,39c0,0.6,0.1,1.1,0.3,1.6c0.2,0.4,0.4,0.8,0.7,1.1c0.3,0.3,0.6,0.5,1,0.7c0.4,0.1,0.9,0.2,1.3,0.2
			c0.4,0,0.8-0.1,1.2-0.2c0.3-0.1,0.6-0.2,0.9-0.4l0.7-0.4c0.2-0.1,0.4-0.2,0.6-0.2c0.2,0,0.4,0.1,0.5,0.3l0.9,1.1
			c-0.3,0.4-0.7,0.7-1.1,1c-0.4,0.3-0.8,0.5-1.3,0.6c-0.4,0.2-0.9,0.3-1.4,0.3c-0.4,0.1-0.9,0.1-1.3,0.1c-0.8,0-1.6-0.1-2.4-0.4
			c-0.7-0.3-1.4-0.7-1.9-1.3c-0.6-0.6-1-1.3-1.3-2.1c-0.3-0.9-0.5-1.9-0.5-2.8c0-0.8,0.2-1.6,0.5-2.4c0.3-0.7,0.7-1.4,1.2-1.9
			c0.5-0.6,1.2-1,1.9-1.3c0.8-0.3,1.6-0.5,2.5-0.5c0.7,0,1.5,0.1,2.1,0.4c0.6,0.2,1.2,0.6,1.7,1.1c0.5,0.5,0.9,1.1,1.1,1.8
			c0.3,0.8,0.4,1.6,0.4,2.4c0,0.3,0,0.6-0.1,0.9c-0.1,0.2-0.3,0.3-0.5,0.2L400.2,39z M405.9,37.2c0-0.4,0-0.7-0.2-1.1
			c-0.1-0.3-0.3-0.6-0.5-0.9c-0.2-0.3-0.5-0.5-0.8-0.6c-0.4-0.2-0.8-0.2-1.2-0.2c-0.7,0-1.5,0.2-2,0.7c-0.5,0.6-0.9,1.3-0.9,2.1
			L405.9,37.2z"/>
		<path class="st0" d="M410.4,34.2c1.4-1.3,3.2-2,5.1-1.9c0.7,0,1.3,0.1,1.9,0.3c0.5,0.2,1,0.6,1.4,1c0.4,0.4,0.7,0.9,0.9,1.5
			c0.2,0.6,0.3,1.3,0.3,1.9v7.8h-1.3c-0.2,0-0.4,0-0.6-0.1c-0.2-0.1-0.3-0.3-0.4-0.5l-0.3-0.9c-0.3,0.3-0.6,0.5-0.9,0.7
			c-0.3,0.2-0.6,0.4-0.9,0.5c-0.3,0.2-0.7,0.3-1,0.3c-0.4,0.1-0.8,0.1-1.2,0.1c-0.5,0-1-0.1-1.4-0.2c-0.4-0.1-0.8-0.3-1.1-0.6
			c-0.3-0.3-0.6-0.6-0.7-1c-0.2-0.5-0.3-1-0.3-1.5c0-0.3,0.1-0.6,0.1-0.9c0.1-0.3,0.3-0.6,0.5-0.9c0.3-0.3,0.6-0.6,0.9-0.8
			c0.4-0.3,0.9-0.5,1.4-0.7c0.6-0.2,1.2-0.4,1.9-0.5c0.8-0.1,1.7-0.2,2.5-0.2V37c0.1-0.7-0.1-1.3-0.5-1.8c-0.4-0.4-1-0.6-1.5-0.6
			c-0.4,0-0.8,0-1.2,0.2c-0.3,0.1-0.6,0.2-0.8,0.4l-0.6,0.4c-0.2,0.1-0.4,0.2-0.7,0.2c-0.2,0-0.4-0.1-0.5-0.2
			c-0.1-0.1-0.3-0.2-0.4-0.4L410.4,34.2z M417.2,39.6c-0.7,0-1.4,0.1-2.1,0.2c-0.5,0.1-1,0.2-1.4,0.4c-0.3,0.1-0.6,0.3-0.8,0.6
			c-0.4,0.6-0.3,1.4,0.2,1.8c0.4,0.2,0.8,0.4,1.2,0.3c0.5,0,1.1-0.1,1.6-0.3c0.5-0.3,0.9-0.6,1.3-1V39.6z"/>
		<path class="st0" d="M425.6,34.6c0.3-0.7,0.8-1.3,1.4-1.7c0.5-0.4,1.2-0.6,1.9-0.6c0.5,0,1,0.1,1.4,0.4l-0.2,2.2
			c0,0.1-0.1,0.2-0.2,0.3c-0.1,0.1-0.2,0.1-0.3,0.1c-0.2,0-0.4,0-0.5-0.1c-0.2,0-0.5-0.1-0.7-0.1c-0.3,0-0.6,0-0.9,0.2
			c-0.3,0.1-0.5,0.2-0.7,0.4c-0.2,0.2-0.4,0.4-0.5,0.7c-0.2,0.3-0.3,0.6-0.4,0.9v7.6h-3V32.5h1.7c0.4-0.1,0.8,0.2,0.9,0.5
			c0,0.1,0,0.1,0,0.2L425.6,34.6z"/>
		<path class="st0" d="M440.1,35.1c-0.1,0.1-0.2,0.2-0.3,0.3c-0.1,0.1-0.2,0.1-0.4,0.1c-0.2,0-0.3-0.1-0.4-0.1l-0.5-0.3
			c-0.2-0.1-0.5-0.2-0.7-0.3c-0.3-0.1-0.7-0.2-1-0.1c-0.5,0-0.9,0.1-1.4,0.3c-0.4,0.2-0.7,0.5-1,0.8c-0.3,0.4-0.5,0.8-0.6,1.3
			c-0.1,0.6-0.2,1.1-0.2,1.7c0,0.6,0.1,1.2,0.2,1.8c0.1,0.5,0.3,0.9,0.6,1.3c0.3,0.3,0.6,0.6,1,0.8c0.4,0.2,0.8,0.3,1.3,0.3
			c0.4,0,0.8,0,1.1-0.2c0.3-0.1,0.5-0.2,0.7-0.4l0.5-0.4c0.1-0.1,0.3-0.2,0.5-0.2c0.2,0,0.4,0.1,0.5,0.3l0.9,1.1
			c-0.3,0.4-0.7,0.7-1.1,1c-0.4,0.3-0.8,0.5-1.2,0.6c-0.4,0.2-0.8,0.3-1.3,0.3c-0.4,0.1-0.9,0.1-1.3,0.1c-0.7,0-1.5-0.1-2.1-0.4
			c-0.7-0.3-1.3-0.7-1.8-1.2c-0.5-0.6-0.9-1.3-1.2-2c-0.5-1.7-0.5-3.5,0-5.2c0.2-0.7,0.6-1.4,1.1-2c0.5-0.6,1.2-1,1.9-1.3
			c0.8-0.3,1.7-0.5,2.6-0.5c0.8,0,1.6,0.1,2.4,0.4c0.7,0.3,1.3,0.7,1.8,1.2L440.1,35.1z"/>
		<path class="st0" d="M445.8,33.8c0.5-0.4,1-0.8,1.6-1.1c0.6-0.3,1.3-0.4,2-0.4c0.6,0,1.2,0.1,1.8,0.3c0.5,0.2,0.9,0.6,1.3,1
			c0.4,0.4,0.6,0.9,0.8,1.5c0.2,0.6,0.3,1.2,0.3,1.9v7.8h-3V37c0-0.6-0.1-1.2-0.5-1.8c-0.4-0.4-1-0.7-1.6-0.6c-0.5,0-1,0.1-1.4,0.3
			c-0.5,0.3-0.9,0.6-1.3,1v8.9h-3V27h3L445.8,33.8z"/>
		<path class="st0" d="M226.4,1.9c0,0.2-0.1,0.5-0.2,0.7c-0.1,0.2-0.2,0.4-0.4,0.6c-0.2,0.2-0.4,0.3-0.6,0.4
			c-0.2,0.1-0.5,0.2-0.7,0.2c-0.2,0-0.5,0-0.7-0.2c-0.2-0.1-0.4-0.2-0.6-0.4c-0.2-0.2-0.3-0.4-0.4-0.6c-0.1-0.2-0.2-0.5-0.1-0.7
			c0-0.3,0-0.5,0.1-0.7c0.1-0.2,0.2-0.4,0.4-0.6c0.2-0.2,0.4-0.3,0.6-0.4c0.2-0.1,0.5-0.2,0.7-0.2c0.3,0,0.5,0,0.7,0.2
			c0.2,0.1,0.4,0.2,0.6,0.4c0.2,0.2,0.3,0.4,0.4,0.6C226.3,1.4,226.4,1.7,226.4,1.9z M226,5.5v12.3h-3V5.5H226z"/>
		<path class="st0" d="M217.7,18c-0.9,0.1-1.8-0.3-2.5-0.9c-0.6-0.7-0.9-1.6-0.9-2.5V7.7h-1.3c-0.2,0-0.3-0.1-0.4-0.2
			c-0.1-0.1-0.2-0.3-0.2-0.5V5.9l2-0.3l0.6-3.3c0-0.1,0.1-0.3,0.2-0.4c0.1-0.1,0.3-0.1,0.4-0.1h1.5v3.9h3.3v2.1h-3.3v6.7
			c0,0.3,0.1,0.6,0.3,0.9c0.2,0.2,0.5,0.3,0.8,0.3c0.2,0,0.3,0,0.5-0.1l0.3-0.1l0.2-0.1c0.1,0,0.1-0.1,0.2-0.1c0.1,0,0.1,0,0.2,0.1
			c0.1,0.1,0.1,0.1,0.2,0.2l0.9,1.4c-0.4,0.4-0.9,0.6-1.5,0.8C218.8,17.9,218.2,18,217.7,18z"/>
		<path class="st0" d="M323.7,1.9c0,0.2-0.1,0.5-0.1,0.7c-0.1,0.2-0.2,0.4-0.4,0.6c-0.2,0.2-0.4,0.3-0.6,0.4
			c-0.2,0.1-0.5,0.2-0.8,0.2c-0.2,0-0.5-0.1-0.7-0.2c-0.2-0.1-0.4-0.2-0.6-0.4c-0.2-0.2-0.3-0.4-0.4-0.6c-0.1-0.2-0.2-0.5-0.1-0.7
			c0-0.3,0-0.5,0.1-0.7c0.1-0.2,0.2-0.4,0.4-0.6c0.2-0.2,0.4-0.3,0.6-0.4c0.2-0.1,0.5-0.2,0.7-0.2c0.3,0,0.5,0,0.8,0.2
			c0.4,0.2,0.8,0.6,1,1C323.6,1.4,323.7,1.7,323.7,1.9z M323.3,5.5v12.3h-3V5.5L323.3,5.5z"/>
		<path class="st0" d="M315,18c-0.9,0.1-1.8-0.3-2.5-0.9c-0.6-0.7-0.9-1.6-0.9-2.5V7.7h-1.3c-0.1,0-0.3-0.1-0.4-0.2
			c-0.1-0.1-0.2-0.3-0.2-0.5V5.9l2-0.3l0.6-3.3c0-0.1,0.1-0.3,0.2-0.4c0.1-0.1,0.3-0.1,0.4-0.1h1.5v3.9h3.3v2.1h-3.3v6.7
			c0,0.3,0.1,0.6,0.3,0.9c0.2,0.2,0.5,0.3,0.8,0.3c0.2,0,0.3,0,0.5-0.1c0.1,0,0.2-0.1,0.3-0.1l0.2-0.1c0.1,0,0.1-0.1,0.2-0.1
			c0.1,0,0.1,0,0.2,0.1c0.1,0.1,0.1,0.1,0.2,0.2l0.9,1.4c-0.4,0.4-0.9,0.6-1.5,0.8C316.2,17.9,315.6,18,315,18z"/>
	</g>
</g>
</svg>
